%FSLAX25Y25*%
%MOIN*%
G70*
G01*
G75*
G04 Layer_Physical_Order=3*
G04 Layer_Color=128*
%ADD10R,0.08661X0.05906*%
%ADD11O,0.00984X0.03347*%
%ADD12O,0.03150X0.01181*%
%ADD13O,0.01181X0.03150*%
%ADD14R,0.06299X0.06299*%
%ADD15R,0.03937X0.03543*%
%ADD16C,0.03000*%
G04:AMPARAMS|DCode=17|XSize=236.22mil|YSize=98.43mil|CornerRadius=24.61mil|HoleSize=0mil|Usage=FLASHONLY|Rotation=0.000|XOffset=0mil|YOffset=0mil|HoleType=Round|Shape=RoundedRectangle|*
%AMROUNDEDRECTD17*
21,1,0.23622,0.04921,0,0,0.0*
21,1,0.18701,0.09843,0,0,0.0*
1,1,0.04921,0.09350,-0.02461*
1,1,0.04921,-0.09350,-0.02461*
1,1,0.04921,-0.09350,0.02461*
1,1,0.04921,0.09350,0.02461*
%
%ADD17ROUNDEDRECTD17*%
G04:AMPARAMS|DCode=18|XSize=98.43mil|YSize=39.37mil|CornerRadius=9.84mil|HoleSize=0mil|Usage=FLASHONLY|Rotation=0.000|XOffset=0mil|YOffset=0mil|HoleType=Round|Shape=RoundedRectangle|*
%AMROUNDEDRECTD18*
21,1,0.09843,0.01969,0,0,0.0*
21,1,0.07874,0.03937,0,0,0.0*
1,1,0.01969,0.03937,-0.00984*
1,1,0.01969,-0.03937,-0.00984*
1,1,0.01969,-0.03937,0.00984*
1,1,0.01969,0.03937,0.00984*
%
%ADD18ROUNDEDRECTD18*%
G04:AMPARAMS|DCode=19|XSize=78.74mil|YSize=94.49mil|CornerRadius=19.69mil|HoleSize=0mil|Usage=FLASHONLY|Rotation=180.000|XOffset=0mil|YOffset=0mil|HoleType=Round|Shape=RoundedRectangle|*
%AMROUNDEDRECTD19*
21,1,0.07874,0.05512,0,0,180.0*
21,1,0.03937,0.09449,0,0,180.0*
1,1,0.03937,-0.01969,0.02756*
1,1,0.03937,0.01969,0.02756*
1,1,0.03937,0.01969,-0.02756*
1,1,0.03937,-0.01969,-0.02756*
%
%ADD19ROUNDEDRECTD19*%
%ADD20R,0.03543X0.03937*%
%ADD21R,0.03150X0.06693*%
%ADD22R,0.03150X0.04331*%
%ADD23R,0.09000X0.09000*%
%ADD24R,0.04331X0.05906*%
%ADD25R,0.05906X0.04331*%
G04:AMPARAMS|DCode=26|XSize=51.18mil|YSize=64.96mil|CornerRadius=12.8mil|HoleSize=0mil|Usage=FLASHONLY|Rotation=0.000|XOffset=0mil|YOffset=0mil|HoleType=Round|Shape=RoundedRectangle|*
%AMROUNDEDRECTD26*
21,1,0.05118,0.03937,0,0,0.0*
21,1,0.02559,0.06496,0,0,0.0*
1,1,0.02559,0.01280,-0.01969*
1,1,0.02559,-0.01280,-0.01969*
1,1,0.02559,-0.01280,0.01969*
1,1,0.02559,0.01280,0.01969*
%
%ADD26ROUNDEDRECTD26*%
G04:AMPARAMS|DCode=27|XSize=31.5mil|YSize=106.3mil|CornerRadius=7.87mil|HoleSize=0mil|Usage=FLASHONLY|Rotation=180.000|XOffset=0mil|YOffset=0mil|HoleType=Round|Shape=RoundedRectangle|*
%AMROUNDEDRECTD27*
21,1,0.03150,0.09055,0,0,180.0*
21,1,0.01575,0.10630,0,0,180.0*
1,1,0.01575,-0.00787,0.04528*
1,1,0.01575,0.00787,0.04528*
1,1,0.01575,0.00787,-0.04528*
1,1,0.01575,-0.00787,-0.04528*
%
%ADD27ROUNDEDRECTD27*%
G04:AMPARAMS|DCode=28|XSize=25.59mil|YSize=43.31mil|CornerRadius=6.4mil|HoleSize=0mil|Usage=FLASHONLY|Rotation=90.000|XOffset=0mil|YOffset=0mil|HoleType=Round|Shape=RoundedRectangle|*
%AMROUNDEDRECTD28*
21,1,0.02559,0.03051,0,0,90.0*
21,1,0.01280,0.04331,0,0,90.0*
1,1,0.01280,0.01526,0.00640*
1,1,0.01280,0.01526,-0.00640*
1,1,0.01280,-0.01526,-0.00640*
1,1,0.01280,-0.01526,0.00640*
%
%ADD28ROUNDEDRECTD28*%
%ADD29C,0.01181*%
%ADD30C,0.01969*%
%ADD31C,0.01000*%
%ADD32C,0.03937*%
%ADD33C,0.03902*%
%ADD34C,0.02953*%
%ADD35C,0.03543*%
G04:AMPARAMS|DCode=36|XSize=86.61mil|YSize=59.06mil|CornerRadius=0mil|HoleSize=0mil|Usage=FLASHONLY|Rotation=0.000|XOffset=0mil|YOffset=0mil|HoleType=Round|Shape=Octagon|*
%AMOCTAGOND36*
4,1,8,0.04331,-0.01476,0.04331,0.01476,0.02854,0.02953,-0.02854,0.02953,-0.04331,0.01476,-0.04331,-0.01476,-0.02854,-0.02953,0.02854,-0.02953,0.04331,-0.01476,0.0*
%
%ADD36OCTAGOND36*%

%ADD37P,0.05114X8X22.5*%
%ADD38C,0.13780*%
%ADD39C,0.05906*%
%ADD40R,0.05906X0.05906*%
%ADD41P,0.04261X8X22.5*%
%ADD42C,0.03937*%
%ADD43R,0.05906X0.05906*%
%ADD44C,0.01969*%
%ADD45C,0.02362*%
%ADD46C,0.04724*%
%ADD47C,0.04000*%
%ADD48C,0.07902*%
%ADD49C,0.06953*%
%ADD50C,0.07543*%
%ADD51O,0.10693X0.07150*%
%ADD52C,0.06362*%
%ADD53C,0.13843*%
%ADD54C,0.05181*%
G36*
X75000Y-27500D02*
X0D01*
Y27500D01*
X75000D01*
Y-27500D01*
D02*
G37*
G36*
X335366Y12402D02*
X364500D01*
Y10630D01*
X373161D01*
Y-10630D01*
X364500D01*
Y-12402D01*
X335366D01*
Y-14764D01*
X330642D01*
Y-12402D01*
X314894D01*
Y12402D01*
X330642D01*
Y14764D01*
X335366D01*
Y12402D01*
D02*
G37*
G36*
X33858Y62402D02*
X49606D01*
Y37598D01*
X33858D01*
Y35236D01*
X29134D01*
Y37598D01*
X0D01*
Y39370D01*
X-8661D01*
Y60630D01*
X0D01*
Y62402D01*
X29134D01*
Y64764D01*
X33858D01*
Y62402D01*
D02*
G37*
D31*
X233000Y40500D02*
Y51500D01*
Y40500D02*
X343500D01*
Y51500D01*
X340500D02*
X343500D01*
X233000D02*
X340500D01*
X25000Y-73000D02*
Y-60500D01*
X12000D02*
X25000D01*
X8500Y-57000D02*
X12000Y-60500D01*
X8500Y-57000D02*
Y-36000D01*
X11000Y-33500D01*
X40000D01*
X41000Y-34500D01*
Y-45500D02*
Y-34500D01*
Y-45500D02*
X44000Y-48500D01*
X48500D01*
Y-27500D01*
Y-48500D02*
X57000D01*
Y-37500D01*
X58500Y-36000D01*
X83500D01*
X88000Y-31500D01*
Y-10500D01*
X86000Y-8500D02*
X88000Y-10500D01*
X75000Y-8500D02*
X86000D01*
D47*
X364500Y12402D02*
Y73000D01*
X0D02*
X364500D01*
X0Y62402D02*
Y73000D01*
Y62402D02*
X29134D01*
Y64764D01*
X33858D01*
Y62402D02*
Y64764D01*
Y62402D02*
X49606D01*
Y37598D02*
Y62402D01*
X33858Y37598D02*
X49606D01*
X33858Y35236D02*
Y37598D01*
X29134Y35236D02*
X33858D01*
X29134D02*
Y37598D01*
X0D02*
X29134D01*
X0Y27500D02*
Y37598D01*
Y27500D02*
X75000D01*
Y-27500D02*
Y27500D01*
X0Y-27500D02*
X75000D01*
X0Y-73000D02*
Y-27500D01*
Y-73000D02*
X364500D01*
Y-12402D01*
X335366D02*
X364500D01*
X335366Y-14764D02*
Y-12402D01*
X330642Y-14764D02*
X335366D01*
X330642D02*
Y-12402D01*
X314894D02*
X330642D01*
X314894D02*
Y12402D01*
X330642D01*
Y14764D01*
X335366D01*
Y12402D02*
Y14764D01*
Y12402D02*
X364500D01*
D48*
X138500Y46504D02*
D03*
Y54496D02*
D03*
X108500Y50500D02*
D03*
D49*
X64000Y68000D02*
D03*
D50*
X110866Y33417D02*
D03*
Y-57528D02*
D03*
X269134Y33417D02*
D03*
Y-57528D02*
D03*
X95000Y47874D02*
D03*
Y40000D02*
D03*
X82500Y-8126D02*
D03*
Y-252D02*
D03*
Y7622D02*
D03*
Y15496D02*
D03*
X92000Y-27500D02*
D03*
X102000D02*
D03*
X153500Y64500D02*
D03*
X143500D02*
D03*
X133500D02*
D03*
X123500D02*
D03*
X113500D02*
D03*
X103500D02*
D03*
X103000Y-38000D02*
D03*
Y-48000D02*
D03*
Y-58000D02*
D03*
X154000Y6500D02*
D03*
X112598Y-15598D02*
D03*
D51*
X258110Y-49850D02*
D03*
X121890D02*
D03*
D52*
X142756Y-56346D02*
D03*
X148661D02*
D03*
X154567D02*
D03*
X160473D02*
D03*
X166378D02*
D03*
X172283D02*
D03*
X178189D02*
D03*
X184095D02*
D03*
X190000D02*
D03*
X195905D02*
D03*
X201811D02*
D03*
X213622D02*
D03*
X219528D02*
D03*
X225433D02*
D03*
X231339D02*
D03*
X237244D02*
D03*
X299638Y-1575D02*
D03*
X304362D02*
D03*
D53*
X350394Y-59055D02*
D03*
Y59055D02*
D03*
X78740Y39370D02*
D03*
D54*
X12000Y-42000D02*
D03*
X9047Y-43378D02*
D03*
Y-40622D02*
D03*
X14953D02*
D03*
Y-43378D02*
D03*
X58531Y-38532D02*
D03*
X62468D02*
D03*
Y-42469D02*
D03*
X58531D02*
D03*
X60500Y-40500D02*
D03*
X25000Y-67400D02*
D03*
X41900Y-50100D02*
D03*
X320500Y36000D02*
D03*
X320000Y55500D02*
D03*
X320500Y64000D02*
D03*
X314791Y68291D02*
D03*
Y27209D02*
D03*
X339000Y34500D02*
D03*
X318000Y-21500D02*
D03*
X358791Y-32791D02*
D03*
X314000Y-21500D02*
D03*
X358791Y-46791D02*
D03*
X341000Y23500D02*
D03*
X300500Y-40500D02*
D03*
X312500Y-41000D02*
D03*
X308425Y-21575D02*
D03*
X359000Y-37000D02*
D03*
X348500Y-17500D02*
D03*
X354000Y-22000D02*
D03*
X292500Y60000D02*
D03*
X285500Y60500D02*
D03*
X280000Y55500D02*
D03*
X271953Y56547D02*
D03*
X265500Y46500D02*
D03*
X276941Y39441D02*
D03*
X273500Y39000D02*
D03*
X254500Y28000D02*
D03*
X265500Y36000D02*
D03*
X269500Y42000D02*
D03*
X298000Y54500D02*
D03*
X282500Y68000D02*
D03*
X265000D02*
D03*
X255783Y62217D02*
D03*
X245000Y55500D02*
D03*
X30700Y-51700D02*
D03*
X13122Y-67378D02*
D03*
X228000Y48000D02*
D03*
X230000Y42000D02*
D03*
X245000Y37500D02*
D03*
X233154Y59346D02*
D03*
X238000Y16000D02*
D03*
X264000Y33000D02*
D03*
X263500Y21000D02*
D03*
X273500Y34500D02*
D03*
X279500Y51500D02*
D03*
X254000Y-5000D02*
D03*
X234500Y1000D02*
D03*
X254000Y-10000D02*
D03*
X184000Y3000D02*
D03*
X215047Y-5047D02*
D03*
X221500Y36000D02*
D03*
Y30000D02*
D03*
X201000Y22500D02*
D03*
X197000Y39000D02*
D03*
X195000Y21000D02*
D03*
X187000Y30500D02*
D03*
X183500Y22000D02*
D03*
X192000Y39000D02*
D03*
X276000Y68000D02*
D03*
X224500Y65000D02*
D03*
X160500Y32500D02*
D03*
X75500Y54000D02*
D03*
X160500Y36000D02*
D03*
X176347Y31346D02*
D03*
X137126Y18374D02*
D03*
X142500Y40500D02*
D03*
X223500Y10000D02*
D03*
X134500Y42000D02*
D03*
Y15500D02*
D03*
X229000Y8000D02*
D03*
X131000Y42000D02*
D03*
Y12500D02*
D03*
X229000Y4500D02*
D03*
X119500Y10500D02*
D03*
X228858Y858D02*
D03*
X140000Y50500D02*
D03*
X118500Y57500D02*
D03*
X68496Y61504D02*
D03*
X7000Y68000D02*
D03*
X58653Y43154D02*
D03*
X18500Y68000D02*
D03*
X17500Y33000D02*
D03*
X53000Y34000D02*
D03*
X89000Y28000D02*
D03*
X78000Y60000D02*
D03*
X93532Y5531D02*
D03*
X147000Y7000D02*
D03*
X163000Y7500D02*
D03*
X297000Y17000D02*
D03*
X290500Y10500D02*
D03*
X272930Y430D02*
D03*
X266000Y-16000D02*
D03*
X329000Y-60000D02*
D03*
Y-27500D02*
D03*
X311055Y-54445D02*
D03*
X274933Y-51567D02*
D03*
X275000Y-27000D02*
D03*
X215000Y-34500D02*
D03*
X218000Y-44500D02*
D03*
X135534Y-61034D02*
D03*
X142528Y-61028D02*
D03*
X162909Y-61091D02*
D03*
X171153Y-61154D02*
D03*
X222445Y-65555D02*
D03*
X209746Y-6746D02*
D03*
X122000Y2500D02*
D03*
X130500Y-31000D02*
D03*
X109500Y-30500D02*
D03*
Y-40000D02*
D03*
X95500Y-43000D02*
D03*
X138500Y-11000D02*
D03*
X145500Y-31000D02*
D03*
X38000Y-50000D02*
D03*
X61500Y-31000D02*
D03*
X112500Y-33500D02*
D03*
X77500Y-37000D02*
D03*
X113500Y-37500D02*
D03*
X110000Y-52000D02*
D03*
X214000Y-8500D02*
D03*
X150000Y-51000D02*
D03*
X108555Y-65555D02*
D03*
X181500Y-30000D02*
D03*
X177000Y-38500D02*
D03*
X173000Y-41500D02*
D03*
X96846Y-63346D02*
D03*
X160000Y-41000D02*
D03*
Y-51000D02*
D03*
X156500Y-41000D02*
D03*
X153000D02*
D03*
X156500Y-48500D02*
D03*
X153000Y-46000D02*
D03*
X195000Y-40000D02*
D03*
Y-46000D02*
D03*
X198000Y-48500D02*
D03*
X201500Y-51000D02*
D03*
X207500Y-24000D02*
D03*
X190500D02*
D03*
X71000Y-63500D02*
D03*
X205000Y43500D02*
D03*
X206000Y-50500D02*
D03*
X205890Y-47000D02*
D03*
X251600Y-15400D02*
D03*
X242400Y-15300D02*
D03*
X183300Y-15900D02*
D03*
X180087Y-65418D02*
D03*
X122000Y-61000D02*
D03*
X193960Y-65506D02*
D03*
X210975Y-60871D02*
D03*
X223500Y-45000D02*
D03*
Y-41500D02*
D03*
Y-38000D02*
D03*
Y-34500D02*
D03*
X169000Y-15500D02*
D03*
X204500Y-6000D02*
D03*
X89000Y-4000D02*
D03*
X200000Y-6500D02*
D03*
X206500Y-2500D02*
D03*
X298000Y-57500D02*
D03*
X315000Y-65000D02*
D03*
X264500Y-65500D02*
D03*
Y-57500D02*
D03*
X294000Y-60000D02*
D03*
X307000Y-61500D02*
D03*
X258000Y19500D02*
D03*
X236500Y39500D02*
D03*
X240500D02*
D03*
X257000Y39000D02*
D03*
Y35000D02*
D03*
X165000Y-15000D02*
D03*
X166000Y-21000D02*
D03*
X167500Y-24500D02*
D03*
X171000D02*
D03*
X71000Y-52000D02*
D03*
M02*
