%FSLAX25Y25*%
%MOIN*%
G70*
G01*
G75*
G04 Layer_Color=65535*
%ADD10R,0.08661X0.05906*%
%ADD11O,0.00984X0.03347*%
%ADD12O,0.03150X0.01181*%
%ADD13O,0.01181X0.03150*%
%ADD14R,0.06299X0.06299*%
%ADD15R,0.03937X0.03543*%
%ADD16C,0.03000*%
G04:AMPARAMS|DCode=17|XSize=236.22mil|YSize=98.43mil|CornerRadius=24.61mil|HoleSize=0mil|Usage=FLASHONLY|Rotation=0.000|XOffset=0mil|YOffset=0mil|HoleType=Round|Shape=RoundedRectangle|*
%AMROUNDEDRECTD17*
21,1,0.23622,0.04921,0,0,0.0*
21,1,0.18701,0.09843,0,0,0.0*
1,1,0.04921,0.09350,-0.02461*
1,1,0.04921,-0.09350,-0.02461*
1,1,0.04921,-0.09350,0.02461*
1,1,0.04921,0.09350,0.02461*
%
%ADD17ROUNDEDRECTD17*%
G04:AMPARAMS|DCode=18|XSize=98.43mil|YSize=39.37mil|CornerRadius=9.84mil|HoleSize=0mil|Usage=FLASHONLY|Rotation=0.000|XOffset=0mil|YOffset=0mil|HoleType=Round|Shape=RoundedRectangle|*
%AMROUNDEDRECTD18*
21,1,0.09843,0.01969,0,0,0.0*
21,1,0.07874,0.03937,0,0,0.0*
1,1,0.01969,0.03937,-0.00984*
1,1,0.01969,-0.03937,-0.00984*
1,1,0.01969,-0.03937,0.00984*
1,1,0.01969,0.03937,0.00984*
%
%ADD18ROUNDEDRECTD18*%
G04:AMPARAMS|DCode=19|XSize=78.74mil|YSize=94.49mil|CornerRadius=19.69mil|HoleSize=0mil|Usage=FLASHONLY|Rotation=180.000|XOffset=0mil|YOffset=0mil|HoleType=Round|Shape=RoundedRectangle|*
%AMROUNDEDRECTD19*
21,1,0.07874,0.05512,0,0,180.0*
21,1,0.03937,0.09449,0,0,180.0*
1,1,0.03937,-0.01969,0.02756*
1,1,0.03937,0.01969,0.02756*
1,1,0.03937,0.01969,-0.02756*
1,1,0.03937,-0.01969,-0.02756*
%
%ADD19ROUNDEDRECTD19*%
%ADD20R,0.03543X0.03937*%
%ADD21R,0.03150X0.06693*%
%ADD22R,0.03150X0.04331*%
%ADD23R,0.09000X0.09000*%
%ADD24R,0.04331X0.05906*%
%ADD25R,0.05906X0.04331*%
G04:AMPARAMS|DCode=26|XSize=51.18mil|YSize=64.96mil|CornerRadius=12.8mil|HoleSize=0mil|Usage=FLASHONLY|Rotation=0.000|XOffset=0mil|YOffset=0mil|HoleType=Round|Shape=RoundedRectangle|*
%AMROUNDEDRECTD26*
21,1,0.05118,0.03937,0,0,0.0*
21,1,0.02559,0.06496,0,0,0.0*
1,1,0.02559,0.01280,-0.01969*
1,1,0.02559,-0.01280,-0.01969*
1,1,0.02559,-0.01280,0.01969*
1,1,0.02559,0.01280,0.01969*
%
%ADD26ROUNDEDRECTD26*%
G04:AMPARAMS|DCode=27|XSize=31.5mil|YSize=106.3mil|CornerRadius=7.87mil|HoleSize=0mil|Usage=FLASHONLY|Rotation=180.000|XOffset=0mil|YOffset=0mil|HoleType=Round|Shape=RoundedRectangle|*
%AMROUNDEDRECTD27*
21,1,0.03150,0.09055,0,0,180.0*
21,1,0.01575,0.10630,0,0,180.0*
1,1,0.01575,-0.00787,0.04528*
1,1,0.01575,0.00787,0.04528*
1,1,0.01575,0.00787,-0.04528*
1,1,0.01575,-0.00787,-0.04528*
%
%ADD27ROUNDEDRECTD27*%
G04:AMPARAMS|DCode=28|XSize=25.59mil|YSize=43.31mil|CornerRadius=6.4mil|HoleSize=0mil|Usage=FLASHONLY|Rotation=90.000|XOffset=0mil|YOffset=0mil|HoleType=Round|Shape=RoundedRectangle|*
%AMROUNDEDRECTD28*
21,1,0.02559,0.03051,0,0,90.0*
21,1,0.01280,0.04331,0,0,90.0*
1,1,0.01280,0.01526,0.00640*
1,1,0.01280,0.01526,-0.00640*
1,1,0.01280,-0.01526,-0.00640*
1,1,0.01280,-0.01526,0.00640*
%
%ADD28ROUNDEDRECTD28*%
%ADD29C,0.01181*%
%ADD30C,0.01969*%
%ADD31C,0.01000*%
%ADD32C,0.03937*%
%ADD33C,0.03902*%
%ADD34C,0.02953*%
%ADD35C,0.03543*%
G04:AMPARAMS|DCode=36|XSize=86.61mil|YSize=59.06mil|CornerRadius=0mil|HoleSize=0mil|Usage=FLASHONLY|Rotation=0.000|XOffset=0mil|YOffset=0mil|HoleType=Round|Shape=Octagon|*
%AMOCTAGOND36*
4,1,8,0.04331,-0.01476,0.04331,0.01476,0.02854,0.02953,-0.02854,0.02953,-0.04331,0.01476,-0.04331,-0.01476,-0.02854,-0.02953,0.02854,-0.02953,0.04331,-0.01476,0.0*
%
%ADD36OCTAGOND36*%

%ADD37P,0.05114X8X22.5*%
%ADD38C,0.13780*%
%ADD39C,0.05906*%
%ADD40R,0.05906X0.05906*%
%ADD41P,0.04261X8X22.5*%
%ADD42C,0.03937*%
%ADD43R,0.05906X0.05906*%
%ADD44C,0.01969*%
%ADD45C,0.02362*%
%ADD46C,0.04724*%
%ADD47C,0.04000*%
%ADD48C,0.07902*%
%ADD49C,0.06953*%
%ADD50C,0.07543*%
%ADD51O,0.10693X0.07150*%
%ADD52C,0.06362*%
%ADD53C,0.13843*%
%ADD54C,0.05181*%
%ADD55C,0.03098*%
%ADD56R,0.10630X0.07874*%
%ADD57R,0.05709X0.07874*%
%ADD58R,0.03150X0.05906*%
%ADD59O,0.01181X0.07087*%
%ADD60O,0.07087X0.01181*%
G04:AMPARAMS|DCode=61|XSize=50mil|YSize=70mil|CornerRadius=12.5mil|HoleSize=0mil|Usage=FLASHONLY|Rotation=90.000|XOffset=0mil|YOffset=0mil|HoleType=Round|Shape=RoundedRectangle|*
%AMROUNDEDRECTD61*
21,1,0.05000,0.04500,0,0,90.0*
21,1,0.02500,0.07000,0,0,90.0*
1,1,0.02500,0.02250,0.01250*
1,1,0.02500,0.02250,-0.01250*
1,1,0.02500,-0.02250,-0.01250*
1,1,0.02500,-0.02250,0.01250*
%
%ADD61ROUNDEDRECTD61*%
%ADD62C,0.00984*%
%ADD63C,0.00394*%
%ADD64C,0.00787*%
G36*
X260473Y47475D02*
X260473D01*
X260441Y47396D01*
X260440Y47396D01*
X260441Y47398D01*
X260473Y47475D01*
X260473Y47475D01*
X260473Y47479D01*
X260475D01*
X260473Y47475D01*
D02*
G37*
G36*
X260141Y51710D02*
X260139Y51707D01*
X260221Y51658D01*
X260263Y51641D01*
X260300Y51552D01*
X260299Y51552D01*
X260351Y51398D01*
X260371Y51350D01*
X260375Y51350D01*
X260508Y48289D01*
X260473Y47479D01*
X260459D01*
X260440Y47396D01*
X260326Y47142D01*
X260297Y47072D01*
X260194Y47029D01*
X260194Y47032D01*
X259950Y46968D01*
X259901Y46948D01*
Y46964D01*
X257890Y46948D01*
X257869Y46957D01*
X257870Y46965D01*
X257747Y46969D01*
X257615Y47023D01*
X257595Y47074D01*
X257596Y47074D01*
X257557Y47139D01*
X257515Y47240D01*
X257520Y47254D01*
X257531Y47253D01*
X257528Y47367D01*
X257554Y47429D01*
X257554D01*
X257706Y47797D01*
X257706D01*
X257713Y47814D01*
X257714Y47814D01*
X257714Y47814D01*
X259614Y51429D01*
X259638Y51487D01*
X259655Y51494D01*
X259662Y51487D01*
X259662Y51487D01*
X259897Y51699D01*
X259904Y51692D01*
X259897Y51699D01*
X259898Y51700D01*
X259897Y51699D01*
X259897Y51699D01*
X259897Y51699D01*
X259897Y51699D01*
X259897Y51699D01*
D01*
X260032Y51755D01*
X260141Y51710D01*
D02*
G37*
G36*
X261377Y72175D02*
X263822Y71812D01*
X263830Y71805D01*
X263830Y71805D01*
X263830Y71805D01*
X263837Y71799D01*
X263837Y71799D01*
X270645Y70347D01*
X270689Y70329D01*
Y70329D01*
D01*
X270689Y70328D01*
X270689Y70328D01*
X275992Y67754D01*
X276036Y67736D01*
X276039Y67722D01*
Y67722D01*
X279778Y64364D01*
Y64364D01*
X279778D01*
X279845Y64304D01*
X279846Y64303D01*
D01*
X279846Y64303D01*
D01*
D01*
X279875Y64283D01*
X279886Y64256D01*
X279885Y64255D01*
X282207Y60264D01*
X282229Y60211D01*
X282229Y60201D01*
D01*
X282229D01*
X282229Y60201D01*
X282229Y60201D01*
X282229Y60201D01*
X282229Y60201D01*
D01*
X282229D01*
Y60201D01*
X283072Y55931D01*
X283072Y55910D01*
D01*
Y55910D01*
D01*
X283072Y55909D01*
X283072Y55909D01*
X283072D01*
Y55909D01*
Y55909D01*
Y55909D01*
X283073Y55844D01*
X283073Y55844D01*
X283073D01*
X283073D01*
X283073Y55844D01*
X283073Y55843D01*
X283067Y55801D01*
X283067Y55801D01*
X283067D01*
X282453Y51527D01*
X282453Y51527D01*
D01*
D01*
D01*
D01*
D01*
X282447Y51526D01*
X282447D01*
D01*
D01*
Y51526D01*
D01*
D01*
D01*
X282447Y51511D01*
X282427Y51464D01*
X282426Y51464D01*
D01*
D01*
X282426Y51464D01*
X282426D01*
X280339Y47397D01*
X280339D01*
X280335Y47391D01*
X280334Y47390D01*
X280334D01*
X280334Y47390D01*
X280334Y47389D01*
X280334Y47390D01*
Y47389D01*
X280302Y47346D01*
X277976Y45001D01*
X276588Y43915D01*
X276382Y43927D01*
X274403Y46439D01*
D01*
X274406Y46443D01*
X274408Y46445D01*
D01*
D01*
D01*
X274408Y46445D01*
X274408D01*
Y46445D01*
Y46445D01*
D01*
X274403Y46450D01*
Y46450D01*
X274394Y46459D01*
X274380Y46492D01*
X274273Y46757D01*
Y46757D01*
Y46757D01*
X274451Y47157D01*
X274455Y47161D01*
X274481Y47173D01*
D01*
D01*
X274481Y47173D01*
X274481Y47173D01*
D01*
D01*
D01*
X274482Y47174D01*
D01*
D01*
D01*
X274875Y47530D01*
X275077Y47714D01*
D01*
X275077Y47714D01*
X275077D01*
X275077Y47714D01*
D01*
D01*
X275077Y47714D01*
D01*
D01*
D01*
X276317Y48838D01*
X278429Y51168D01*
X278941Y51858D01*
X278935Y51863D01*
X279138Y52395D01*
X279051Y52832D01*
X278676Y53517D01*
X278265Y54068D01*
X277849Y54181D01*
X277501Y53951D01*
X275550Y51726D01*
D01*
X275550Y51726D01*
X273323Y49187D01*
D01*
X273323D01*
D01*
D01*
D01*
X273323D01*
Y49187D01*
X273131Y48956D01*
D01*
X273131Y48956D01*
X272907Y49015D01*
X272749Y49091D01*
X272664Y49176D01*
X272627Y49242D01*
X272630Y49247D01*
X272630Y49247D01*
X272665Y49556D01*
X272674Y49578D01*
X272676Y49577D01*
X273004Y50889D01*
X273004Y50889D01*
D01*
Y50889D01*
D01*
D01*
Y50889D01*
X273006Y50892D01*
X273457Y52516D01*
X273526Y52898D01*
X273399Y53088D01*
X272653Y53529D01*
X271497Y54073D01*
X271124Y54168D01*
Y54168D01*
X271124D01*
D01*
D01*
X271124D01*
D01*
Y54168D01*
Y54168D01*
X271064Y54183D01*
D01*
X270954Y54211D01*
X270954Y54211D01*
X270855Y54150D01*
X270712Y53956D01*
X270712Y53955D01*
X270702Y53904D01*
X270701Y53901D01*
X270701Y53901D01*
D01*
D01*
Y53901D01*
D01*
D01*
X270701D01*
X269922Y49986D01*
X269426Y45789D01*
X269372Y44432D01*
X269372Y44432D01*
Y44432D01*
Y44432D01*
X269372Y44432D01*
X269372D01*
X269357Y44314D01*
X269144Y44188D01*
X268660Y44316D01*
X268394Y44781D01*
X268305Y44879D01*
X268187Y44886D01*
X267360Y44801D01*
X267360Y44801D01*
X267360Y44801D01*
X267355Y44800D01*
X267355Y44800D01*
X266090Y44682D01*
X265958Y44682D01*
Y44682D01*
X265953Y44682D01*
X265953Y44682D01*
X265953Y44682D01*
X265717Y44658D01*
X265334Y44979D01*
X265291Y45501D01*
X265286Y45514D01*
X265307Y45566D01*
X265309Y45566D01*
X265666Y46885D01*
Y46885D01*
Y46885D01*
X265666Y46885D01*
D01*
X265666D01*
X265668Y46887D01*
X265668Y46887D01*
X266296Y49016D01*
X266296D01*
X266296Y49017D01*
X266804Y50747D01*
X267177Y52095D01*
X267252Y53054D01*
X266982Y53413D01*
X266226Y53776D01*
X265405Y54093D01*
D01*
D01*
Y54093D01*
D01*
D01*
D01*
D01*
Y54093D01*
D01*
D01*
D01*
D01*
D01*
D01*
X265402Y54094D01*
D01*
X265401D01*
D01*
X265401Y54094D01*
D01*
D01*
D01*
D01*
D01*
D01*
D01*
D01*
X265401D01*
Y54094D01*
D01*
D01*
X265401Y54094D01*
X265401Y54094D01*
X265119Y54190D01*
X264976Y54159D01*
X264646Y53609D01*
X264152Y51697D01*
X263213Y46977D01*
X263108Y46722D01*
X262618Y46822D01*
X262666Y52926D01*
X262587Y53534D01*
X262315Y53740D01*
X261186Y53971D01*
X259542Y54203D01*
X258731Y54134D01*
X258202Y53532D01*
X256701Y50725D01*
X254462Y45783D01*
X253720Y43811D01*
X253722Y43810D01*
X253628Y43314D01*
X253663Y43242D01*
X253781Y43171D01*
X255051Y42753D01*
X255347Y42697D01*
X255505Y42883D01*
X255875Y43658D01*
X255875Y43658D01*
X255875Y43658D01*
X255876Y43660D01*
X256332Y44603D01*
X256346Y44636D01*
X256381Y44667D01*
D01*
X256635Y44903D01*
X256700Y44929D01*
X256700D01*
X256700Y44929D01*
X256700Y44929D01*
X256921Y45017D01*
X256970Y45030D01*
X259718Y45359D01*
X259887Y45329D01*
D01*
D01*
D01*
D01*
X259887D01*
X259887Y45329D01*
X259956Y45322D01*
D01*
D01*
Y45322D01*
X260365Y45211D01*
X260366Y45210D01*
Y45210D01*
X260366Y45210D01*
X260366D01*
X260496Y45092D01*
Y45092D01*
X260496D01*
X260496Y45092D01*
D01*
X260497Y45092D01*
X260497Y45092D01*
D01*
X260497Y45092D01*
D01*
D01*
X260497Y45092D01*
X260497Y45091D01*
X260498Y45091D01*
X260498Y45091D01*
D01*
Y45091D01*
X260498Y45091D01*
X260607Y44815D01*
D01*
X260607Y44815D01*
D01*
D01*
D01*
D01*
X260622Y44743D01*
D01*
D01*
Y44743D01*
X260622D01*
X260642Y44131D01*
X260631Y43976D01*
D01*
D01*
D01*
Y43976D01*
D01*
D01*
Y43976D01*
X260631Y43975D01*
X260631Y43955D01*
X260622Y42982D01*
D01*
X260622Y42982D01*
X260622Y42982D01*
X260703Y42726D01*
X260902Y42663D01*
X261594Y42656D01*
X262373Y42663D01*
X262523Y42730D01*
X262573Y42940D01*
X262579Y43259D01*
X262997Y43533D01*
X263116Y43484D01*
X263285Y43161D01*
X264037Y42693D01*
X265281Y42777D01*
X267019Y43085D01*
X267019Y43083D01*
X267019Y43083D01*
X267025Y43080D01*
Y43080D01*
D01*
X267025Y43080D01*
X267026Y43080D01*
X267026D01*
D01*
D01*
Y43080D01*
Y43080D01*
D01*
X268789Y43343D01*
X268791Y43344D01*
X268792Y43344D01*
Y43344D01*
X268794Y43345D01*
X268794Y43344D01*
X269129Y43396D01*
X269433Y43206D01*
X269434Y43205D01*
X269434Y43205D01*
D01*
D01*
D01*
D01*
X269434Y43204D01*
X269434Y43204D01*
D01*
X269434Y43204D01*
D01*
D01*
X269434D01*
D01*
D01*
X269434D01*
X269434Y43204D01*
X269466Y43122D01*
X269694Y42841D01*
X270547Y42759D01*
X271417Y42777D01*
X271429Y42784D01*
X271449Y42820D01*
X271478Y43206D01*
X271577Y45552D01*
X271595Y45594D01*
X271597Y45594D01*
X271621Y45687D01*
X271828Y45789D01*
D01*
X272331Y45700D01*
X272367Y45671D01*
X272367Y45671D01*
X272379Y45670D01*
X273976Y43754D01*
X274333Y43302D01*
X274555Y42767D01*
X274362Y42306D01*
X268877Y40066D01*
X268877Y40066D01*
X268877Y40066D01*
X268841Y40051D01*
X268836Y40054D01*
X268836Y40054D01*
X263197Y39063D01*
X263178Y39055D01*
X263164Y39065D01*
Y39065D01*
X257062Y38980D01*
X257062Y38980D01*
X257062Y38980D01*
X257045Y38985D01*
X257046Y38995D01*
X253418Y39243D01*
D01*
Y39243D01*
D01*
X253418Y39244D01*
X253414Y39252D01*
X253410Y39253D01*
X253410Y39253D01*
X253410D01*
D01*
D01*
D01*
X253316Y39261D01*
X252848Y39305D01*
D01*
D01*
D01*
D01*
X252848D01*
D01*
X252457Y39146D01*
X250787Y38123D01*
X248499Y37175D01*
X246092Y36597D01*
X243623Y36403D01*
X243011Y36451D01*
X242561Y36637D01*
X242446Y36915D01*
X242414Y37168D01*
X245004Y39109D01*
X246178Y40525D01*
X246308Y40733D01*
X246292Y40919D01*
X246292Y40919D01*
X246318Y40981D01*
D01*
X246336Y41025D01*
X246345Y41034D01*
D01*
D01*
Y41034D01*
X246350Y41041D01*
Y41041D01*
X246357Y41052D01*
X246362Y41058D01*
D01*
D01*
X246362D01*
X246363Y41060D01*
X246363Y41060D01*
X246364Y41060D01*
X246371Y41071D01*
X246391Y41098D01*
D01*
X246397Y41108D01*
X247975Y43327D01*
D01*
X247975D01*
D01*
D01*
X247990Y43336D01*
X248100Y43400D01*
D01*
X248140Y43424D01*
X248251Y43374D01*
X248251D01*
Y43374D01*
D01*
X248758Y43035D01*
X248758Y43035D01*
X249893Y42692D01*
X250312Y42734D01*
X250443Y43044D01*
X251098Y46338D01*
X252335Y51701D01*
X252335Y51701D01*
D01*
X252335D01*
Y51701D01*
X252335D01*
D01*
D01*
D01*
D01*
X252335D01*
D01*
Y51701D01*
X252668Y52122D01*
X252670Y52121D01*
X252670Y52121D01*
X252943Y52187D01*
X252968Y52198D01*
X252979Y52190D01*
X252979Y52190D01*
X252980Y52190D01*
X252980Y52190D01*
X253886Y52238D01*
X254982Y52321D01*
X254982Y52321D01*
X254982Y52321D01*
X254982Y52321D01*
Y52321D01*
X254982Y52321D01*
X255245Y52341D01*
X255245Y52341D01*
X255357Y52393D01*
X255368Y52412D01*
X255368Y52412D01*
X255257Y52738D01*
X255257Y52738D01*
X255257D01*
D01*
D01*
X255257D01*
X255242Y52783D01*
X254799Y53430D01*
D01*
X254799Y53430D01*
D01*
D01*
D01*
X254799Y53431D01*
X254799Y53431D01*
X254798Y53432D01*
X254797Y53433D01*
X254797Y53434D01*
X254797D01*
D01*
X254797Y53434D01*
X254797D01*
X254797D01*
X254797D01*
X254797D01*
X254797D01*
X254797Y53433D01*
X254431Y53927D01*
X254219Y54063D01*
X253910Y54151D01*
X250294Y53994D01*
X246661Y53515D01*
X246302Y53436D01*
X246302D01*
X246302Y53436D01*
X246302Y53436D01*
Y53436D01*
X246302Y53436D01*
X246145Y53401D01*
X246064Y53342D01*
X245989Y53307D01*
X245966Y53269D01*
X245965Y53269D01*
X246057Y53000D01*
X246057Y53000D01*
X246057D01*
D01*
D01*
X246057D01*
X246098Y52879D01*
X247113Y51410D01*
X247365Y51296D01*
X247763Y51336D01*
X248774Y51534D01*
X248794Y51543D01*
X248808Y51534D01*
Y51534D01*
X249080Y51552D01*
X249377Y51242D01*
X249407Y51078D01*
X249407Y51081D01*
X249400Y51053D01*
X249400D01*
X249252Y50384D01*
X249251Y50384D01*
X249252D01*
X248691Y47857D01*
X248150Y43747D01*
D01*
X248150Y43747D01*
X248150Y43747D01*
X248150D01*
Y43747D01*
X248149Y43723D01*
X248141Y43636D01*
X248141Y43636D01*
X248141D01*
X248117Y43607D01*
D01*
X248078Y43560D01*
X248065Y43543D01*
X248037Y43508D01*
D01*
X248037D01*
Y43508D01*
D01*
X247945Y43396D01*
X247945D01*
D01*
Y43396D01*
D01*
X247923Y43369D01*
X247923D01*
D01*
D01*
Y43369D01*
D01*
X246230Y41295D01*
X246198Y41256D01*
D01*
X246186Y41241D01*
X246168Y41220D01*
X246168Y41220D01*
D01*
X246168Y41220D01*
X246158Y41207D01*
X246158D01*
D01*
D01*
X246158Y41207D01*
D01*
D01*
X246157Y41206D01*
X246147Y41196D01*
X246110Y41161D01*
D01*
X246110Y41161D01*
D01*
D01*
Y41161D01*
D01*
X246003Y41116D01*
X246001Y41118D01*
X245942Y41142D01*
X245941Y41142D01*
X245941Y41142D01*
X244575Y41606D01*
X242267Y42744D01*
X240128Y44173D01*
X238194Y45870D01*
X236497Y47804D01*
X235068Y49944D01*
X234479Y51136D01*
X234480Y51136D01*
X234480D01*
D01*
D01*
D01*
Y51136D01*
D01*
D01*
D01*
X234479Y51137D01*
X234470Y51160D01*
D01*
X234470Y51161D01*
X234470D01*
X234470Y51161D01*
Y51161D01*
X234469Y51161D01*
D01*
D01*
X234469Y51161D01*
X234410Y51220D01*
X234393Y51261D01*
X233901Y53310D01*
X233736Y55410D01*
X233901Y57510D01*
X234393Y59559D01*
X235199Y61505D01*
X236300Y63302D01*
X237668Y64904D01*
X237832Y65043D01*
X238324Y64953D01*
X238665Y64328D01*
X238841Y64210D01*
X239085Y64220D01*
X239706Y64355D01*
X239706Y64355D01*
X240428Y64517D01*
X240428Y64517D01*
D01*
D01*
X240428Y64517D01*
D01*
D01*
D01*
D01*
X240428D01*
X240428Y64517D01*
X240428Y64518D01*
D01*
X240428Y64518D01*
D01*
Y64518D01*
X240428D01*
D01*
D01*
D01*
D01*
D01*
D01*
D01*
D01*
D01*
D01*
Y64518D01*
X240450Y64526D01*
X240462Y64519D01*
X240462Y64519D01*
X240653Y64535D01*
X240901Y64320D01*
X241004Y64179D01*
X241012Y64149D01*
X241005Y64115D01*
X241005D01*
X240613Y62256D01*
X239732Y56855D01*
X239738Y56854D01*
X239744Y56305D01*
X239974Y56047D01*
X241370Y55464D01*
X241743Y55455D01*
X241904Y55764D01*
X242123Y56735D01*
X242124Y56735D01*
X242124Y56736D01*
X242609Y58912D01*
X242609Y58912D01*
X242609D01*
D01*
D01*
Y58912D01*
X242612Y58912D01*
X242612Y58913D01*
Y58913D01*
X243180Y61451D01*
Y61451D01*
X243180D01*
X243180Y61451D01*
X243180D01*
D01*
D01*
X243180Y61452D01*
X243180Y61452D01*
X243910Y64717D01*
X243910Y64717D01*
X243910Y64717D01*
X243908Y64721D01*
D01*
X243950Y64800D01*
X243950Y64800D01*
D01*
X244049Y64936D01*
X244371Y65059D01*
Y65059D01*
X244371Y65059D01*
Y65059D01*
X245041Y65118D01*
X245043Y65117D01*
X245043D01*
X245049Y65106D01*
X245049Y65106D01*
X245054Y65106D01*
X245054Y65106D01*
X245054Y65106D01*
X246144Y65165D01*
X246153Y65168D01*
X246194Y65148D01*
D01*
X246194Y65148D01*
D01*
Y65148D01*
D01*
D01*
D01*
X246194D01*
D01*
X246194D01*
X246195Y65148D01*
D01*
D01*
X246196Y65147D01*
X246196Y65147D01*
X246376Y65110D01*
X246377Y65109D01*
X246559Y65069D01*
Y65069D01*
X246559D01*
D01*
D01*
D01*
D01*
D01*
X246559D01*
D01*
D01*
D01*
X246559Y65069D01*
D01*
X246567Y65069D01*
X246668Y65027D01*
X246668Y65027D01*
D01*
X246691Y64971D01*
X246690Y64970D01*
X246693Y64965D01*
X246778Y64756D01*
X246776Y64741D01*
D01*
D01*
D01*
X246776D01*
X246776Y64741D01*
X246750Y64560D01*
X246654Y64074D01*
X246624Y63924D01*
X246624Y63924D01*
X246624D01*
X246171Y61651D01*
X245674Y57447D01*
X245645Y56714D01*
X245663Y56713D01*
X245781Y56093D01*
X246083Y55835D01*
X247492Y55402D01*
X247555Y55399D01*
X247595Y55433D01*
X247786Y55988D01*
X248152Y57906D01*
X248153Y57908D01*
X248438Y59414D01*
X248577Y59751D01*
X248798Y59842D01*
X249120Y59784D01*
X249163Y58421D01*
X249626Y57078D01*
X250359Y56183D01*
X251159Y55721D01*
X253724Y55515D01*
X255726Y56694D01*
X257071Y58830D01*
X256881Y60074D01*
X256674Y60356D01*
X256098Y60823D01*
X255413Y60888D01*
X252856Y60487D01*
X252856D01*
X252856Y60487D01*
X252856Y60487D01*
Y60487D01*
X252856Y60487D01*
X252810Y60480D01*
X252611Y60355D01*
X252523Y60299D01*
D01*
D01*
D01*
D01*
X252523D01*
Y60299D01*
D01*
D01*
X252565Y60129D01*
X252587Y60039D01*
X252646Y59952D01*
X252646D01*
X252646D01*
Y59952D01*
Y59952D01*
X252646D01*
X252981Y59459D01*
X253315Y59090D01*
X253471Y59029D01*
Y59029D01*
X253471Y59029D01*
D01*
X253795Y59008D01*
X253795Y59008D01*
X254071Y58988D01*
X254160Y58951D01*
X254161Y58946D01*
D01*
X254161Y58946D01*
X254293Y58857D01*
X254293Y58857D01*
D01*
X254364Y58451D01*
Y58451D01*
D01*
D01*
D01*
D01*
D01*
D01*
X254364Y58451D01*
X254364D01*
X254273Y58249D01*
X254227Y58018D01*
X253772Y57338D01*
X253092Y56883D01*
X252290Y56724D01*
X252152Y56751D01*
Y56769D01*
Y56769D01*
D01*
Y56769D01*
D01*
Y56769D01*
X252152D01*
D01*
D01*
X252152D01*
D01*
D01*
X252152D01*
Y56769D01*
X252141Y56772D01*
X252141Y56772D01*
X252062Y56797D01*
X252062D01*
X252062D01*
D01*
D01*
X252062Y56797D01*
D01*
D01*
X252062Y56797D01*
X252062Y56797D01*
X251912Y56888D01*
X251631Y57058D01*
X251631Y57058D01*
X251631D01*
D01*
D01*
D01*
D01*
D01*
D01*
D01*
D01*
D01*
Y57058D01*
D01*
X251631Y57060D01*
D01*
D01*
D01*
X251631Y57060D01*
D01*
D01*
D01*
D01*
D01*
D01*
D01*
D01*
D01*
Y57060D01*
D01*
D01*
D01*
D01*
X251631D01*
D01*
D01*
X251631D01*
X251620Y57064D01*
X251620Y57064D01*
X251601Y57070D01*
X251583Y57077D01*
X251556Y57144D01*
X251556Y57144D01*
X251312Y57653D01*
X251291Y57703D01*
X251293Y57747D01*
X251293D01*
X251354Y59504D01*
X251376Y59557D01*
D01*
D01*
D01*
X251376Y59558D01*
D01*
D01*
D01*
D01*
D01*
Y59558D01*
D01*
D01*
D01*
Y59558D01*
D01*
D01*
X251376D01*
X252338Y62524D01*
X252359Y62574D01*
X252364Y62576D01*
X252364D01*
X253633Y64417D01*
X253667Y64450D01*
D01*
X254385Y65112D01*
X254459Y65143D01*
D01*
X254459Y65143D01*
X254459Y65143D01*
X254459Y65143D01*
X254722Y65237D01*
X254789Y65264D01*
X254847Y65240D01*
D01*
D01*
D01*
D01*
D01*
X254847D01*
D01*
D01*
D01*
D01*
X254847D01*
X254847Y65240D01*
D01*
D01*
D01*
X254847Y65240D01*
X254848Y65239D01*
X254848D01*
D01*
D01*
D01*
D01*
X254848D01*
X254849Y65239D01*
X254849Y65239D01*
D01*
X254849D01*
D01*
D01*
X254849D01*
D01*
X254849D01*
D01*
D01*
D01*
D01*
D01*
D01*
D01*
Y65239D01*
D01*
D01*
D01*
D01*
X255043Y65179D01*
Y65179D01*
X255043Y65179D01*
X255043Y65179D01*
X255044Y65178D01*
Y65178D01*
X255163Y65075D01*
D01*
X255320Y64753D01*
X255339Y64707D01*
X255340Y64679D01*
X255339D01*
X255340Y64679D01*
D01*
D01*
X255339Y64679D01*
Y64679D01*
X255340Y64679D01*
X255340Y64678D01*
Y64678D01*
X255352Y64484D01*
Y64483D01*
D01*
D01*
D01*
D01*
X255449Y63033D01*
X255599Y62650D01*
X255738Y62467D01*
X256175Y62197D01*
X256838Y61893D01*
X257156Y61830D01*
X257321Y61924D01*
X257564Y62906D01*
X257284Y64099D01*
X257596Y64490D01*
X257620Y64490D01*
D01*
X257624Y64490D01*
D01*
X257755Y64489D01*
D01*
D01*
D01*
D01*
Y64489D01*
X257966Y64487D01*
X258316Y64130D01*
X258316Y64156D01*
X258295Y61779D01*
X257784Y56040D01*
X258073Y55842D01*
X258959Y55474D01*
Y55474D01*
D01*
D01*
X258959Y55474D01*
D01*
X259158Y55392D01*
X259158Y55392D01*
X259273Y55381D01*
X259326Y55417D01*
X259327Y55417D01*
X259413Y55684D01*
X259413Y55684D01*
X259413D01*
X259413Y55684D01*
X259413Y55684D01*
Y55684D01*
X259503Y55964D01*
X259680Y57186D01*
X259680D01*
X259680Y57186D01*
X259688Y57208D01*
D01*
D01*
D01*
D01*
D01*
X259688D01*
Y57208D01*
Y57208D01*
X259688D01*
D01*
D01*
Y57208D01*
D01*
X259688Y57209D01*
D01*
D01*
D01*
Y57209D01*
X259688Y57209D01*
Y57209D01*
X259688Y57209D01*
D01*
D01*
D01*
X259688Y57209D01*
Y57209D01*
X259688Y57209D01*
X259690Y57224D01*
X259692Y57233D01*
X259692Y57233D01*
X259692D01*
X259916Y58551D01*
D01*
D01*
D01*
D01*
D01*
D01*
X259916D01*
X259921Y58552D01*
D01*
D01*
Y58552D01*
X259921Y58552D01*
X259921Y58552D01*
Y58552D01*
D01*
Y58552D01*
X259934Y58596D01*
X259934Y58596D01*
X259934Y58596D01*
X259934Y58596D01*
X260132Y59056D01*
X260162Y59129D01*
X260245Y59163D01*
X260245Y59163D01*
X260245Y59163D01*
X260245Y59163D01*
X260245Y59163D01*
X260246Y59163D01*
D01*
D01*
D01*
D01*
X260246Y59163D01*
X260247Y59163D01*
Y59163D01*
Y59163D01*
D01*
D01*
D01*
Y59163D01*
D01*
D01*
X260591Y59290D01*
X260592Y59290D01*
X260592D01*
D01*
D01*
Y59290D01*
D01*
D01*
D01*
D01*
X260592D01*
X260592Y59290D01*
X260592D01*
D01*
D01*
D01*
X260592Y59290D01*
X260592D01*
D01*
D01*
X260593Y59291D01*
D01*
D01*
D01*
Y59291D01*
D01*
D01*
D01*
D01*
Y59291D01*
X260593Y59291D01*
X260593Y59291D01*
X260593Y59291D01*
X260641Y59311D01*
X260654Y59303D01*
D01*
D01*
X260654Y59303D01*
Y59303D01*
X261371Y59325D01*
D01*
D01*
D01*
D01*
X261862Y59339D01*
X261862D01*
X262140Y59346D01*
X262142Y59347D01*
X262214Y59317D01*
Y59317D01*
X262214Y59317D01*
X262214Y59317D01*
X262517Y59201D01*
X262616Y58972D01*
X262700Y58729D01*
X262700Y58718D01*
Y58718D01*
X262700D01*
D01*
D01*
D01*
D01*
X262700Y58718D01*
X262700Y58717D01*
X262697Y58701D01*
X262680Y58614D01*
X262548Y57914D01*
X262547Y57912D01*
X262547D01*
D01*
Y57912D01*
Y57912D01*
D01*
D01*
X262547D01*
X262547Y57912D01*
X262326Y56736D01*
X262313Y56315D01*
X262524Y56097D01*
X263185Y55794D01*
X263940Y55551D01*
X264039Y55530D01*
X264071Y55544D01*
X264288Y55921D01*
X266184Y62853D01*
X266624Y63915D01*
X267143Y64130D01*
X267213Y64146D01*
D01*
X267216Y64146D01*
D01*
D01*
X267216D01*
Y64146D01*
Y64146D01*
X267355Y64138D01*
X268019Y64262D01*
X268019D01*
X268978Y64455D01*
D01*
D01*
D01*
X268978D01*
Y64455D01*
D01*
D01*
D01*
D01*
D01*
D01*
X268995Y64453D01*
X269070Y64434D01*
X269441Y64223D01*
X269441D01*
X269441Y64223D01*
X269479Y63908D01*
X269479Y63908D01*
X269479Y63908D01*
X269479Y63907D01*
X269479Y63907D01*
X269473Y63843D01*
X269337Y63157D01*
X269337Y63157D01*
D01*
X268951Y61216D01*
X268450Y56982D01*
X268426Y56390D01*
X268448Y56389D01*
X268587Y55935D01*
X268935Y55670D01*
X269961Y55374D01*
X269967Y55372D01*
X269967Y55372D01*
X269967Y55372D01*
X269967Y55372D01*
X269967Y55372D01*
X269969Y55371D01*
X269969Y55371D01*
X270079Y55335D01*
X270102Y55345D01*
D01*
D01*
X270102D01*
X270102Y55345D01*
X270102D01*
X270102Y55345D01*
X270203Y55609D01*
X270203Y55609D01*
X270277Y55803D01*
X270381Y56363D01*
X272149Y63725D01*
X272387Y64530D01*
X272415Y64523D01*
X272431Y64562D01*
X272432Y64563D01*
X272432D01*
X272603Y64884D01*
X272714Y64979D01*
X272714D01*
D01*
D01*
D01*
X272714Y64979D01*
X272971Y65068D01*
X273007Y65083D01*
X273017Y65077D01*
X273016Y65077D01*
X273847Y65168D01*
X275081Y65333D01*
X275157Y65372D01*
X275157D01*
X275157Y65372D01*
X275157Y65372D01*
X275157D01*
D01*
X275422Y65506D01*
X275422Y65506D01*
X275428Y65561D01*
X275339Y65771D01*
X275339Y65771D01*
X275280Y65856D01*
D01*
D01*
Y65856D01*
Y65856D01*
X275280D01*
X274916Y66388D01*
X274566Y66793D01*
X274211Y66997D01*
X273782Y67028D01*
X268340Y66582D01*
X267529Y66489D01*
X267532Y66458D01*
X267525Y66452D01*
X267392Y66397D01*
X267345Y66318D01*
X267166Y66185D01*
X267126Y66176D01*
X267126D01*
Y66176D01*
D01*
D01*
D01*
X267045Y66164D01*
X266957Y66200D01*
X266957Y66201D01*
Y66202D01*
X266956Y66202D01*
X266956Y66202D01*
X265557Y66953D01*
X265084Y67130D01*
Y67130D01*
X265084D01*
D01*
D01*
X265084D01*
D01*
Y67130D01*
Y67130D01*
X265007Y67158D01*
Y67158D01*
X264896Y67200D01*
X264896Y67200D01*
X264774Y67146D01*
X264650Y66943D01*
X264650Y66943D01*
X264638Y66902D01*
X264638Y66902D01*
D01*
D01*
X264638D01*
X264638Y66902D01*
X264638D01*
D01*
X264097Y64926D01*
X263282Y61592D01*
X263283Y61594D01*
X263280Y61591D01*
X263280Y61591D01*
X263250Y61525D01*
X263250D01*
X263250Y61525D01*
D01*
X263084Y61285D01*
X263000Y61216D01*
D01*
D01*
Y61216D01*
D01*
X262869Y61158D01*
X262810Y61134D01*
X262797Y61142D01*
Y61142D01*
X262797Y61142D01*
X262193Y61117D01*
X261291Y61062D01*
X261093Y61063D01*
Y61063D01*
X260966Y61053D01*
X260605Y61398D01*
X260616Y61701D01*
X260616Y61701D01*
X260616Y61701D01*
X260979Y63089D01*
Y63089D01*
X261495Y65232D01*
X261558Y65721D01*
X261495Y65890D01*
X260512Y66492D01*
X259461Y66927D01*
X259459Y66923D01*
X259207Y66963D01*
X259048Y66856D01*
X258717Y65823D01*
Y65823D01*
X258624Y65074D01*
D01*
D01*
X258624Y65073D01*
X258624Y65073D01*
X258624Y65073D01*
X258624Y65073D01*
Y65073D01*
D01*
D01*
D01*
D01*
X258421Y64902D01*
X258421D01*
X258421Y64902D01*
D01*
D01*
D01*
X258403Y64901D01*
X258403Y64901D01*
X258310Y64899D01*
D01*
D01*
X258310D01*
Y64899D01*
X258309Y64899D01*
X258309Y64899D01*
Y64899D01*
X258170Y64896D01*
D01*
X257758Y64885D01*
X257627Y64940D01*
D01*
X257624Y64941D01*
Y64941D01*
X257624D01*
D01*
D01*
X257607Y64948D01*
X257603Y64956D01*
D01*
D01*
D01*
Y64956D01*
D01*
X257592Y64992D01*
X256865Y66110D01*
X256865Y66110D01*
X256376Y66486D01*
X255370Y66902D01*
X254291Y67044D01*
X253212Y66902D01*
X252207Y66486D01*
X251871Y66228D01*
X251872Y66227D01*
X250507Y64435D01*
X250022Y63402D01*
X249522Y63413D01*
X249493Y63484D01*
X249772Y65105D01*
X249695Y65813D01*
X249499Y66107D01*
X248769Y66501D01*
X247683Y66930D01*
X247566Y66942D01*
X247501Y66909D01*
X247272Y66470D01*
X247131Y66157D01*
X247085Y66152D01*
X246392Y66439D01*
X246369Y66470D01*
X246369D01*
D01*
D01*
Y66470D01*
D01*
D01*
D01*
Y66470D01*
D01*
D01*
D01*
X246368Y66477D01*
D01*
D01*
D01*
D01*
D01*
X246161Y66798D01*
X246110Y66878D01*
D01*
D01*
D01*
D01*
X246110Y66878D01*
D01*
X245709Y67027D01*
X244852Y67061D01*
X240736Y66899D01*
X240724Y66942D01*
X240667Y67422D01*
X242247Y68370D01*
X245228Y69779D01*
X248332Y70890D01*
X251530Y71691D01*
X254791Y72175D01*
X258084Y72337D01*
X261377Y72175D01*
D02*
G37*
D31*
X109488Y-7921D02*
G03*
X112244Y-10677I2756J0D01*
G01*
Y12945D02*
G03*
X109488Y10189I0J-2756D01*
G01*
X119134Y-18551D02*
G03*
X123071Y-22488I3937J0D01*
G01*
X256929D02*
G03*
X260866Y-18551I0J3937D01*
G01*
Y20819D02*
G03*
X256929Y24756I-3937J0D01*
G01*
X123071D02*
G03*
X119134Y20819I0J-3937D01*
G01*
X310000Y-0D02*
G03*
X310000Y-0I-8000J0D01*
G01*
X196248Y63244D02*
X214752D01*
X196248Y50646D02*
X214752D01*
X206500Y54445D02*
Y59445D01*
X204500Y54445D02*
X206500D01*
X204500D02*
Y59445D01*
X206500D01*
X208000Y54445D02*
Y59445D01*
X203000Y54445D02*
Y59445D01*
X208000Y56945D02*
X208500D01*
X202500D02*
X203000D01*
X276000Y-12500D02*
Y12500D01*
X291000Y-12500D02*
Y12500D01*
X289000D02*
X291000D01*
X276000D02*
X278000D01*
X276000Y-12500D02*
X278000D01*
X289000D02*
X291000D01*
X280000Y-6000D02*
Y6000D01*
X287000Y-6000D02*
Y6000D01*
X280000D02*
X287000D01*
X280000Y-6000D02*
X287000D01*
X90000Y-12500D02*
Y12500D01*
X105000Y-12500D02*
Y12500D01*
X103000D02*
X105000D01*
X90000D02*
X92000D01*
X90000Y-12500D02*
X92000D01*
X103000D02*
X105000D01*
X94000Y-6000D02*
Y6000D01*
X101000Y-6000D02*
Y6000D01*
X94000D02*
X101000D01*
X94000Y-6000D02*
X101000D01*
X242500Y-56346D02*
X252953D01*
X127047D02*
X137500D01*
X252953Y-59890D02*
X271496D01*
Y35780D01*
X108504Y-59890D02*
X127047D01*
X108504D02*
Y35780D01*
X127047Y-59890D02*
Y-56346D01*
X252953Y-59890D02*
Y-56346D01*
X108504Y35780D02*
X271496D01*
X112244Y-29772D02*
Y32039D01*
X112441Y32236D01*
X267559D01*
X267756Y32039D01*
X109488Y-7921D02*
Y10189D01*
X119134Y-18551D02*
Y20819D01*
X123071Y24756D02*
X256929D01*
X260866Y-18551D02*
Y20819D01*
X123071Y-22488D02*
X256929D01*
X112244Y-29772D02*
X267756Y-29772D01*
Y-29555D02*
Y32039D01*
X307750Y-5500D02*
Y5500D01*
X130003Y-5409D02*
X128004D01*
X127004Y-4410D01*
Y-2410D01*
X128004Y-1411D01*
X130003D01*
X131003Y-2410D01*
Y-3410D01*
X127004D01*
X133002Y-7409D02*
Y-1411D01*
X136001D01*
X137001Y-2410D01*
Y-4410D01*
X136001Y-5409D01*
X133002D01*
X140000D02*
Y-411D01*
Y-2410D01*
X139000D01*
X140999D01*
X140000D01*
Y-411D01*
X140999Y589D01*
D62*
X18398Y-32551D02*
G03*
X18398Y-32551I-492J0D01*
G01*
X70638Y-43453D02*
G03*
X70638Y-43453I-492J0D01*
G01*
X325213Y60031D02*
G03*
X325213Y60031I-492J0D01*
G01*
D63*
X33465Y62992D02*
G03*
X32283Y64173I-1181J0D01*
G01*
X30709D02*
G03*
X29528Y62992I0J-1181D01*
G01*
Y37008D02*
G03*
X30709Y35827I1181J0D01*
G01*
X32283D02*
G03*
X33465Y37008I0J1181D01*
G01*
X332217Y14173D02*
G03*
X331035Y12992I0J-1181D01*
G01*
X334972D02*
G03*
X333791Y14173I-1181J0D01*
G01*
Y-14173D02*
G03*
X334972Y-12992I0J1181D01*
G01*
X331035D02*
G03*
X332217Y-14173I1181J0D01*
G01*
X260260Y47479D02*
G03*
X260162Y51336I-43963J810D01*
G01*
X272607Y64470D02*
G03*
X270502Y55732I139233J-38175D01*
G01*
X269282Y63883D02*
G03*
X268248Y56366I53295J-11161D01*
G01*
X264461Y55849D02*
G03*
X266823Y64610I-382290J107729D01*
G01*
X261653Y66017D02*
G03*
X259510Y67115I-5890J-8845D01*
G01*
X273781Y67227D02*
G03*
X267484Y66650I28331J-343540D01*
G01*
X252529Y51657D02*
G03*
X250642Y42980I395388J-90501D01*
G01*
X249217Y51098D02*
G03*
X247988Y43762I50070J-12162D01*
G01*
X253926Y54312D02*
G03*
X246088Y53571I29J-42163D01*
G01*
X263796Y71605D02*
G03*
X240411Y67031I-5711J-32865D01*
G01*
X245743Y67211D02*
G03*
X240411Y67031I-891J-52702D01*
G01*
X257014Y66244D02*
G03*
X251732Y66370I-2723J-3369D01*
G01*
X252166Y56967D02*
G03*
X254080Y58322I124J1854D01*
G01*
X246563Y64600D02*
G03*
X245463Y56701I52856J-11383D01*
G01*
X240824Y64153D02*
G03*
X239539Y56868I172726J-34224D01*
G01*
X238085Y64975D02*
G03*
X234658Y51224I9077J-9566D01*
G01*
X234658D02*
G03*
X246003Y41331I17445J8555D01*
G01*
X242147Y36720D02*
G03*
X252357Y39338I1476J15462D01*
G01*
X274616Y42624D02*
G03*
X272217Y45542I-73824J-58276D01*
G01*
X259901Y45132D02*
G03*
X256995Y44833I4131J-54586D01*
G01*
X258039Y53646D02*
G03*
X253531Y43865I73013J-39587D01*
G01*
X264467Y53683D02*
G03*
X262808Y45784I113039J-27858D01*
G01*
X270559Y54018D02*
G03*
X269180Y44442I52528J-12452D01*
G01*
X277377Y54093D02*
G03*
X273204Y49286I150586J-134966D01*
G01*
X274601Y47032D02*
G03*
X279109Y51764I-20944J24466D01*
G01*
X-7283Y40157D02*
X0D01*
X-7283Y59842D02*
X0D01*
X-7874Y59252D02*
X-7283Y59842D01*
X-7874Y40748D02*
X-7283Y40157D01*
X0Y35827D02*
Y64173D01*
X-7283Y40157D02*
Y59842D01*
X-7874Y40748D02*
Y59252D01*
X0Y61811D02*
X47244D01*
Y35827D02*
Y64173D01*
X0Y38189D02*
X47244D01*
X33465Y61811D02*
Y62992D01*
X29528Y61811D02*
Y62992D01*
Y37008D02*
Y38189D01*
X33465Y37008D02*
Y38189D01*
X30709Y64173D02*
X32283D01*
X30709Y35827D02*
X32283D01*
X4331Y61811D02*
Y64173D01*
X0D02*
X4331D01*
Y35827D02*
Y38189D01*
X0Y35827D02*
X4331D01*
X43701D02*
Y38189D01*
Y35827D02*
X47244D01*
X44488Y61811D02*
Y64173D01*
X47244D01*
X317256Y-14173D02*
X320012D01*
Y-11811D01*
X317256Y14173D02*
X320799D01*
Y11811D02*
Y14173D01*
X360169D02*
X364500D01*
X360169Y11811D02*
Y14173D01*
Y-14173D02*
X364500D01*
X360169D02*
Y-11811D01*
X332217Y14173D02*
X333791D01*
X332217Y-14173D02*
X333791D01*
X331035Y11811D02*
Y12992D01*
X334972Y11811D02*
Y12992D01*
Y-12992D02*
Y-11811D01*
X331035Y-12992D02*
Y-11811D01*
X317256Y11811D02*
X364500D01*
X317256Y-14173D02*
Y14173D01*
Y-11811D02*
X364500D01*
X372374Y-9252D02*
Y9252D01*
X371783Y-9843D02*
Y9843D01*
X364500Y-14173D02*
Y14173D01*
X371783Y9843D02*
X372374Y9252D01*
X371783Y-9843D02*
X372374Y-9252D01*
X364500Y-9843D02*
X371783D01*
X364500Y9843D02*
X371783D01*
X257737Y47353D02*
X257890Y47721D01*
X257729Y47240D02*
X257737Y47353D01*
X257729Y47240D02*
X257767Y47175D01*
X257890Y47163D01*
X259096D01*
X259901D01*
X260145Y47224D01*
X260260Y47479D01*
X260111Y51489D02*
X260162Y51336D01*
X260032Y51540D02*
X260111Y51489D01*
X259790Y51336D02*
X260032Y51540D01*
X275514Y65867D02*
X275630Y65591D01*
X275607Y65378D02*
X275630Y65591D01*
X275141Y65141D02*
X275607Y65378D01*
X273870Y64971D02*
X275141Y65141D01*
X273036Y64880D02*
X273870Y64971D01*
X272778Y64791D02*
X273036Y64880D01*
X272607Y64470D02*
X272778Y64791D01*
X270250Y55194D02*
X270502Y55732D01*
X270090Y55123D02*
X270250Y55194D01*
X269906Y55183D02*
X270090Y55123D01*
X268416Y55816D02*
X268844Y55490D01*
X268248Y56366D02*
X268416Y55816D01*
X269244Y64201D02*
X269282Y63883D01*
X269153Y64263D02*
X269244Y64201D01*
X269016Y64260D02*
X269153Y64263D01*
X268057Y64067D02*
X269016Y64260D01*
X267368Y63939D02*
X268057Y64067D01*
X267106Y63953D02*
X267368Y63939D01*
X267040Y64012D02*
X267106Y63953D01*
X267019Y64107D02*
X267040Y64012D01*
X264213Y55391D02*
X264461Y55849D01*
X264061Y55322D02*
X264213Y55391D01*
X263889Y55360D02*
X264061Y55322D01*
X263113Y55608D02*
X263889Y55360D01*
X262407Y55933D02*
X263113Y55608D01*
X262112Y56237D02*
X262407Y55933D01*
X262112Y56237D02*
X262128Y56757D01*
X262352Y57949D01*
X262505Y58755D01*
X262469Y59007D02*
X262505Y58755D01*
X262142Y59132D02*
X262469Y59007D01*
X261366Y59127D02*
X262142Y59132D01*
X260661Y59104D02*
X261366Y59127D01*
X260314Y58977D02*
X260661Y59104D01*
X260116Y58518D02*
X260314Y58977D01*
X259883Y57174D02*
X260116Y58518D01*
X259697Y55919D02*
X259883Y57174D01*
X259494Y55291D02*
X259697Y55919D01*
X259325Y55177D02*
X259494Y55291D01*
X259110Y55197D02*
X259325Y55177D01*
X257576Y55942D02*
X257978Y55667D01*
X258523Y65867D02*
X258880Y66982D01*
X259161Y67171D01*
X259510Y67115D01*
X261653Y66017D02*
X261761Y65748D01*
X261690Y65196D02*
X261761Y65748D01*
X261172Y63040D02*
X261690Y65196D01*
X260815Y61694D02*
X261172Y63040D01*
X260801Y61335D02*
X260815Y61694D01*
X260801Y61335D02*
X260909Y61262D01*
X261094Y61261D01*
X262184Y61315D01*
X262789Y61340D01*
X262920Y61398D01*
X263087Y61638D01*
X263905Y64976D01*
X264466Y67022D01*
X264637Y67302D01*
X264890Y67414D01*
X265639Y67134D01*
X267051Y66376D01*
X267131Y66374D01*
X267155Y66386D01*
X267167Y66408D01*
X267256Y66556D01*
X267484Y66650D01*
X273781Y67227D02*
X274270Y67191D01*
X274694Y66948D01*
Y66948D02*
X275073Y66509D01*
X275514Y65867D01*
X255421Y52873D02*
X255585Y52390D01*
X255497Y52239D02*
X255585Y52390D01*
X255295Y52146D02*
X255497Y52239D01*
X253899Y52040D02*
X255295Y52146D01*
X252990Y51992D02*
X253899Y52040D01*
X252715Y51927D02*
X252990Y51992D01*
X252529Y51657D02*
X252715Y51927D01*
X249874Y42491D02*
X250445Y42548D01*
X248140Y43209D02*
X248672Y42854D01*
X249217Y51098D02*
X249234Y51254D01*
X249172Y51345D02*
X249234Y51254D01*
X248812Y51336D02*
X249172Y51345D01*
X247332Y51093D02*
X247792Y51140D01*
X246982Y51252D02*
X247332Y51093D01*
X245747Y53295D02*
X245920Y52789D01*
X245747Y53295D02*
X245853Y53462D01*
X246088Y53571D01*
X253926Y54312D02*
X254292Y54252D01*
X254569Y54074D01*
X254961Y53545D01*
X255421Y52873D01*
X276623Y43941D02*
X280163Y47488D01*
X282250Y51556D01*
X282877Y55872D01*
X282034Y60163D02*
X282877Y55872D01*
X279713Y64155D02*
X282034Y60163D01*
X275905Y67576D02*
X279713Y64155D01*
X270602Y70150D02*
X275905Y67576D01*
X263796Y71605D02*
X270602Y70150D01*
X245743Y67211D02*
X246239Y67044D01*
X246534Y66584D01*
Y66584D02*
X246829Y66174D01*
X246884Y66176D01*
X246941Y66216D01*
X247093Y66557D01*
Y66557D02*
X247355Y67057D01*
X247528Y67145D01*
X247730Y67125D01*
X248853Y66681D01*
X249637Y66259D01*
X249887Y65882D01*
X249972Y65099D01*
X249608Y62989D02*
X250336Y64539D01*
X251732Y66370D01*
X257014Y66244D02*
X257758Y65100D01*
X257493Y61794D02*
X257769Y62905D01*
X257190Y61621D02*
X257493Y61794D01*
X256776Y61703D02*
X257190Y61621D01*
X256081Y62022D02*
X256776Y61703D01*
X255603Y62318D02*
X256081Y62022D01*
X255425Y62551D02*
X255603Y62318D01*
X255253Y62989D02*
X255425Y62551D01*
X254984Y64989D02*
X255142Y64666D01*
X254789Y65050D02*
X254984Y64989D01*
X254526Y64956D02*
X254789Y65050D01*
X253800Y64302D02*
X254526Y64956D01*
X252527Y62463D02*
X253800Y64302D01*
X251565Y59496D02*
X252527Y62463D01*
X251491Y57738D02*
X251565Y59496D01*
X251491Y57738D02*
X251735Y57229D01*
X252166Y56967D01*
X254080Y58322D02*
X254187Y58540D01*
X254183Y58692D02*
X254187Y58540D01*
X254050Y58782D02*
X254183Y58692D01*
X253772Y58811D02*
X254050Y58782D01*
X253427Y58833D02*
X253772Y58811D01*
X253199Y58923D02*
X253427Y58833D01*
X252825Y59336D02*
X253199Y58923D01*
X252403Y59957D02*
X252825Y59336D01*
X252296Y60391D02*
X252403Y59957D01*
X252296Y60391D02*
X252738Y60669D01*
X255407Y61088D02*
X256176Y61015D01*
X256818Y60494D01*
X257070Y60152D02*
X257278Y58786D01*
X255868Y56547D02*
X257278Y58786D01*
X253771Y55312D02*
X255868Y56547D01*
X251099Y55527D02*
X253771Y55312D01*
X250229Y56029D02*
X251099Y55527D01*
X249450Y56980D02*
X250229Y56029D01*
X248966Y58384D02*
X249450Y56980D01*
X248892Y60725D02*
X248966Y58384D01*
X248347Y57870D02*
X248892Y60725D01*
X247978Y55937D02*
X248347Y57870D01*
X247764Y55316D02*
X247978Y55937D01*
X247622Y55197D02*
X247764Y55316D01*
X247457Y55206D02*
X247622Y55197D01*
X245599Y55988D02*
X245985Y55657D01*
X245463Y56701D02*
X245599Y55988D01*
X246563Y64600D02*
X246579Y64762D01*
X246516Y64875D02*
X246579Y64762D01*
X246153Y64954D02*
X246516Y64875D01*
X245058Y64908D02*
X246153Y64954D01*
X244383Y64861D02*
X245058Y64908D01*
X244210Y64806D02*
X244383Y64861D01*
X244104Y64675D02*
X244210Y64806D01*
X243373Y61407D02*
X244104Y64675D01*
X242805Y58869D02*
X243373Y61407D01*
X242317Y56691D02*
X242805Y58869D01*
X242092Y55695D02*
X242317Y56691D01*
X241861Y55254D02*
X242092Y55695D01*
X241328Y55266D02*
X241861Y55254D01*
X239547Y56228D02*
X239856Y55881D01*
X239539Y56868D02*
X239547Y56228D01*
X240824Y64153D02*
X240830Y64268D01*
X240773Y64334D02*
X240830Y64268D01*
X240471Y64320D02*
X240773Y64334D01*
X239748Y64162D02*
X240471Y64320D01*
X239110Y64022D02*
X239748Y64162D01*
X238784Y64009D02*
X239110Y64022D01*
X238514Y64190D02*
X238784Y64009D01*
X246507Y40919D02*
X246507Y40676D01*
X246339Y40409D02*
X246507Y40676D01*
X245142Y38965D02*
X246339Y40409D01*
X242147Y36720D02*
X245142Y38965D01*
X252357Y39338D02*
X252822Y39506D01*
X253434Y39450D01*
Y39450D02*
X257060Y39193D01*
X263162Y39263D01*
X268801Y40249D01*
X274616Y42624D01*
X271973Y45734D02*
X272217Y45542D01*
X271888Y45744D02*
X271973Y45734D01*
X271829Y45695D02*
X271888Y45744D01*
X271788Y45542D02*
X271829Y45695D01*
X271643Y42761D02*
X271676Y43194D01*
X271575Y42639D02*
X271643Y42761D01*
X271471Y42579D02*
X271575Y42639D01*
X269593Y42651D02*
X270540Y42561D01*
X269292Y43021D02*
X269593Y42651D01*
X269249Y43134D02*
X269292Y43021D01*
X269156Y43192D02*
X269249Y43134D01*
X268821Y43148D02*
X269156Y43192D01*
X267055Y42884D02*
X268821Y43148D01*
X265305Y42579D02*
X267055Y42884D01*
X263987Y42491D02*
X265305Y42579D01*
X263134Y43022D02*
X263987Y42491D01*
X262771Y43716D02*
X262780Y43405D01*
X262771Y42915D02*
X262780Y43405D01*
X262693Y42589D02*
X262771Y42915D01*
X262417Y42465D02*
X262693Y42589D01*
X261594Y42457D02*
X262417Y42465D01*
X260871D02*
X261594Y42457D01*
X260545Y42567D02*
X260871Y42465D01*
X260423Y42952D02*
X260545Y42567D01*
X260423Y42952D02*
X260433Y43978D01*
X260423Y44740D02*
X260433Y43978D01*
X260313Y45018D02*
X260423Y44740D01*
X259901Y45132D02*
X260313Y45018D01*
X256773Y44745D02*
X256995Y44833D01*
X256511Y44517D02*
X256773Y44745D01*
X256055Y43574D02*
X256511Y44517D01*
X255672Y42775D02*
X256055Y43574D01*
X255423Y42481D02*
X255672Y42775D01*
X255002Y42561D02*
X255423Y42481D01*
X253420Y43285D02*
X253531Y43865D01*
X258039Y53646D02*
X258634Y54325D01*
X259548Y54403D01*
X261220Y54167D01*
X262398Y53925D01*
X262773Y53642D01*
X262864Y52938D01*
X264467Y53683D02*
X264849Y54335D01*
X265130Y54396D01*
X265473Y54279D01*
X266304Y53958D01*
X267112Y53571D01*
X267456Y53113D01*
X267373Y52060D02*
X267456Y53113D01*
X266994Y50692D02*
X267373Y52060D01*
X266486Y48961D02*
X266994Y50692D01*
X265858Y46831D02*
X266486Y48961D01*
X265500Y45514D02*
X265858Y46831D01*
X265500Y45514D02*
X265533Y44969D01*
X265693Y44868D01*
X265948Y44880D01*
X267340Y44998D01*
X268183Y45085D01*
Y45085D02*
X268397Y45072D01*
X268556Y44899D01*
X268854Y44377D02*
X268982Y44250D01*
X269079Y44219D01*
X269145Y44283D01*
X269180Y44442D01*
X270559Y54018D02*
X270706Y54292D01*
X270922Y54423D01*
X271565Y54261D01*
X272746Y53704D01*
X273539Y53236D01*
X273735Y52941D01*
X273651Y52472D02*
X273735Y52941D01*
X273197Y50837D02*
X273651Y52472D01*
X272869Y49529D02*
X273197Y50837D01*
X272827Y49220D02*
X272869Y49529D01*
X272827Y49220D02*
X272869Y49077D01*
X272921Y49067D01*
X272994Y49099D01*
X273204Y49286D01*
X277377Y54093D02*
X277811Y54397D01*
X278383Y54242D01*
X278843Y53624D01*
X279240Y52900D01*
X279343Y52378D01*
X279109Y51764D02*
X279343Y52378D01*
X274456Y46832D02*
X274601Y47032D01*
X274456Y46832D02*
X274564Y46567D01*
X257890Y47721D02*
X259790Y51336D01*
X268844Y55490D02*
X269906Y55183D01*
X266823Y64610D02*
X267019Y64107D01*
X257978Y55667D02*
X259110Y55197D01*
X248672Y42854D02*
X249874Y42491D01*
X247792Y51140D02*
X248812Y51336D01*
X245920Y52789D02*
X246982Y51252D01*
X249608Y62989D02*
X249972Y65099D01*
X255142Y64666D02*
X255253Y62989D01*
X252738Y60669D02*
X255407Y61088D01*
X256818Y60494D02*
X257070Y60152D01*
X245985Y55657D02*
X247457Y55206D01*
X239856Y55881D02*
X241328Y55266D01*
X238085Y64975D02*
X238514Y64190D01*
X271676Y43194D02*
X271788Y45542D01*
X270540Y42561D02*
X271471Y42579D01*
X262771Y43716D02*
X263134Y43022D01*
X253698Y42989D02*
X255002Y42561D01*
X262808Y45784D02*
X262864Y52938D01*
X268556Y44899D02*
X268854Y44377D01*
X274564Y46567D02*
X276623Y43941D01*
X257576Y55942D02*
X258319Y64285D01*
X257758Y65100D02*
X258421D01*
X258523Y65867D01*
X257445Y64293D02*
X258319Y64285D01*
X257445Y64293D02*
X257769Y62905D01*
X253511Y43102D02*
X253698Y42989D01*
X253420Y43285D02*
X253511Y43102D01*
X250445Y42548D02*
X250642Y42980D01*
X246507Y40919D02*
X248140Y43209D01*
X246003Y41331D02*
X247988Y43762D01*
D64*
X18004Y-35898D02*
X18102D01*
X5898D02*
X5996D01*
X5898Y-48102D02*
Y-35898D01*
Y-48102D02*
X5996D01*
X18004D02*
X18102D01*
Y-35898D01*
X54201Y-46799D02*
X55382D01*
X54201D02*
Y-45618D01*
Y-34201D02*
X55382D01*
X54201Y-35382D02*
Y-34201D01*
X65618D02*
X66799D01*
Y-35382D02*
Y-34201D01*
X65618Y-46799D02*
X66799D01*
Y-45618D01*
X32275Y-60843D02*
Y-59268D01*
X29125Y-60843D02*
Y-59268D01*
X188575Y44213D02*
Y45787D01*
X185425Y44213D02*
Y45787D01*
X185425Y57213D02*
Y58787D01*
X188575Y57213D02*
Y58787D01*
X198213Y44870D02*
X199787D01*
X198213Y48020D02*
X199787D01*
X210213Y48020D02*
X211787D01*
X210213Y44870D02*
X211787D01*
X87213Y-36425D02*
X88787D01*
X87213Y-39575D02*
X88787D01*
X310713Y36925D02*
X312287D01*
X310713Y40075D02*
X312287D01*
X90500Y22725D02*
Y24300D01*
X289500Y23200D02*
Y24775D01*
X96213Y27925D02*
X97787D01*
X96213Y31075D02*
X97787D01*
X282213Y31575D02*
X283787D01*
X282213Y28425D02*
X283787D01*
X310658Y55860D02*
X312232D01*
X310658Y59010D02*
X312232D01*
X310658Y62224D02*
X312232D01*
X310658Y65374D02*
X312232D01*
X310658Y49496D02*
X312232Y49496D01*
X310658Y52646D02*
X312232Y52646D01*
X310658Y43132D02*
X312232D01*
X310658Y46282D02*
X312232Y46282D01*
X90000Y53000D02*
X100000D01*
Y35000D02*
Y53000D01*
X90000Y35000D02*
X100000D01*
X90000D02*
Y53000D01*
X77500Y20500D02*
X87500D01*
Y-21000D02*
Y20500D01*
X77500Y-21000D02*
Y20500D01*
Y-21000D02*
X87500D01*
X11547Y-60843D02*
Y-59268D01*
X14697Y-60843D02*
Y-59268D01*
X17425Y-60843D02*
Y-59268D01*
X20575Y-60843D02*
Y-59268D01*
X5547Y-60843D02*
Y-59268D01*
X8697Y-60843D02*
Y-59268D01*
X213525Y-63980D02*
X215100D01*
X213525Y-67130D02*
X215100D01*
X131400Y-63980D02*
X132975D01*
X131400Y-67130D02*
X132975D01*
X117713D02*
X119287D01*
X117713Y-63980D02*
X119287D01*
X145088Y-67130D02*
X146662D01*
X145088Y-63980D02*
X146662D01*
X158775D02*
X160350D01*
X158775Y-67130D02*
X160350D01*
X172213Y-63925D02*
X173787D01*
X172213Y-67075D02*
X173787D01*
X185714Y-67075D02*
X187289D01*
X185714Y-63925D02*
X187289D01*
X65425Y-60843D02*
Y-59268D01*
X68575Y-60843D02*
Y-59268D01*
X59425Y-60843D02*
Y-59268D01*
X62575Y-60843D02*
Y-59268D01*
X199838Y-63980D02*
X201412D01*
X199838Y-67130D02*
X201412D01*
X47425Y-60843D02*
Y-59268D01*
X50575Y-60843D02*
Y-59268D01*
X53425Y-60843D02*
Y-59268D01*
X56575Y-60843D02*
Y-59268D01*
X38375Y-60843D02*
Y-59268D01*
X35225Y-60843D02*
Y-59268D01*
X44375Y-60787D02*
Y-59213D01*
X41225Y-60787D02*
Y-59213D01*
X330575Y-53787D02*
Y-52213D01*
X327425Y-53787D02*
Y-52213D01*
X87213Y-42425D02*
X88787D01*
X87213Y-45575D02*
X88787D01*
X80925Y62713D02*
Y64287D01*
X84075Y62713D02*
Y64287D01*
X23425Y-60843D02*
Y-59268D01*
X26575Y-60843D02*
Y-59268D01*
X326075Y-33843D02*
Y-32268D01*
X322925Y-33843D02*
Y-32268D01*
X316925Y-33843D02*
Y-32268D01*
X320075Y-33843D02*
Y-32268D01*
X296075Y-33843D02*
Y-32268D01*
X292925Y-33843D02*
Y-32268D01*
X286925Y-33843D02*
Y-32268D01*
X290075Y-33843D02*
Y-32268D01*
X310437Y-45118D02*
X313587D01*
Y-52992D02*
Y-45118D01*
X310437Y-52992D02*
X313587D01*
X299413D02*
X302563D01*
X299413D02*
Y-45118D01*
X302563D01*
X314075Y-33843D02*
Y-32268D01*
X310925Y-33843D02*
Y-32268D01*
X308075Y-33843D02*
Y-32268D01*
X304925Y-33843D02*
Y-32268D01*
X302075Y-33843D02*
Y-32268D01*
X298925Y-33843D02*
Y-32268D01*
X276563Y-29618D02*
Y-26469D01*
X284437D01*
Y-29618D02*
Y-26469D01*
Y-40642D02*
Y-37492D01*
X276563Y-40642D02*
X284437D01*
X276563D02*
Y-37492D01*
X346425Y-30232D02*
Y-28657D01*
X349575Y-30232D02*
Y-28657D01*
X346425Y-44232D02*
Y-42658D01*
X349575Y-44232D02*
Y-42658D01*
X355575Y-30232D02*
Y-28657D01*
X352425Y-30232D02*
Y-28657D01*
X355575Y-44232D02*
Y-42658D01*
X352425Y-44232D02*
Y-42658D01*
X340425Y-30232D02*
Y-28657D01*
X343575Y-30232D02*
Y-28657D01*
X340425Y-44232D02*
Y-42658D01*
X343575Y-44232D02*
Y-42658D01*
X86925Y62713D02*
Y64287D01*
X90075Y62713D02*
Y64287D01*
X87000Y-32500D02*
Y-22500D01*
X107000D01*
X87000Y-32500D02*
X107000D01*
X106999Y-32499D02*
Y-22499D01*
X98500Y59500D02*
X158500D01*
X98500Y69500D02*
X158500D01*
X98500Y59500D02*
Y69500D01*
X158500Y59500D02*
Y69500D01*
X328461Y58949D02*
X330429D01*
X328461Y46744D02*
X330429D01*
X328461D02*
Y58949D01*
X330429Y46744D02*
Y58949D01*
X61268Y55075D02*
X62843D01*
X61268Y51925D02*
X62843D01*
X61213Y45925D02*
X62787D01*
X61213Y49075D02*
X62787D01*
X328658Y43075D02*
X330232D01*
X328658Y39925D02*
X330232D01*
X328157Y65575D02*
X329732D01*
X328157Y62425D02*
X329732Y62425D01*
X328658Y32925D02*
X330232D01*
X328658Y36075D02*
X330232D01*
X72925Y-60843D02*
Y-59268D01*
X76075Y-60843D02*
Y-59268D01*
X88075Y-60787D02*
Y-59213D01*
X84925Y-60787D02*
Y-59213D01*
X78925Y-60843D02*
Y-59268D01*
X82075Y-60843D02*
Y-59268D01*
X90925Y-60787D02*
Y-59213D01*
X94075Y-60787D02*
Y-59213D01*
X-78740Y50327D02*
X0D01*
X-78740Y0D02*
X0D01*
X364398D02*
X439201D01*
X29037Y-67404D02*
X28578Y-66945D01*
X27659D01*
X27200Y-67404D01*
Y-69241D01*
X27659Y-69700D01*
X28578D01*
X29037Y-69241D01*
X31792Y-66945D02*
X29955D01*
Y-68322D01*
X30873Y-67863D01*
X31332D01*
X31792Y-68322D01*
Y-69241D01*
X31332Y-69700D01*
X30414D01*
X29955Y-69241D01*
X32710Y-66945D02*
X34547D01*
Y-67404D01*
X32710Y-69241D01*
Y-69700D01*
X75337Y-37204D02*
X74878Y-36745D01*
X73959D01*
X73500Y-37204D01*
Y-39041D01*
X73959Y-39500D01*
X74878D01*
X75337Y-39041D01*
X78092Y-36745D02*
X76255D01*
Y-38122D01*
X77173Y-37663D01*
X77632D01*
X78092Y-38122D01*
Y-39041D01*
X77632Y-39500D01*
X76714D01*
X76255Y-39041D01*
X80847Y-36745D02*
X79928Y-37204D01*
X79010Y-38122D01*
Y-39041D01*
X79469Y-39500D01*
X80388D01*
X80847Y-39041D01*
Y-38582D01*
X80388Y-38122D01*
X79010D01*
X169337Y68296D02*
X168877Y68755D01*
X167959D01*
X167500Y68296D01*
Y66459D01*
X167959Y66000D01*
X168877D01*
X169337Y66459D01*
Y67378D01*
X168418D01*
X170255Y66000D02*
Y68755D01*
X172092Y66000D01*
Y68755D01*
X173010D02*
Y66000D01*
X174388D01*
X174847Y66459D01*
Y68296D01*
X174388Y68755D01*
X173010D01*
X149500Y39000D02*
Y41755D01*
X150877D01*
X151337Y41296D01*
Y40378D01*
X150877Y39918D01*
X149500D01*
X150418D02*
X151337Y39000D01*
X154092Y41755D02*
X152255D01*
Y39000D01*
X154092D01*
X152255Y40378D02*
X153173D01*
X156847Y41296D02*
X156388Y41755D01*
X155469D01*
X155010Y41296D01*
Y40837D01*
X155469Y40378D01*
X156388D01*
X156847Y39918D01*
Y39459D01*
X156388Y39000D01*
X155469D01*
X155010Y39459D01*
X159602Y41755D02*
X157765D01*
Y39000D01*
X159602D01*
X157765Y40378D02*
X158683D01*
X160520Y41755D02*
X162357D01*
X161438D01*
Y39000D01*
X82500Y27500D02*
Y30255D01*
X83877D01*
X84337Y29796D01*
Y28877D01*
X83877Y28418D01*
X82500D01*
X83418D02*
X84337Y27500D01*
X87092D02*
X85255D01*
X87092Y29337D01*
Y29796D01*
X86633Y30255D01*
X85714D01*
X85255Y29796D01*
X88010Y27959D02*
X88469Y27500D01*
X89388D01*
X89847Y27959D01*
Y29796D01*
X89388Y30255D01*
X88469D01*
X88010Y29796D01*
Y29337D01*
X88469Y28877D01*
X89847D01*
X291000Y29000D02*
Y31755D01*
X292377D01*
X292837Y31296D01*
Y30378D01*
X292377Y29918D01*
X291000D01*
X291918D02*
X292837Y29000D01*
X295592D02*
X293755D01*
X295592Y30837D01*
Y31296D01*
X295132Y31755D01*
X294214D01*
X293755Y31296D01*
X296510D02*
X296969Y31755D01*
X297888D01*
X298347Y31296D01*
Y30837D01*
X297888Y30378D01*
X298347Y29918D01*
Y29459D01*
X297888Y29000D01*
X296969D01*
X296510Y29459D01*
Y29918D01*
X296969Y30378D01*
X296510Y30837D01*
Y31296D01*
X296969Y30378D02*
X297888D01*
X83000Y25255D02*
Y22500D01*
X84377D01*
X84837Y22959D01*
Y24796D01*
X84377Y25255D01*
X83000D01*
X87592Y22500D02*
X85755D01*
X87592Y24337D01*
Y24796D01*
X87133Y25255D01*
X86214D01*
X85755Y24796D01*
X291500Y25255D02*
Y22500D01*
X292878D01*
X293337Y22959D01*
Y24796D01*
X292878Y25255D01*
X291500D01*
X294255Y22500D02*
X295173D01*
X294714D01*
Y25255D01*
X294255Y24796D01*
X71337Y61796D02*
X70877Y62255D01*
X69959D01*
X69500Y61796D01*
Y61337D01*
X69959Y60878D01*
X70877D01*
X71337Y60418D01*
Y59959D01*
X70877Y59500D01*
X69959D01*
X69500Y59959D01*
X72255Y61796D02*
X72714Y62255D01*
X73633D01*
X74092Y61796D01*
Y61337D01*
X73633Y60878D01*
X73173D01*
X73633D01*
X74092Y60418D01*
Y59959D01*
X73633Y59500D01*
X72714D01*
X72255Y59959D01*
X102956Y44153D02*
Y41399D01*
X104793D01*
X107548Y43694D02*
X107089Y44153D01*
X106170D01*
X105711Y43694D01*
Y43235D01*
X106170Y42776D01*
X107089D01*
X107548Y42317D01*
Y41858D01*
X107089Y41399D01*
X106170D01*
X105711Y41858D01*
X108466Y41399D02*
X109385D01*
X108925D01*
Y44153D01*
X108466Y43694D01*
X200962Y-69259D02*
X200502Y-68800D01*
X199584D01*
X199125Y-69259D01*
Y-71096D01*
X199584Y-71555D01*
X200502D01*
X200962Y-71096D01*
X201880Y-71555D02*
X202798D01*
X202339D01*
Y-68800D01*
X201880Y-69259D01*
X185338Y-69204D02*
X184879Y-68745D01*
X183961D01*
X183502Y-69204D01*
Y-71041D01*
X183961Y-71500D01*
X184879D01*
X185338Y-71041D01*
X188093Y-71500D02*
X186257D01*
X188093Y-69663D01*
Y-69204D01*
X187634Y-68745D01*
X186716D01*
X186257Y-69204D01*
X213149Y-69259D02*
X212690Y-68800D01*
X211772D01*
X211313Y-69259D01*
Y-71096D01*
X211772Y-71555D01*
X212690D01*
X213149Y-71096D01*
X214068Y-69259D02*
X214527Y-68800D01*
X215445D01*
X215904Y-69259D01*
Y-69718D01*
X215445Y-70178D01*
X214986D01*
X215445D01*
X215904Y-70637D01*
Y-71096D01*
X215445Y-71555D01*
X214527D01*
X214068Y-71096D01*
X132024Y-69259D02*
X131565Y-68800D01*
X130647D01*
X130187Y-69259D01*
Y-71096D01*
X130647Y-71555D01*
X131565D01*
X132024Y-71096D01*
X134320Y-71555D02*
Y-68800D01*
X132942Y-70178D01*
X134779D01*
X116837Y-69259D02*
X116377Y-68800D01*
X115459D01*
X115000Y-69259D01*
Y-71096D01*
X115459Y-71555D01*
X116377D01*
X116837Y-71096D01*
X119592Y-68800D02*
X117755D01*
Y-70178D01*
X118673Y-69718D01*
X119132D01*
X119592Y-70178D01*
Y-71096D01*
X119132Y-71555D01*
X118214D01*
X117755Y-71096D01*
X146212Y-69259D02*
X145753Y-68800D01*
X144834D01*
X144375Y-69259D01*
Y-71096D01*
X144834Y-71555D01*
X145753D01*
X146212Y-71096D01*
X148967Y-68800D02*
X148048Y-69259D01*
X147130Y-70178D01*
Y-71096D01*
X147589Y-71555D01*
X148507D01*
X148967Y-71096D01*
Y-70637D01*
X148507Y-70178D01*
X147130D01*
X158899Y-69259D02*
X158440Y-68800D01*
X157522D01*
X157062Y-69259D01*
Y-71096D01*
X157522Y-71555D01*
X158440D01*
X158899Y-71096D01*
X159818Y-68800D02*
X161654D01*
Y-69259D01*
X159818Y-71096D01*
Y-71555D01*
X172337Y-69204D02*
X171878Y-68745D01*
X170959D01*
X170500Y-69204D01*
Y-71041D01*
X170959Y-71500D01*
X171878D01*
X172337Y-71041D01*
X173255Y-69204D02*
X173714Y-68745D01*
X174633D01*
X175092Y-69204D01*
Y-69663D01*
X174633Y-70122D01*
X175092Y-70582D01*
Y-71041D01*
X174633Y-71500D01*
X173714D01*
X173255Y-71041D01*
Y-70582D01*
X173714Y-70122D01*
X173255Y-69663D01*
Y-69204D01*
X173714Y-70122D02*
X174633D01*
X328837Y-61204D02*
X328378Y-60745D01*
X327459D01*
X327000Y-61204D01*
Y-63041D01*
X327459Y-63500D01*
X328378D01*
X328837Y-63041D01*
X329755D02*
X330214Y-63500D01*
X331133D01*
X331592Y-63041D01*
Y-61204D01*
X331133Y-60745D01*
X330214D01*
X329755Y-61204D01*
Y-61663D01*
X330214Y-62122D01*
X331592D01*
X24037Y-50504D02*
X23577Y-50045D01*
X22659D01*
X22200Y-50504D01*
Y-52341D01*
X22659Y-52800D01*
X23577D01*
X24037Y-52341D01*
X24955Y-52800D02*
X25873D01*
X25414D01*
Y-50045D01*
X24955Y-50504D01*
X27251D02*
X27710Y-50045D01*
X28628D01*
X29087Y-50504D01*
Y-52341D01*
X28628Y-52800D01*
X27710D01*
X27251Y-52341D01*
Y-50504D01*
X91837Y-67704D02*
X91378Y-67245D01*
X90459D01*
X90000Y-67704D01*
Y-69541D01*
X90459Y-70000D01*
X91378D01*
X91837Y-69541D01*
X92755Y-70000D02*
X93673D01*
X93214D01*
Y-67245D01*
X92755Y-67704D01*
X95051Y-70000D02*
X95969D01*
X95510D01*
Y-67245D01*
X95051Y-67704D01*
X79837Y-67259D02*
X79378Y-66800D01*
X78459D01*
X78000Y-67259D01*
Y-69096D01*
X78459Y-69555D01*
X79378D01*
X79837Y-69096D01*
X80755Y-69555D02*
X81673D01*
X81214D01*
Y-66800D01*
X80755Y-67259D01*
X84887Y-69555D02*
X83051D01*
X84887Y-67718D01*
Y-67259D01*
X84428Y-66800D01*
X83510D01*
X83051Y-67259D01*
X209837Y41796D02*
X209378Y42255D01*
X208459D01*
X208000Y41796D01*
Y39959D01*
X208459Y39500D01*
X209378D01*
X209837Y39959D01*
X210755Y39500D02*
X211673D01*
X211214D01*
Y42255D01*
X210755Y41796D01*
X214428Y39500D02*
Y42255D01*
X213051Y40878D01*
X214888D01*
X197837Y41796D02*
X197378Y42255D01*
X196459D01*
X196000Y41796D01*
Y39959D01*
X196459Y39500D01*
X197378D01*
X197837Y39959D01*
X198755Y39500D02*
X199673D01*
X199214D01*
Y42255D01*
X198755Y41796D01*
X202888Y42255D02*
X201051D01*
Y40878D01*
X201969Y41337D01*
X202428D01*
X202888Y40878D01*
Y39959D01*
X202428Y39500D01*
X201510D01*
X201051Y39959D01*
X177337Y64296D02*
X176877Y64755D01*
X175959D01*
X175500Y64296D01*
Y62459D01*
X175959Y62000D01*
X176877D01*
X177337Y62459D01*
X180092Y62000D02*
X178255D01*
X180092Y63837D01*
Y64296D01*
X179632Y64755D01*
X178714D01*
X178255Y64296D01*
X182847Y62000D02*
X181010D01*
X182847Y63837D01*
Y64296D01*
X182388Y64755D01*
X181469D01*
X181010Y64296D01*
X177337Y41296D02*
X176877Y41755D01*
X175959D01*
X175500Y41296D01*
Y39459D01*
X175959Y39000D01*
X176877D01*
X177337Y39459D01*
X180092Y39000D02*
X178255D01*
X180092Y40837D01*
Y41296D01*
X179632Y41755D01*
X178714D01*
X178255Y41296D01*
X181010D02*
X181469Y41755D01*
X182388D01*
X182847Y41296D01*
Y40837D01*
X182388Y40378D01*
X181928D01*
X182388D01*
X182847Y39918D01*
Y39459D01*
X182388Y39000D01*
X181469D01*
X181010Y39459D01*
X331704Y-44663D02*
X331245Y-45123D01*
Y-46041D01*
X331704Y-46500D01*
X333541D01*
X334000Y-46041D01*
Y-45123D01*
X333541Y-44663D01*
X334000Y-41908D02*
Y-43745D01*
X332163Y-41908D01*
X331704D01*
X331245Y-42368D01*
Y-43286D01*
X331704Y-43745D01*
Y-40990D02*
X331245Y-40531D01*
Y-39612D01*
X331704Y-39153D01*
X332163D01*
X332623Y-39612D01*
X333082Y-39153D01*
X333541D01*
X334000Y-39612D01*
Y-40531D01*
X333541Y-40990D01*
X333082D01*
X332623Y-40531D01*
X332163Y-40990D01*
X331704D01*
X332623Y-40531D02*
Y-39612D01*
X338837Y35796D02*
X338377Y36255D01*
X337459D01*
X337000Y35796D01*
Y33959D01*
X337459Y33500D01*
X338377D01*
X338837Y33959D01*
X341592Y33500D02*
X339755D01*
X341592Y35337D01*
Y35796D01*
X341132Y36255D01*
X340214D01*
X339755Y35796D01*
X342510Y33959D02*
X342969Y33500D01*
X343888D01*
X344347Y33959D01*
Y35796D01*
X343888Y36255D01*
X342969D01*
X342510Y35796D01*
Y35337D01*
X342969Y34877D01*
X344347D01*
X338337Y66796D02*
X337877Y67255D01*
X336959D01*
X336500Y66796D01*
Y64959D01*
X336959Y64500D01*
X337877D01*
X338337Y64959D01*
X339255Y66796D02*
X339714Y67255D01*
X340633D01*
X341092Y66796D01*
Y66337D01*
X340633Y65877D01*
X340173D01*
X340633D01*
X341092Y65418D01*
Y64959D01*
X340633Y64500D01*
X339714D01*
X339255Y64959D01*
X342010Y66796D02*
X342469Y67255D01*
X343388D01*
X343847Y66796D01*
Y64959D01*
X343388Y64500D01*
X342469D01*
X342010Y64959D01*
Y66796D01*
X331704Y-31163D02*
X331245Y-31622D01*
Y-32541D01*
X331704Y-33000D01*
X333541D01*
X334000Y-32541D01*
Y-31622D01*
X333541Y-31163D01*
X331704Y-30245D02*
X331245Y-29786D01*
Y-28868D01*
X331704Y-28408D01*
X332163D01*
X332623Y-28868D01*
Y-29327D01*
Y-28868D01*
X333082Y-28408D01*
X333541D01*
X334000Y-28868D01*
Y-29786D01*
X333541Y-30245D01*
X334000Y-27490D02*
Y-26572D01*
Y-27031D01*
X331245D01*
X331704Y-27490D01*
X291049Y46796D02*
X290590Y47255D01*
X289672D01*
X289213Y46796D01*
Y44959D01*
X289672Y44500D01*
X290590D01*
X291049Y44959D01*
X291968Y46796D02*
X292427Y47255D01*
X293345D01*
X293804Y46796D01*
Y46337D01*
X293345Y45878D01*
X292886D01*
X293345D01*
X293804Y45418D01*
Y44959D01*
X293345Y44500D01*
X292427D01*
X291968Y44959D01*
X296559Y47255D02*
X295641Y46796D01*
X294723Y45878D01*
Y44959D01*
X295182Y44500D01*
X296100D01*
X296559Y44959D01*
Y45418D01*
X296100Y45878D01*
X294723D01*
X297837Y52296D02*
X297377Y52755D01*
X296459D01*
X296000Y52296D01*
Y50459D01*
X296459Y50000D01*
X297377D01*
X297837Y50459D01*
X298755Y52296D02*
X299214Y52755D01*
X300132D01*
X300592Y52296D01*
Y51837D01*
X300132Y51377D01*
X299673D01*
X300132D01*
X300592Y50918D01*
Y50459D01*
X300132Y50000D01*
X299214D01*
X298755Y50459D01*
X301510Y52755D02*
X303347D01*
Y52296D01*
X301510Y50459D01*
Y50000D01*
X297837Y65296D02*
X297377Y65755D01*
X296459D01*
X296000Y65296D01*
Y63459D01*
X296459Y63000D01*
X297377D01*
X297837Y63459D01*
X298755Y65296D02*
X299214Y65755D01*
X300132D01*
X300592Y65296D01*
Y64837D01*
X300132Y64377D01*
X299673D01*
X300132D01*
X300592Y63918D01*
Y63459D01*
X300132Y63000D01*
X299214D01*
X298755Y63459D01*
X301510Y65296D02*
X301969Y65755D01*
X302888D01*
X303347Y65296D01*
Y64837D01*
X302888Y64377D01*
X303347Y63918D01*
Y63459D01*
X302888Y63000D01*
X301969D01*
X301510Y63459D01*
Y63918D01*
X301969Y64377D01*
X301510Y64837D01*
Y65296D01*
X301969Y64377D02*
X302888D01*
X297837Y39796D02*
X297377Y40255D01*
X296459D01*
X296000Y39796D01*
Y37959D01*
X296459Y37500D01*
X297377D01*
X297837Y37959D01*
X300132Y37500D02*
Y40255D01*
X298755Y38877D01*
X300592D01*
X301510Y39796D02*
X301969Y40255D01*
X302888D01*
X303347Y39796D01*
Y37959D01*
X302888Y37500D01*
X301969D01*
X301510Y37959D01*
Y39796D01*
X338837Y42796D02*
X338377Y43255D01*
X337459D01*
X337000Y42796D01*
Y40959D01*
X337459Y40500D01*
X338377D01*
X338837Y40959D01*
X341132Y40500D02*
Y43255D01*
X339755Y41877D01*
X341592D01*
X344347Y40500D02*
X342510D01*
X344347Y42337D01*
Y42796D01*
X343888Y43255D01*
X342969D01*
X342510Y42796D01*
X358204Y-44663D02*
X357745Y-45123D01*
Y-46041D01*
X358204Y-46500D01*
X360041D01*
X360500Y-46041D01*
Y-45123D01*
X360041Y-44663D01*
X360500Y-42368D02*
X357745D01*
X359122Y-43745D01*
Y-41908D01*
X358204Y-40990D02*
X357745Y-40531D01*
Y-39612D01*
X358204Y-39153D01*
X358663D01*
X359122Y-39612D01*
Y-40072D01*
Y-39612D01*
X359582Y-39153D01*
X360041D01*
X360500Y-39612D01*
Y-40531D01*
X360041Y-40990D01*
X358204Y-31163D02*
X357745Y-31622D01*
Y-32541D01*
X358204Y-33000D01*
X360041D01*
X360500Y-32541D01*
Y-31622D01*
X360041Y-31163D01*
X360500Y-28868D02*
X357745D01*
X359122Y-30245D01*
Y-28408D01*
X360500Y-26112D02*
X357745D01*
X359122Y-27490D01*
Y-25653D01*
X59837Y42296D02*
X59377Y42755D01*
X58459D01*
X58000Y42296D01*
Y40459D01*
X58459Y40000D01*
X59377D01*
X59837Y40459D01*
X62133Y40000D02*
Y42755D01*
X60755Y41377D01*
X62592D01*
X65347Y42755D02*
X63510D01*
Y41377D01*
X64428Y41837D01*
X64887D01*
X65347Y41377D01*
Y40459D01*
X64887Y40000D01*
X63969D01*
X63510Y40459D01*
X278337Y-44204D02*
X277877Y-43745D01*
X276959D01*
X276500Y-44204D01*
Y-46041D01*
X276959Y-46500D01*
X277877D01*
X278337Y-46041D01*
X280632Y-46500D02*
Y-43745D01*
X279255Y-45123D01*
X281092D01*
X282010Y-43745D02*
X283847D01*
Y-44204D01*
X282010Y-46041D01*
Y-46500D01*
X298337Y-23767D02*
X297878Y-23308D01*
X296959D01*
X296500Y-23767D01*
Y-25604D01*
X296959Y-26063D01*
X297878D01*
X298337Y-25604D01*
X300633Y-26063D02*
Y-23308D01*
X299255Y-24686D01*
X301092D01*
X302010Y-23767D02*
X302469Y-23308D01*
X303388D01*
X303847Y-23767D01*
Y-24226D01*
X303388Y-24686D01*
X303847Y-25145D01*
Y-25604D01*
X303388Y-26063D01*
X302469D01*
X302010Y-25604D01*
Y-25145D01*
X302469Y-24686D01*
X302010Y-24226D01*
Y-23767D01*
X302469Y-24686D02*
X303388D01*
X304837Y-40759D02*
X304378Y-40300D01*
X303459D01*
X303000Y-40759D01*
Y-42596D01*
X303459Y-43055D01*
X304378D01*
X304837Y-42596D01*
X307133Y-43055D02*
Y-40300D01*
X305755Y-41678D01*
X307592D01*
X308510Y-42596D02*
X308969Y-43055D01*
X309888D01*
X310347Y-42596D01*
Y-40759D01*
X309888Y-40300D01*
X308969D01*
X308510Y-40759D01*
Y-41218D01*
X308969Y-41678D01*
X310347D01*
X310837Y-23767D02*
X310378Y-23308D01*
X309459D01*
X309000Y-23767D01*
Y-25604D01*
X309459Y-26063D01*
X310378D01*
X310837Y-25604D01*
X313592Y-23308D02*
X311755D01*
Y-24686D01*
X312673Y-24226D01*
X313133D01*
X313592Y-24686D01*
Y-25604D01*
X313133Y-26063D01*
X312214D01*
X311755Y-25604D01*
X314510Y-23767D02*
X314969Y-23308D01*
X315888D01*
X316347Y-23767D01*
Y-25604D01*
X315888Y-26063D01*
X314969D01*
X314510Y-25604D01*
Y-23767D01*
X305837Y-56204D02*
X305378Y-55745D01*
X304459D01*
X304000Y-56204D01*
Y-58041D01*
X304459Y-58500D01*
X305378D01*
X305837Y-58041D01*
X308592Y-55745D02*
X306755D01*
Y-57122D01*
X307673Y-56663D01*
X308133D01*
X308592Y-57122D01*
Y-58041D01*
X308133Y-58500D01*
X307214D01*
X306755Y-58041D01*
X309510Y-58500D02*
X310428D01*
X309969D01*
Y-55745D01*
X309510Y-56204D01*
X297837Y58296D02*
X297377Y58755D01*
X296459D01*
X296000Y58296D01*
Y56459D01*
X296459Y56000D01*
X297377D01*
X297837Y56459D01*
X300592Y58755D02*
X298755D01*
Y57377D01*
X299673Y57837D01*
X300132D01*
X300592Y57377D01*
Y56459D01*
X300132Y56000D01*
X299214D01*
X298755Y56459D01*
X302888Y56000D02*
Y58755D01*
X301510Y57377D01*
X303347D01*
X114837Y40200D02*
X113918D01*
X114377D01*
Y37904D01*
X113918Y37445D01*
X113459D01*
X113000Y37904D01*
X115755Y37445D02*
X116673D01*
X116214D01*
Y40200D01*
X115755Y39741D01*
X29500Y-29745D02*
Y-32500D01*
X31337D01*
X32255D02*
X33173D01*
X32714D01*
Y-29745D01*
X32255Y-30204D01*
X298500Y11000D02*
Y13755D01*
X299418Y12837D01*
X300337Y13755D01*
Y11000D01*
X301255Y13755D02*
X302173D01*
X301714D01*
Y11000D01*
X301255D01*
X302173D01*
X305388Y13296D02*
X304928Y13755D01*
X304010D01*
X303551Y13296D01*
Y11459D01*
X304010Y11000D01*
X304928D01*
X305388Y11459D01*
X306306Y11000D02*
X307224D01*
X306765D01*
Y13755D01*
X306306Y13296D01*
X80500Y-26000D02*
Y-23245D01*
X81877D01*
X82337Y-23704D01*
Y-24622D01*
X81877Y-25082D01*
X80500D01*
X83255Y-26000D02*
X84173D01*
X83714D01*
Y-23245D01*
X83255Y-23704D01*
X34400Y-52900D02*
Y-50145D01*
X35778D01*
X36237Y-50604D01*
Y-51522D01*
X35778Y-51982D01*
X34400D01*
X35318D02*
X36237Y-52900D01*
X38992D02*
X37155D01*
X38992Y-51063D01*
Y-50604D01*
X38533Y-50145D01*
X37614D01*
X37155Y-50604D01*
X40300Y-69500D02*
Y-66745D01*
X41677D01*
X42137Y-67204D01*
Y-68123D01*
X41677Y-68582D01*
X40300D01*
X41218D02*
X42137Y-69500D01*
X43055Y-67204D02*
X43514Y-66745D01*
X44433D01*
X44892Y-67204D01*
Y-67663D01*
X44433Y-68123D01*
X43973D01*
X44433D01*
X44892Y-68582D01*
Y-69041D01*
X44433Y-69500D01*
X43514D01*
X43055Y-69041D01*
X52500Y-53000D02*
Y-50245D01*
X53878D01*
X54337Y-50704D01*
Y-51622D01*
X53878Y-52082D01*
X52500D01*
X53418D02*
X54337Y-53000D01*
X56633D02*
Y-50245D01*
X55255Y-51622D01*
X57092D01*
X47000Y-69555D02*
Y-66800D01*
X48377D01*
X48837Y-67259D01*
Y-68178D01*
X48377Y-68637D01*
X47000D01*
X47918D02*
X48837Y-69555D01*
X51592Y-66800D02*
X49755D01*
Y-68178D01*
X50673Y-67718D01*
X51133D01*
X51592Y-68178D01*
Y-69096D01*
X51133Y-69555D01*
X50214D01*
X49755Y-69096D01*
X58500Y-69555D02*
Y-66800D01*
X59878D01*
X60337Y-67259D01*
Y-68178D01*
X59878Y-68637D01*
X58500D01*
X59418D02*
X60337Y-69555D01*
X63092Y-66800D02*
X62173Y-67259D01*
X61255Y-68178D01*
Y-69096D01*
X61714Y-69555D01*
X62633D01*
X63092Y-69096D01*
Y-68637D01*
X62633Y-68178D01*
X61255D01*
X65100Y-53000D02*
Y-50245D01*
X66478D01*
X66937Y-50704D01*
Y-51622D01*
X66478Y-52082D01*
X65100D01*
X66018D02*
X66937Y-53000D01*
X67855Y-50245D02*
X69692D01*
Y-50704D01*
X67855Y-52541D01*
Y-53000D01*
X16500Y-69500D02*
Y-66745D01*
X17877D01*
X18337Y-67204D01*
Y-68123D01*
X17877Y-68582D01*
X16500D01*
X17418D02*
X18337Y-69500D01*
X19255Y-67204D02*
X19714Y-66745D01*
X20632D01*
X21092Y-67204D01*
Y-67663D01*
X20632Y-68123D01*
X21092Y-68582D01*
Y-69041D01*
X20632Y-69500D01*
X19714D01*
X19255Y-69041D01*
Y-68582D01*
X19714Y-68123D01*
X19255Y-67663D01*
Y-67204D01*
X19714Y-68123D02*
X20632D01*
X5000Y-69508D02*
Y-66753D01*
X6378D01*
X6837Y-67212D01*
Y-68130D01*
X6378Y-68590D01*
X5000D01*
X5918D02*
X6837Y-69508D01*
X7755Y-69049D02*
X8214Y-69508D01*
X9132D01*
X9592Y-69049D01*
Y-67212D01*
X9132Y-66753D01*
X8214D01*
X7755Y-67212D01*
Y-67671D01*
X8214Y-68130D01*
X9592D01*
X73010Y-44789D02*
Y-42034D01*
X74387D01*
X74847Y-42493D01*
Y-43411D01*
X74387Y-43870D01*
X73010D01*
X73928D02*
X74847Y-44789D01*
X75765D02*
X76683D01*
X76224D01*
Y-42034D01*
X75765Y-42493D01*
X78061D02*
X78520Y-42034D01*
X79438D01*
X79897Y-42493D01*
Y-44330D01*
X79438Y-44789D01*
X78520D01*
X78061Y-44330D01*
Y-42493D01*
X10500Y-53300D02*
Y-50545D01*
X11878D01*
X12337Y-51004D01*
Y-51923D01*
X11878Y-52382D01*
X10500D01*
X11418D02*
X12337Y-53300D01*
X13255D02*
X14173D01*
X13714D01*
Y-50545D01*
X13255Y-51004D01*
X15551Y-53300D02*
X16469D01*
X16010D01*
Y-50545D01*
X15551Y-51004D01*
X79500Y53500D02*
Y56255D01*
X80878D01*
X81337Y55796D01*
Y54878D01*
X80878Y54418D01*
X79500D01*
X80418D02*
X81337Y53500D01*
X82255D02*
X83173D01*
X82714D01*
Y56255D01*
X82255Y55796D01*
X86387Y53500D02*
X84551D01*
X86387Y55337D01*
Y55796D01*
X85928Y56255D01*
X85010D01*
X84551Y55796D01*
X83500Y-53000D02*
Y-50245D01*
X84878D01*
X85337Y-50704D01*
Y-51622D01*
X84878Y-52082D01*
X83500D01*
X84418D02*
X85337Y-53000D01*
X86255D02*
X87173D01*
X86714D01*
Y-50245D01*
X86255Y-50704D01*
X88551D02*
X89010Y-50245D01*
X89928D01*
X90387Y-50704D01*
Y-51163D01*
X89928Y-51622D01*
X89469D01*
X89928D01*
X90387Y-52082D01*
Y-52541D01*
X89928Y-53000D01*
X89010D01*
X88551Y-52541D01*
X72000Y-53110D02*
Y-50355D01*
X73378D01*
X73837Y-50814D01*
Y-51733D01*
X73378Y-52192D01*
X72000D01*
X72918D02*
X73837Y-53110D01*
X74755D02*
X75673D01*
X75214D01*
Y-50355D01*
X74755Y-50814D01*
X78887Y-50355D02*
X77051D01*
Y-51733D01*
X77969Y-51274D01*
X78428D01*
X78887Y-51733D01*
Y-52651D01*
X78428Y-53110D01*
X77510D01*
X77051Y-52651D01*
X95500Y59500D02*
X92745D01*
Y60878D01*
X93204Y61337D01*
X94122D01*
X94582Y60878D01*
Y59500D01*
Y60418D02*
X95500Y61337D01*
Y62255D02*
Y63173D01*
Y62714D01*
X92745D01*
X93204Y62255D01*
X92745Y66387D02*
X93204Y65469D01*
X94122Y64551D01*
X95041D01*
X95500Y65010D01*
Y65928D01*
X95041Y66387D01*
X94582D01*
X94122Y65928D01*
Y64551D01*
X338000Y-46500D02*
X335245D01*
Y-45123D01*
X335704Y-44663D01*
X336623D01*
X337082Y-45123D01*
Y-46500D01*
Y-45582D02*
X338000Y-44663D01*
Y-43745D02*
Y-42827D01*
Y-43286D01*
X335245D01*
X335704Y-43745D01*
X335245Y-41449D02*
Y-39612D01*
X335704D01*
X337541Y-41449D01*
X338000D01*
Y-33000D02*
X335245D01*
Y-31622D01*
X335704Y-31163D01*
X336623D01*
X337082Y-31622D01*
Y-33000D01*
Y-32082D02*
X338000Y-31163D01*
Y-30245D02*
Y-29327D01*
Y-29786D01*
X335245D01*
X335704Y-30245D01*
Y-27949D02*
X335245Y-27490D01*
Y-26572D01*
X335704Y-26112D01*
X336163D01*
X336623Y-26572D01*
X337082Y-26112D01*
X337541D01*
X338000Y-26572D01*
Y-27490D01*
X337541Y-27949D01*
X337082D01*
X336623Y-27490D01*
X336163Y-27949D01*
X335704D01*
X336623Y-27490D02*
Y-26572D01*
X69500Y52000D02*
Y54755D01*
X70877D01*
X71337Y54296D01*
Y53377D01*
X70877Y52918D01*
X69500D01*
X70418D02*
X71337Y52000D01*
X72255D02*
X73173D01*
X72714D01*
Y54755D01*
X72255Y54296D01*
X74551Y52459D02*
X75010Y52000D01*
X75928D01*
X76388Y52459D01*
Y54296D01*
X75928Y54755D01*
X75010D01*
X74551Y54296D01*
Y53837D01*
X75010Y53377D01*
X76388D01*
X286000Y-26063D02*
Y-23308D01*
X287378D01*
X287837Y-23767D01*
Y-24686D01*
X287378Y-25145D01*
X286000D01*
X286918D02*
X287837Y-26063D01*
X290592D02*
X288755D01*
X290592Y-24226D01*
Y-23767D01*
X290132Y-23308D01*
X289214D01*
X288755Y-23767D01*
X293347Y-26063D02*
X291510D01*
X293347Y-24226D01*
Y-23767D01*
X292888Y-23308D01*
X291969D01*
X291510Y-23767D01*
X291000Y-43055D02*
Y-40300D01*
X292377D01*
X292837Y-40759D01*
Y-41678D01*
X292377Y-42137D01*
X291000D01*
X291918D02*
X292837Y-43055D01*
X295592D02*
X293755D01*
X295592Y-41218D01*
Y-40759D01*
X295132Y-40300D01*
X294214D01*
X293755Y-40759D01*
X296510D02*
X296969Y-40300D01*
X297888D01*
X298347Y-40759D01*
Y-41218D01*
X297888Y-41678D01*
X297428D01*
X297888D01*
X298347Y-42137D01*
Y-42596D01*
X297888Y-43055D01*
X296969D01*
X296510Y-42596D01*
X315000Y-43055D02*
Y-40300D01*
X316377D01*
X316837Y-40759D01*
Y-41678D01*
X316377Y-42137D01*
X315000D01*
X315918D02*
X316837Y-43055D01*
X319592D02*
X317755D01*
X319592Y-41218D01*
Y-40759D01*
X319132Y-40300D01*
X318214D01*
X317755Y-40759D01*
X321888Y-43055D02*
Y-40300D01*
X320510Y-41678D01*
X322347D01*
X321500Y-26063D02*
Y-23308D01*
X322878D01*
X323337Y-23767D01*
Y-24686D01*
X322878Y-25145D01*
X321500D01*
X322418D02*
X323337Y-26063D01*
X326092D02*
X324255D01*
X326092Y-24226D01*
Y-23767D01*
X325633Y-23308D01*
X324714D01*
X324255Y-23767D01*
X328847Y-23308D02*
X327928Y-23767D01*
X327010Y-24686D01*
Y-25604D01*
X327469Y-26063D01*
X328388D01*
X328847Y-25604D01*
Y-25145D01*
X328388Y-24686D01*
X327010D01*
X90337Y17796D02*
X89877Y18255D01*
X88959D01*
X88500Y17796D01*
Y17337D01*
X88959Y16878D01*
X89877D01*
X90337Y16418D01*
Y15959D01*
X89877Y15500D01*
X88959D01*
X88500Y15959D01*
X91255Y15500D02*
X92173D01*
X91714D01*
Y18255D01*
X91255Y17796D01*
X295337Y-12204D02*
X294878Y-11745D01*
X293959D01*
X293500Y-12204D01*
Y-12663D01*
X293959Y-13123D01*
X294878D01*
X295337Y-13582D01*
Y-14041D01*
X294878Y-14500D01*
X293959D01*
X293500Y-14041D01*
X298092Y-14500D02*
X296255D01*
X298092Y-12663D01*
Y-12204D01*
X297633Y-11745D01*
X296714D01*
X296255Y-12204D01*
X46500Y-38245D02*
Y-40541D01*
X46959Y-41000D01*
X47877D01*
X48337Y-40541D01*
Y-38245D01*
X49255Y-41000D02*
X50173D01*
X49714D01*
Y-38245D01*
X49255Y-38704D01*
X9500Y-30245D02*
Y-32541D01*
X9959Y-33000D01*
X10877D01*
X11337Y-32541D01*
Y-30245D01*
X12255Y-30704D02*
X12714Y-30245D01*
X13633D01*
X14092Y-30704D01*
Y-31163D01*
X13633Y-31622D01*
X13173D01*
X13633D01*
X14092Y-32082D01*
Y-32541D01*
X13633Y-33000D01*
X12714D01*
X12255Y-32541D01*
X337500Y54255D02*
Y51959D01*
X337959Y51500D01*
X338878D01*
X339337Y51959D01*
Y54255D01*
X341633Y51500D02*
Y54255D01*
X340255Y52877D01*
X342092D01*
X204000Y67755D02*
Y67296D01*
X204918Y66378D01*
X205837Y67296D01*
Y67755D01*
X204918Y66378D02*
Y65000D01*
X206755D02*
X207673D01*
X207214D01*
Y67755D01*
X206755Y67296D01*
X165500Y62255D02*
Y61796D01*
X166418Y60878D01*
X167337Y61796D01*
Y62255D01*
X166418Y60878D02*
Y59500D01*
X170092D02*
X168255D01*
X170092Y61337D01*
Y61796D01*
X169632Y62255D01*
X168714D01*
X168255Y61796D01*
X355337Y20755D02*
X354418D01*
X354877D01*
Y18459D01*
X354418Y18000D01*
X353959D01*
X353500Y18459D01*
X356255Y20296D02*
X356714Y20755D01*
X357632D01*
X358092Y20296D01*
Y19837D01*
X357632Y19377D01*
X357173D01*
X357632D01*
X358092Y18918D01*
Y18459D01*
X357632Y18000D01*
X356714D01*
X356255Y18459D01*
X9837Y34873D02*
X8918D01*
X9377D01*
Y32577D01*
X8918Y32118D01*
X8459D01*
X8000Y32577D01*
X12133Y32118D02*
Y34873D01*
X10755Y33496D01*
X12592D01*
X122500Y55000D02*
Y57755D01*
X123878D01*
X124337Y57296D01*
Y56378D01*
X123878Y55918D01*
X122500D01*
X127092Y55000D02*
X125255D01*
X127092Y56837D01*
Y57296D01*
X126632Y57755D01*
X125714D01*
X125255Y57296D01*
X94000Y-37000D02*
Y-34245D01*
X95377D01*
X95837Y-34704D01*
Y-35623D01*
X95377Y-36082D01*
X94000D01*
X96755Y-34704D02*
X97214Y-34245D01*
X98132D01*
X98592Y-34704D01*
Y-35163D01*
X98132Y-35623D01*
X97673D01*
X98132D01*
X98592Y-36082D01*
Y-36541D01*
X98132Y-37000D01*
X97214D01*
X96755Y-36541D01*
M02*
