%FSLAX25Y25*%
%MOIN*%
G70*
G01*
G75*
G04 Layer_Color=32896*
%ADD10R,0.08661X0.05906*%
%ADD11O,0.00984X0.03347*%
%ADD12O,0.03150X0.01181*%
%ADD13O,0.01181X0.03150*%
%ADD14R,0.06299X0.06299*%
%ADD15R,0.03937X0.03543*%
%ADD16C,0.03000*%
G04:AMPARAMS|DCode=17|XSize=236.22mil|YSize=98.43mil|CornerRadius=24.61mil|HoleSize=0mil|Usage=FLASHONLY|Rotation=0.000|XOffset=0mil|YOffset=0mil|HoleType=Round|Shape=RoundedRectangle|*
%AMROUNDEDRECTD17*
21,1,0.23622,0.04921,0,0,0.0*
21,1,0.18701,0.09843,0,0,0.0*
1,1,0.04921,0.09350,-0.02461*
1,1,0.04921,-0.09350,-0.02461*
1,1,0.04921,-0.09350,0.02461*
1,1,0.04921,0.09350,0.02461*
%
%ADD17ROUNDEDRECTD17*%
G04:AMPARAMS|DCode=18|XSize=98.43mil|YSize=39.37mil|CornerRadius=9.84mil|HoleSize=0mil|Usage=FLASHONLY|Rotation=0.000|XOffset=0mil|YOffset=0mil|HoleType=Round|Shape=RoundedRectangle|*
%AMROUNDEDRECTD18*
21,1,0.09843,0.01969,0,0,0.0*
21,1,0.07874,0.03937,0,0,0.0*
1,1,0.01969,0.03937,-0.00984*
1,1,0.01969,-0.03937,-0.00984*
1,1,0.01969,-0.03937,0.00984*
1,1,0.01969,0.03937,0.00984*
%
%ADD18ROUNDEDRECTD18*%
G04:AMPARAMS|DCode=19|XSize=78.74mil|YSize=94.49mil|CornerRadius=19.69mil|HoleSize=0mil|Usage=FLASHONLY|Rotation=180.000|XOffset=0mil|YOffset=0mil|HoleType=Round|Shape=RoundedRectangle|*
%AMROUNDEDRECTD19*
21,1,0.07874,0.05512,0,0,180.0*
21,1,0.03937,0.09449,0,0,180.0*
1,1,0.03937,-0.01969,0.02756*
1,1,0.03937,0.01969,0.02756*
1,1,0.03937,0.01969,-0.02756*
1,1,0.03937,-0.01969,-0.02756*
%
%ADD19ROUNDEDRECTD19*%
%ADD20R,0.03543X0.03937*%
%ADD21R,0.03150X0.06693*%
%ADD22R,0.03150X0.04331*%
%ADD23R,0.09000X0.09000*%
%ADD24R,0.04331X0.05906*%
%ADD25R,0.05906X0.04331*%
G04:AMPARAMS|DCode=26|XSize=51.18mil|YSize=64.96mil|CornerRadius=12.8mil|HoleSize=0mil|Usage=FLASHONLY|Rotation=0.000|XOffset=0mil|YOffset=0mil|HoleType=Round|Shape=RoundedRectangle|*
%AMROUNDEDRECTD26*
21,1,0.05118,0.03937,0,0,0.0*
21,1,0.02559,0.06496,0,0,0.0*
1,1,0.02559,0.01280,-0.01969*
1,1,0.02559,-0.01280,-0.01969*
1,1,0.02559,-0.01280,0.01969*
1,1,0.02559,0.01280,0.01969*
%
%ADD26ROUNDEDRECTD26*%
G04:AMPARAMS|DCode=27|XSize=31.5mil|YSize=106.3mil|CornerRadius=7.87mil|HoleSize=0mil|Usage=FLASHONLY|Rotation=180.000|XOffset=0mil|YOffset=0mil|HoleType=Round|Shape=RoundedRectangle|*
%AMROUNDEDRECTD27*
21,1,0.03150,0.09055,0,0,180.0*
21,1,0.01575,0.10630,0,0,180.0*
1,1,0.01575,-0.00787,0.04528*
1,1,0.01575,0.00787,0.04528*
1,1,0.01575,0.00787,-0.04528*
1,1,0.01575,-0.00787,-0.04528*
%
%ADD27ROUNDEDRECTD27*%
G04:AMPARAMS|DCode=28|XSize=25.59mil|YSize=43.31mil|CornerRadius=6.4mil|HoleSize=0mil|Usage=FLASHONLY|Rotation=90.000|XOffset=0mil|YOffset=0mil|HoleType=Round|Shape=RoundedRectangle|*
%AMROUNDEDRECTD28*
21,1,0.02559,0.03051,0,0,90.0*
21,1,0.01280,0.04331,0,0,90.0*
1,1,0.01280,0.01526,0.00640*
1,1,0.01280,0.01526,-0.00640*
1,1,0.01280,-0.01526,-0.00640*
1,1,0.01280,-0.01526,0.00640*
%
%ADD28ROUNDEDRECTD28*%
%ADD29C,0.01181*%
%ADD30C,0.01969*%
%ADD31C,0.01000*%
%ADD32C,0.03937*%
%ADD33C,0.03902*%
%ADD34C,0.02953*%
%ADD35C,0.03543*%
G04:AMPARAMS|DCode=36|XSize=86.61mil|YSize=59.06mil|CornerRadius=0mil|HoleSize=0mil|Usage=FLASHONLY|Rotation=0.000|XOffset=0mil|YOffset=0mil|HoleType=Round|Shape=Octagon|*
%AMOCTAGOND36*
4,1,8,0.04331,-0.01476,0.04331,0.01476,0.02854,0.02953,-0.02854,0.02953,-0.04331,0.01476,-0.04331,-0.01476,-0.02854,-0.02953,0.02854,-0.02953,0.04331,-0.01476,0.0*
%
%ADD36OCTAGOND36*%

%ADD37P,0.05114X8X22.5*%
%ADD38C,0.13780*%
%ADD39C,0.05906*%
%ADD40R,0.05906X0.05906*%
%ADD41P,0.04261X8X22.5*%
%ADD42C,0.03937*%
%ADD43R,0.05906X0.05906*%
%ADD44C,0.01969*%
%ADD45C,0.02362*%
%ADD46C,0.04724*%
%ADD47C,0.04000*%
%ADD48C,0.07902*%
%ADD49C,0.06953*%
%ADD50C,0.07543*%
%ADD51O,0.10693X0.07150*%
%ADD52C,0.06362*%
%ADD53C,0.13843*%
%ADD54C,0.05181*%
%ADD55C,0.03098*%
%ADD56R,0.10630X0.07874*%
%ADD57R,0.05709X0.07874*%
%ADD58R,0.03150X0.05906*%
%ADD59O,0.01181X0.07087*%
%ADD60O,0.07087X0.01181*%
G04:AMPARAMS|DCode=61|XSize=50mil|YSize=70mil|CornerRadius=12.5mil|HoleSize=0mil|Usage=FLASHONLY|Rotation=90.000|XOffset=0mil|YOffset=0mil|HoleType=Round|Shape=RoundedRectangle|*
%AMROUNDEDRECTD61*
21,1,0.05000,0.04500,0,0,90.0*
21,1,0.02500,0.07000,0,0,90.0*
1,1,0.02500,0.02250,0.01250*
1,1,0.02500,0.02250,-0.01250*
1,1,0.02500,-0.02250,-0.01250*
1,1,0.02500,-0.02250,0.01250*
%
%ADD61ROUNDEDRECTD61*%
%ADD62C,0.00984*%
%ADD63C,0.00394*%
%ADD64C,0.00787*%
%ADD65R,0.09461X0.06706*%
%ADD66O,0.01784X0.04147*%
%ADD67O,0.03950X0.01981*%
%ADD68O,0.01981X0.03950*%
%ADD69R,0.07099X0.07099*%
%ADD70R,0.04737X0.04343*%
%ADD71C,0.03800*%
G04:AMPARAMS|DCode=72|XSize=244.22mil|YSize=106.42mil|CornerRadius=28.61mil|HoleSize=0mil|Usage=FLASHONLY|Rotation=0.000|XOffset=0mil|YOffset=0mil|HoleType=Round|Shape=RoundedRectangle|*
%AMROUNDEDRECTD72*
21,1,0.24422,0.04921,0,0,0.0*
21,1,0.18701,0.10642,0,0,0.0*
1,1,0.05721,0.09350,-0.02461*
1,1,0.05721,-0.09350,-0.02461*
1,1,0.05721,-0.09350,0.02461*
1,1,0.05721,0.09350,0.02461*
%
%ADD72ROUNDEDRECTD72*%
G04:AMPARAMS|DCode=73|XSize=106.42mil|YSize=47.37mil|CornerRadius=13.84mil|HoleSize=0mil|Usage=FLASHONLY|Rotation=0.000|XOffset=0mil|YOffset=0mil|HoleType=Round|Shape=RoundedRectangle|*
%AMROUNDEDRECTD73*
21,1,0.10642,0.01969,0,0,0.0*
21,1,0.07874,0.04737,0,0,0.0*
1,1,0.02769,0.03937,-0.00984*
1,1,0.02769,-0.03937,-0.00984*
1,1,0.02769,-0.03937,0.00984*
1,1,0.02769,0.03937,0.00984*
%
%ADD73ROUNDEDRECTD73*%
G04:AMPARAMS|DCode=74|XSize=86.74mil|YSize=102.49mil|CornerRadius=23.69mil|HoleSize=0mil|Usage=FLASHONLY|Rotation=180.000|XOffset=0mil|YOffset=0mil|HoleType=Round|Shape=RoundedRectangle|*
%AMROUNDEDRECTD74*
21,1,0.08674,0.05512,0,0,180.0*
21,1,0.03937,0.10249,0,0,180.0*
1,1,0.04737,-0.01969,0.02756*
1,1,0.04737,0.01969,0.02756*
1,1,0.04737,0.01969,-0.02756*
1,1,0.04737,-0.01969,-0.02756*
%
%ADD74ROUNDEDRECTD74*%
%ADD75R,0.04343X0.04737*%
%ADD76R,0.03950X0.07493*%
%ADD77R,0.03950X0.05131*%
%ADD78R,0.09800X0.09800*%
%ADD79R,0.05131X0.06706*%
%ADD80R,0.06706X0.05131*%
G04:AMPARAMS|DCode=81|XSize=59.18mil|YSize=72.96mil|CornerRadius=16.8mil|HoleSize=0mil|Usage=FLASHONLY|Rotation=0.000|XOffset=0mil|YOffset=0mil|HoleType=Round|Shape=RoundedRectangle|*
%AMROUNDEDRECTD81*
21,1,0.05918,0.03937,0,0,0.0*
21,1,0.02559,0.07296,0,0,0.0*
1,1,0.03359,0.01280,-0.01969*
1,1,0.03359,-0.01280,-0.01969*
1,1,0.03359,-0.01280,0.01969*
1,1,0.03359,0.01280,0.01969*
%
%ADD81ROUNDEDRECTD81*%
G04:AMPARAMS|DCode=82|XSize=39.5mil|YSize=114.3mil|CornerRadius=11.87mil|HoleSize=0mil|Usage=FLASHONLY|Rotation=180.000|XOffset=0mil|YOffset=0mil|HoleType=Round|Shape=RoundedRectangle|*
%AMROUNDEDRECTD82*
21,1,0.03950,0.09055,0,0,180.0*
21,1,0.01575,0.11430,0,0,180.0*
1,1,0.02375,-0.00787,0.04528*
1,1,0.02375,0.00787,0.04528*
1,1,0.02375,0.00787,-0.04528*
1,1,0.02375,-0.00787,-0.04528*
%
%ADD82ROUNDEDRECTD82*%
G04:AMPARAMS|DCode=83|XSize=33.59mil|YSize=51.31mil|CornerRadius=10.4mil|HoleSize=0mil|Usage=FLASHONLY|Rotation=90.000|XOffset=0mil|YOffset=0mil|HoleType=Round|Shape=RoundedRectangle|*
%AMROUNDEDRECTD83*
21,1,0.03359,0.03051,0,0,90.0*
21,1,0.01280,0.05131,0,0,90.0*
1,1,0.02080,0.01526,0.00640*
1,1,0.02080,0.01526,-0.00640*
1,1,0.02080,-0.01526,-0.00640*
1,1,0.02080,-0.01526,0.00640*
%
%ADD83ROUNDEDRECTD83*%
%ADD84C,0.04702*%
%ADD85C,0.03753*%
%ADD86C,0.04343*%
G04:AMPARAMS|DCode=87|XSize=94.61mil|YSize=67.06mil|CornerRadius=0mil|HoleSize=0mil|Usage=FLASHONLY|Rotation=0.000|XOffset=0mil|YOffset=0mil|HoleType=Round|Shape=Octagon|*
%AMOCTAGOND87*
4,1,8,0.04731,-0.01676,0.04731,0.01676,0.03054,0.03353,-0.03054,0.03353,-0.04731,0.01676,-0.04731,-0.01676,-0.03054,-0.03353,0.03054,-0.03353,0.04731,-0.01676,0.0*
%
%ADD87OCTAGOND87*%

%ADD88P,0.05980X8X22.5*%
%ADD89C,0.14579*%
%ADD90C,0.06706*%
%ADD91R,0.06706X0.06706*%
%ADD92P,0.05127X8X22.5*%
%ADD93C,0.04737*%
%ADD94R,0.06706X0.06706*%
%ADD95C,0.03898*%
%ADD96R,0.11430X0.08674*%
%ADD97R,0.06509X0.08674*%
%ADD98R,0.03550X0.06306*%
%ADD99O,0.01981X0.07887*%
%ADD100O,0.07887X0.01981*%
G04:AMPARAMS|DCode=101|XSize=58mil|YSize=78mil|CornerRadius=16.5mil|HoleSize=0mil|Usage=FLASHONLY|Rotation=90.000|XOffset=0mil|YOffset=0mil|HoleType=Round|Shape=RoundedRectangle|*
%AMROUNDEDRECTD101*
21,1,0.05800,0.04500,0,0,90.0*
21,1,0.02500,0.07800,0,0,90.0*
1,1,0.03300,0.02250,0.01250*
1,1,0.03300,0.02250,-0.01250*
1,1,0.03300,-0.02250,-0.01250*
1,1,0.03300,-0.02250,0.01250*
%
%ADD101ROUNDEDRECTD101*%
%ADD102C,0.02362*%
D31*
X289707Y-54500D02*
G03*
X289707Y-54500I-353J0D01*
G01*
X319750Y-38500D02*
Y-20000D01*
X286250Y-38500D02*
X319750D01*
X286250D02*
Y-20000D01*
X319750D01*
X301250Y-38500D02*
X319750Y-20000D01*
X298250Y-38500D02*
X316750Y-20000D01*
X295250Y-38500D02*
X313750Y-20000D01*
X292250Y-38500D02*
X310750Y-20000D01*
X289250Y-38500D02*
X307750Y-20000D01*
X286250Y-38500D02*
X304750Y-20000D01*
X286375Y-35375D02*
X301750Y-20000D01*
X286625Y-32125D02*
X298750Y-20000D01*
X286375Y-29375D02*
X295750Y-20000D01*
X286500Y-26250D02*
X292750Y-20000D01*
X286250Y-23500D02*
X289750Y-20000D01*
X304250Y-38500D02*
X319750Y-23000D01*
X307250Y-38500D02*
X319750Y-26000D01*
X310375Y-38375D02*
X319750Y-29000D01*
X313375Y-38375D02*
X319750Y-32000D01*
X316250Y-38500D02*
X319750Y-35000D01*
X286250Y-35000D02*
X289750Y-38500D01*
X286250Y-32000D02*
X292625Y-38375D01*
X286250Y-29000D02*
X295625Y-38375D01*
X286250Y-26000D02*
X298750Y-38500D01*
X286250Y-23000D02*
X301750Y-38500D01*
X316250Y-20000D02*
X319750Y-23500D01*
X313250Y-20000D02*
X319500Y-26250D01*
X310250Y-20000D02*
X319625Y-29375D01*
X307250Y-20000D02*
X319375Y-32125D01*
X304250Y-20000D02*
X319625Y-35375D01*
X301250Y-20000D02*
X319750Y-38500D01*
X298250Y-20000D02*
X316750Y-38500D01*
X295250Y-20000D02*
X313750Y-38500D01*
X292250Y-20000D02*
X310750Y-38500D01*
X289250Y-20000D02*
X307750Y-38500D01*
X286250Y-20000D02*
X304750Y-38500D01*
X282500Y4055D02*
Y5555D01*
X278000D02*
X282500D01*
X267500D02*
Y7055D01*
Y5555D02*
X272000D01*
Y3055D02*
Y8055D01*
X278000Y3055D02*
Y8055D01*
X273500Y3055D02*
X276500D01*
X273500D02*
Y8055D01*
X276500D01*
Y3055D02*
Y8055D01*
X289000Y-820D02*
Y180D01*
X288000D02*
X289000D01*
X288000Y-820D02*
Y180D01*
Y-820D02*
X289000D01*
X271250D02*
X278750D01*
X271250Y12180D02*
X278750D01*
X285000Y3930D02*
Y7180D01*
X265000Y3930D02*
Y7305D01*
X61800Y-50126D02*
X65798D01*
Y-56124D01*
X61800D01*
X65798Y-53125D02*
X63799D01*
X59800Y-56124D02*
Y-50126D01*
X56801D01*
X55802Y-51126D01*
Y-53125D01*
X56801Y-54125D01*
X59800D01*
X49804Y-50126D02*
X53802D01*
Y-53125D01*
X51803D01*
X53802D01*
Y-56124D01*
X47804Y-53125D02*
X43806D01*
X41806Y-56124D02*
X39807D01*
X40807D01*
Y-50126D01*
X41806Y-51126D01*
X36808D02*
X35808Y-50126D01*
X33809D01*
X32809Y-51126D01*
Y-55124D01*
X33809Y-56124D01*
X35808D01*
X36808Y-55124D01*
Y-51126D01*
X30810D02*
X29810Y-50126D01*
X27811D01*
X26811Y-51126D01*
Y-55124D01*
X27811Y-56124D01*
X29810D01*
X30810Y-55124D01*
Y-51126D01*
D62*
X217012Y-29850D02*
G03*
X217012Y-29850I-492J0D01*
G01*
X285437Y58083D02*
G03*
X285437Y58083I-492J0D01*
G01*
D63*
X149213Y0D02*
G03*
X149213Y0I-17717J0D01*
G01*
X132087Y984D02*
G03*
X132480Y591I394J0D01*
G01*
X132551Y5811D02*
G03*
X132087Y5423I-70J-387D01*
G01*
X137307Y1055D02*
G03*
X132551Y5811I-5811J-1055D01*
G01*
X136919Y591D02*
G03*
X137307Y1055I0J394D01*
G01*
X125686D02*
G03*
X126073Y591I387J-70D01*
G01*
X130441Y5811D02*
G03*
X125686Y1055I1055J-5811D01*
G01*
X130905Y5423D02*
G03*
X130441Y5811I-394J0D01*
G01*
X130905Y-984D02*
G03*
X130512Y-591I-394J0D01*
G01*
X130441Y-5811D02*
G03*
X130905Y-5423I70J387D01*
G01*
X125686Y-1055D02*
G03*
X130441Y-5811I5811J1055D01*
G01*
X126073Y-591D02*
G03*
X125686Y-1055I0J-394D01*
G01*
X132480Y-591D02*
G03*
X132087Y-984I0J-394D01*
G01*
X137307Y-1055D02*
G03*
X136919Y-591I-387J70D01*
G01*
X132551Y-5811D02*
G03*
X137307Y-1055I-1055J5811D01*
G01*
X132087Y-5423D02*
G03*
X132551Y-5811I394J0D01*
G01*
X130512Y591D02*
G03*
X130905Y984I0J394D01*
G01*
X109843Y-1969D02*
Y1969D01*
X126772Y-25591D02*
Y-21654D01*
X136221D01*
Y-25591D02*
Y-21654D01*
X153150Y-23622D02*
X157087Y-19685D01*
X153150Y23622D02*
X157087Y19685D01*
X136221Y21654D02*
Y25591D01*
X126772Y21654D02*
X136221D01*
X126772D02*
Y25591D01*
X105905Y1969D02*
X109843D01*
X105905Y-23622D02*
Y23622D01*
X118701Y25591D02*
X140748D01*
X157087Y-19685D02*
Y19685D01*
X118701Y-25591D02*
X140748D01*
X105905Y-1969D02*
X109843D01*
X132087Y984D02*
Y5423D01*
X132480Y591D02*
X136919D01*
X126073D02*
X130512D01*
X130905Y984D02*
Y5423D01*
Y-5423D02*
Y-984D01*
X126073Y-591D02*
X130512D01*
X132480D02*
X136919D01*
X132087Y-5423D02*
Y-984D01*
X327000Y-22500D02*
Y-13000D01*
X277500D02*
X327000D01*
X277500D02*
X277500Y-22500D01*
Y-55000D02*
Y-32000D01*
Y-65000D02*
X326500D01*
Y-55000D02*
Y-32500D01*
D64*
X173130Y58713D02*
Y60287D01*
X169980Y58713D02*
Y60287D01*
X167130Y58713D02*
Y60287D01*
X163980Y58713D02*
Y60287D01*
X133453Y-48266D02*
X135028D01*
X133453Y-51416D02*
X135028D01*
X245425Y-44787D02*
Y-43213D01*
X248575Y-44787D02*
Y-43213D01*
X196213Y28425D02*
X197787D01*
X196213Y31575D02*
X197787D01*
X91563Y19913D02*
Y23063D01*
Y19913D02*
X99437D01*
Y23063D01*
Y30937D02*
Y34087D01*
X91563D02*
X99437D01*
X91563Y30937D02*
Y34087D01*
X182268Y-24732D02*
X215732Y-24732D01*
X182268Y8732D02*
X215732Y8732D01*
Y-24732D02*
Y8732D01*
X182268Y-24732D02*
X182268Y8732D01*
X252724Y21020D02*
X255724Y27020D01*
X245724Y28020D02*
X251724Y31020D01*
X245724Y27020D02*
X251724Y21020D01*
X245724Y27020D02*
Y28091D01*
X251724Y21020D02*
X252724Y21020D01*
X286480Y31224D02*
X292480Y28224D01*
X282480Y27224D02*
X285480Y21224D01*
X286480D02*
X292480Y27224D01*
X285409Y21224D02*
X286480D01*
X292480Y27224D02*
X292480Y28224D01*
X282776Y61980D02*
X285776Y67980D01*
X286776Y57980D02*
X292776Y60980D01*
X286776Y67980D02*
X292776Y61980D01*
X292776Y60909D02*
X292776Y61980D01*
X285776Y67980D02*
X286776Y67980D01*
X245520Y60776D02*
X251520Y57776D01*
X252520Y67776D02*
X255520Y61776D01*
X245520D02*
X251520Y67776D01*
X252590D01*
X245520Y60776D02*
X245520Y61776D01*
X279827Y33673D02*
Y55327D01*
X258173Y33673D02*
Y55327D01*
X279827D01*
X258173Y33673D02*
X279827D01*
X173075Y27213D02*
Y28787D01*
X169925Y27213D02*
Y28787D01*
X262059Y-21630D02*
X263634D01*
X262059Y-18480D02*
X263634D01*
X262059Y-13630D02*
X263634D01*
X262059Y-10480D02*
X263634D01*
X213213Y28425D02*
X214787D01*
X213213Y31575D02*
X214787D01*
X170020Y-1287D02*
Y287D01*
X166870Y-1287D02*
Y287D01*
X163520Y-1287D02*
Y287D01*
X160370Y-1287D02*
Y287D01*
X188525Y-46287D02*
Y-44713D01*
X191675Y-46287D02*
Y-44713D01*
X212225Y-44687D02*
Y-43113D01*
X215375Y-44687D02*
Y-43113D01*
X310622Y33850D02*
X312196D01*
X310622Y30701D02*
X312196D01*
X270213Y18130D02*
X271787D01*
X270213Y14980D02*
X271787D01*
X310622Y60720D02*
X312196D01*
X310622Y57571D02*
X312196D01*
X294075Y4713D02*
Y6287D01*
X290925Y4713D02*
Y6287D01*
X257425Y4713D02*
Y6287D01*
X260575Y4713D02*
Y6287D01*
X235713Y52925D02*
X237287D01*
X235713Y56075D02*
X237287D01*
X310713Y40075D02*
X312287Y40075D01*
X310713Y36925D02*
X312287Y36925D01*
X310713Y46575D02*
X312287D01*
X310713Y43425D02*
X312287D01*
X310622Y54356D02*
X312196D01*
X310622Y51207D02*
X312196D01*
X235713Y46925D02*
X237287D01*
X235713Y50075D02*
X237287D01*
X248713Y14425D02*
X250287D01*
X248713Y17575D02*
X250287D01*
X61213Y51925D02*
X62787D01*
X61213Y55075D02*
X62787D01*
X61213Y49075D02*
X62787D01*
X61213Y45925D02*
X62787D01*
X98000Y-63000D02*
X108000D01*
Y-33000D01*
X98000D02*
X108000D01*
X98000Y-63000D02*
Y-33000D01*
X159663Y-47704D02*
X160123Y-47245D01*
X161041D01*
X161500Y-47704D01*
Y-49541D01*
X161041Y-50000D01*
X160123D01*
X159663Y-49541D01*
Y-48623D01*
X160582D01*
X158745Y-50000D02*
Y-47245D01*
X156908Y-50000D01*
Y-47245D01*
X155990D02*
Y-50000D01*
X154612D01*
X154153Y-49541D01*
Y-47704D01*
X154612Y-47245D01*
X155990D01*
X350163Y37796D02*
X350623Y38255D01*
X351541D01*
X352000Y37796D01*
Y35959D01*
X351541Y35500D01*
X350623D01*
X350163Y35959D01*
Y36878D01*
X351082D01*
X349245Y35500D02*
Y38255D01*
X347408Y35500D01*
Y38255D01*
X346490D02*
Y35500D01*
X345112D01*
X344653Y35959D01*
Y37796D01*
X345112Y38255D01*
X346490D01*
X86542Y28338D02*
X87002Y28797D01*
X87920D01*
X88379Y28338D01*
Y26502D01*
X87920Y26042D01*
X87002D01*
X86542Y26502D01*
X83787Y28797D02*
X85624D01*
Y27420D01*
X84706Y27879D01*
X84247D01*
X83787Y27420D01*
Y26502D01*
X84247Y26042D01*
X85165D01*
X85624Y26502D01*
X81032Y28797D02*
X82869D01*
Y27420D01*
X81951Y27879D01*
X81492D01*
X81032Y27420D01*
Y26502D01*
X81492Y26042D01*
X82410D01*
X82869Y26502D01*
X126500Y-29745D02*
Y-32500D01*
X124663D01*
X121908Y-30204D02*
X122368Y-29745D01*
X123286D01*
X123745Y-30204D01*
Y-30663D01*
X123286Y-31122D01*
X122368D01*
X121908Y-31582D01*
Y-32041D01*
X122368Y-32500D01*
X123286D01*
X123745Y-32041D01*
X119153Y-32500D02*
X120990D01*
X119153Y-30663D01*
Y-30204D01*
X119612Y-29745D01*
X120531D01*
X120990Y-30204D01*
X105500Y-68000D02*
Y-65245D01*
X104122D01*
X103663Y-65704D01*
Y-66623D01*
X104122Y-67082D01*
X105500D01*
X100908Y-65245D02*
X102745D01*
Y-66623D01*
X101827Y-66163D01*
X101367D01*
X100908Y-66623D01*
Y-67541D01*
X101367Y-68000D01*
X102286D01*
X102745Y-67541D01*
X165663Y69296D02*
X166122Y69755D01*
X167041D01*
X167500Y69296D01*
Y67459D01*
X167041Y67000D01*
X166122D01*
X165663Y67459D01*
X164745Y67000D02*
X163827D01*
X164286D01*
Y69755D01*
X164745Y69296D01*
X162449D02*
X161990Y69755D01*
X161072D01*
X160612Y69296D01*
Y68837D01*
X161072Y68378D01*
X161531D01*
X161072D01*
X160612Y67918D01*
Y67459D01*
X161072Y67000D01*
X161990D01*
X162449Y67459D01*
X224463Y-43104D02*
X224922Y-42645D01*
X225841D01*
X226300Y-43104D01*
Y-44941D01*
X225841Y-45400D01*
X224922D01*
X224463Y-44941D01*
X223545Y-45400D02*
X222627D01*
X223086D01*
Y-42645D01*
X223545Y-43104D01*
X219412Y-42645D02*
X220331Y-43104D01*
X221249Y-44023D01*
Y-44941D01*
X220790Y-45400D01*
X219872D01*
X219412Y-44941D01*
Y-44482D01*
X219872Y-44023D01*
X221249D01*
X199263Y-44704D02*
X199723Y-44245D01*
X200641D01*
X201100Y-44704D01*
Y-46541D01*
X200641Y-47000D01*
X199723D01*
X199263Y-46541D01*
X198345Y-47000D02*
X197427D01*
X197886D01*
Y-44245D01*
X198345Y-44704D01*
X196049Y-44245D02*
X194212D01*
Y-44704D01*
X196049Y-46541D01*
Y-47000D01*
X162796Y9337D02*
X163255Y8878D01*
Y7959D01*
X162796Y7500D01*
X160959D01*
X160500Y7959D01*
Y8878D01*
X160959Y9337D01*
X160500Y10255D02*
Y11173D01*
Y10714D01*
X163255D01*
X162796Y10255D01*
Y12551D02*
X163255Y13010D01*
Y13928D01*
X162796Y14388D01*
X162337D01*
X161878Y13928D01*
X161418Y14388D01*
X160959D01*
X160500Y13928D01*
Y13010D01*
X160959Y12551D01*
X161418D01*
X161878Y13010D01*
X162337Y12551D01*
X162796D01*
X161878Y13010D02*
Y13928D01*
X169796Y9337D02*
X170255Y8878D01*
Y7959D01*
X169796Y7500D01*
X167959D01*
X167500Y7959D01*
Y8878D01*
X167959Y9337D01*
X167500Y10255D02*
Y11173D01*
Y10714D01*
X170255D01*
X169796Y10255D01*
X167959Y12551D02*
X167500Y13010D01*
Y13928D01*
X167959Y14388D01*
X169796D01*
X170255Y13928D01*
Y13010D01*
X169796Y12551D01*
X169337D01*
X168877Y13010D01*
Y14388D01*
X216163Y37296D02*
X216622Y37755D01*
X217541D01*
X218000Y37296D01*
Y35459D01*
X217541Y35000D01*
X216622D01*
X216163Y35459D01*
X213408Y35000D02*
X215245D01*
X213408Y36837D01*
Y37296D01*
X213867Y37755D01*
X214786D01*
X215245Y37296D01*
X212490D02*
X212031Y37755D01*
X211112D01*
X210653Y37296D01*
Y35459D01*
X211112Y35000D01*
X212031D01*
X212490Y35459D01*
Y37296D01*
X198663D02*
X199123Y37755D01*
X200041D01*
X200500Y37296D01*
Y35459D01*
X200041Y35000D01*
X199123D01*
X198663Y35459D01*
X195908Y35000D02*
X197745D01*
X195908Y36837D01*
Y37296D01*
X196368Y37755D01*
X197286D01*
X197745Y37296D01*
X194990Y35000D02*
X194072D01*
X194531D01*
Y37755D01*
X194990Y37296D01*
X253663Y-11204D02*
X254122Y-10745D01*
X255041D01*
X255500Y-11204D01*
Y-13041D01*
X255041Y-13500D01*
X254122D01*
X253663Y-13041D01*
X250908Y-13500D02*
X252745D01*
X250908Y-11663D01*
Y-11204D01*
X251367Y-10745D01*
X252286D01*
X252745Y-11204D01*
X248612Y-13500D02*
Y-10745D01*
X249990Y-12122D01*
X248153D01*
X253663Y-18704D02*
X254122Y-18245D01*
X255041D01*
X255500Y-18704D01*
Y-20541D01*
X255041Y-21000D01*
X254122D01*
X253663Y-20541D01*
X250908Y-21000D02*
X252745D01*
X250908Y-19163D01*
Y-18704D01*
X251367Y-18245D01*
X252286D01*
X252745Y-18704D01*
X248153Y-18245D02*
X249990D01*
Y-19623D01*
X249072Y-19163D01*
X248612D01*
X248153Y-19623D01*
Y-20541D01*
X248612Y-21000D01*
X249531D01*
X249990Y-20541D01*
X165163Y28796D02*
X165622Y29255D01*
X166541D01*
X167000Y28796D01*
Y26959D01*
X166541Y26500D01*
X165622D01*
X165163Y26959D01*
X162408Y26500D02*
X164245D01*
X162408Y28337D01*
Y28796D01*
X162867Y29255D01*
X163786D01*
X164245Y28796D01*
X159653Y29255D02*
X160572Y28796D01*
X161490Y27878D01*
Y26959D01*
X161031Y26500D01*
X160112D01*
X159653Y26959D01*
Y27418D01*
X160112Y27878D01*
X161490D01*
X248163Y-34204D02*
X248622Y-33745D01*
X249541D01*
X250000Y-34204D01*
Y-36041D01*
X249541Y-36500D01*
X248622D01*
X248163Y-36041D01*
X245408Y-36500D02*
X247245D01*
X245408Y-34663D01*
Y-34204D01*
X245867Y-33745D01*
X246786D01*
X247245Y-34204D01*
X244490Y-33745D02*
X242653D01*
Y-34204D01*
X244490Y-36041D01*
Y-36500D01*
X248163Y11296D02*
X248622Y11755D01*
X249541D01*
X250000Y11296D01*
Y9459D01*
X249541Y9000D01*
X248622D01*
X248163Y9459D01*
X247245Y11296D02*
X246786Y11755D01*
X245867D01*
X245408Y11296D01*
Y10837D01*
X245867Y10378D01*
X246327D01*
X245867D01*
X245408Y9918D01*
Y9459D01*
X245867Y9000D01*
X246786D01*
X247245Y9459D01*
X242653Y9000D02*
X244490D01*
X242653Y10837D01*
Y11296D01*
X243112Y11755D01*
X244031D01*
X244490Y11296D01*
X237663Y43796D02*
X238123Y44255D01*
X239041D01*
X239500Y43796D01*
Y41959D01*
X239041Y41500D01*
X238123D01*
X237663Y41959D01*
X236745Y43796D02*
X236286Y44255D01*
X235367D01*
X234908Y43796D01*
Y43337D01*
X235367Y42878D01*
X235827D01*
X235367D01*
X234908Y42418D01*
Y41959D01*
X235367Y41500D01*
X236286D01*
X236745Y41959D01*
X233990Y43796D02*
X233531Y44255D01*
X232612D01*
X232153Y43796D01*
Y43337D01*
X232612Y42878D01*
X233072D01*
X232612D01*
X232153Y42418D01*
Y41959D01*
X232612Y41500D01*
X233531D01*
X233990Y41959D01*
X325663Y53796D02*
X326122Y54255D01*
X327041D01*
X327500Y53796D01*
Y51959D01*
X327041Y51500D01*
X326122D01*
X325663Y51959D01*
X324745Y53796D02*
X324286Y54255D01*
X323368D01*
X322908Y53796D01*
Y53337D01*
X323368Y52877D01*
X323827D01*
X323368D01*
X322908Y52418D01*
Y51959D01*
X323368Y51500D01*
X324286D01*
X324745Y51959D01*
X320612Y51500D02*
Y54255D01*
X321990Y52877D01*
X320153D01*
X325754Y46242D02*
X326214Y46701D01*
X327132D01*
X327591Y46242D01*
Y44405D01*
X327132Y43946D01*
X326214D01*
X325754Y44405D01*
X324836Y46242D02*
X324377Y46701D01*
X323458D01*
X322999Y46242D01*
Y45783D01*
X323458Y45324D01*
X323918D01*
X323458D01*
X322999Y44865D01*
Y44405D01*
X323458Y43946D01*
X324377D01*
X324836Y44405D01*
X320244Y46701D02*
X322081D01*
Y45324D01*
X321163Y45783D01*
X320703D01*
X320244Y45324D01*
Y44405D01*
X320703Y43946D01*
X321622D01*
X322081Y44405D01*
X325754Y39378D02*
X326214Y39837D01*
X327132D01*
X327591Y39378D01*
Y37541D01*
X327132Y37082D01*
X326214D01*
X325754Y37541D01*
X324836Y39378D02*
X324377Y39837D01*
X323458D01*
X322999Y39378D01*
Y38919D01*
X323458Y38460D01*
X323918D01*
X323458D01*
X322999Y38001D01*
Y37541D01*
X323458Y37082D01*
X324377D01*
X324836Y37541D01*
X322081D02*
X321622Y37082D01*
X320703D01*
X320244Y37541D01*
Y39378D01*
X320703Y39837D01*
X321622D01*
X322081Y39378D01*
Y38919D01*
X321622Y38460D01*
X320244D01*
X238163Y60796D02*
X238622Y61255D01*
X239541D01*
X240000Y60796D01*
Y58959D01*
X239541Y58500D01*
X238622D01*
X238163Y58959D01*
X235868Y58500D02*
Y61255D01*
X237245Y59878D01*
X235408D01*
X234490Y58500D02*
X233572D01*
X234031D01*
Y61255D01*
X234490Y60796D01*
X63663Y42796D02*
X64122Y43255D01*
X65041D01*
X65500Y42796D01*
Y40959D01*
X65041Y40500D01*
X64122D01*
X63663Y40959D01*
X61367Y40500D02*
Y43255D01*
X62745Y41877D01*
X60908D01*
X58153Y43255D02*
X59072Y42796D01*
X59990Y41877D01*
Y40959D01*
X59531Y40500D01*
X58613D01*
X58153Y40959D01*
Y41418D01*
X58613Y41877D01*
X59990D01*
X253163Y6296D02*
X253623Y6755D01*
X254541D01*
X255000Y6296D01*
Y4459D01*
X254541Y4000D01*
X253623D01*
X253163Y4459D01*
X250408Y6755D02*
X252245D01*
Y5378D01*
X251327Y5837D01*
X250868D01*
X250408Y5378D01*
Y4459D01*
X250868Y4000D01*
X251786D01*
X252245Y4459D01*
X247653Y4000D02*
X249490D01*
X247653Y5837D01*
Y6296D01*
X248112Y6755D01*
X249031D01*
X249490Y6296D01*
X303663D02*
X304122Y6755D01*
X305041D01*
X305500Y6296D01*
Y4459D01*
X305041Y4000D01*
X304122D01*
X303663Y4459D01*
X300908Y6755D02*
X302745D01*
Y5378D01*
X301827Y5837D01*
X301367D01*
X300908Y5378D01*
Y4459D01*
X301367Y4000D01*
X302286D01*
X302745Y4459D01*
X299990Y6296D02*
X299531Y6755D01*
X298612D01*
X298153Y6296D01*
Y5837D01*
X298612Y5378D01*
X299072D01*
X298612D01*
X298153Y4918D01*
Y4459D01*
X298612Y4000D01*
X299531D01*
X299990Y4459D01*
X336663Y-50245D02*
X337582D01*
X337123D01*
Y-52541D01*
X337582Y-53000D01*
X338041D01*
X338500Y-52541D01*
X333908Y-53000D02*
X335745D01*
X333908Y-51163D01*
Y-50704D01*
X334367Y-50245D01*
X335286D01*
X335745Y-50704D01*
X125500Y40500D02*
Y43255D01*
X124123D01*
X123663Y42796D01*
Y41877D01*
X124123Y41418D01*
X125500D01*
X121368Y40500D02*
Y43255D01*
X122745Y41877D01*
X120908D01*
X136646Y-45631D02*
Y-42876D01*
X135269D01*
X134810Y-43335D01*
Y-44254D01*
X135269Y-44713D01*
X136646D01*
X135728D02*
X134810Y-45631D01*
X133891D02*
X132973D01*
X133432D01*
Y-42876D01*
X133891Y-43335D01*
X176500Y67000D02*
Y69755D01*
X175122D01*
X174663Y69296D01*
Y68378D01*
X175122Y67918D01*
X176500D01*
X175582D02*
X174663Y67000D01*
X173745D02*
X172827D01*
X173286D01*
Y69755D01*
X173745Y69296D01*
X170072Y67000D02*
Y69755D01*
X171449Y68378D01*
X169612D01*
X77000Y52000D02*
Y54755D01*
X75622D01*
X75163Y54296D01*
Y53377D01*
X75622Y52918D01*
X77000D01*
X76082D02*
X75163Y52000D01*
X72408D02*
X74245D01*
X72408Y53837D01*
Y54296D01*
X72868Y54755D01*
X73786D01*
X74245Y54296D01*
X71490D02*
X71031Y54755D01*
X70113D01*
X69653Y54296D01*
Y52459D01*
X70113Y52000D01*
X71031D01*
X71490Y52459D01*
Y54296D01*
X327000Y57500D02*
Y60255D01*
X325623D01*
X325163Y59796D01*
Y58877D01*
X325623Y58418D01*
X327000D01*
X326082D02*
X325163Y57500D01*
X322408D02*
X324245D01*
X322408Y59337D01*
Y59796D01*
X322867Y60255D01*
X323786D01*
X324245Y59796D01*
X321490Y57500D02*
X320572D01*
X321031D01*
Y60255D01*
X321490Y59796D01*
X286500Y14500D02*
Y17255D01*
X285122D01*
X284663Y16796D01*
Y15878D01*
X285122Y15418D01*
X286500D01*
X285582D02*
X284663Y14500D01*
X281908D02*
X283745D01*
X281908Y16337D01*
Y16796D01*
X282367Y17255D01*
X283286D01*
X283745Y16796D01*
X279153Y17255D02*
X280990D01*
Y15878D01*
X280072Y16337D01*
X279612D01*
X279153Y15878D01*
Y14959D01*
X279612Y14500D01*
X280531D01*
X280990Y14959D01*
X327500Y31000D02*
Y33755D01*
X326122D01*
X325663Y33296D01*
Y32377D01*
X326122Y31918D01*
X327500D01*
X326582D02*
X325663Y31000D01*
X322908D02*
X324745D01*
X322908Y32837D01*
Y33296D01*
X323368Y33755D01*
X324286D01*
X324745Y33296D01*
X321990Y33755D02*
X320153D01*
Y33296D01*
X321990Y31459D01*
Y31000D01*
X352000Y-34704D02*
X351541Y-34245D01*
X350623D01*
X350163Y-34704D01*
Y-35163D01*
X350623Y-35623D01*
X351082D01*
X350623D01*
X350163Y-36082D01*
Y-36541D01*
X350623Y-37000D01*
X351541D01*
X352000Y-36541D01*
X349245Y-34245D02*
Y-36082D01*
X348327Y-37000D01*
X347408Y-36082D01*
Y-34245D01*
X346490Y-34704D02*
X346031Y-34245D01*
X345112D01*
X344653Y-34704D01*
Y-35163D01*
X345112Y-35623D01*
X345572D01*
X345112D01*
X344653Y-36082D01*
Y-36541D01*
X345112Y-37000D01*
X346031D01*
X346490Y-36541D01*
X230500Y-26245D02*
Y-28541D01*
X230041Y-29000D01*
X229122D01*
X228663Y-28541D01*
Y-26245D01*
X225908Y-29000D02*
X227745D01*
X225908Y-27163D01*
Y-26704D01*
X226367Y-26245D01*
X227286D01*
X227745Y-26704D01*
X243000Y31755D02*
Y29459D01*
X242541Y29000D01*
X241622D01*
X241163Y29459D01*
Y31755D01*
X238408D02*
X240245D01*
Y30378D01*
X239327Y30837D01*
X238867D01*
X238408Y30378D01*
Y29459D01*
X238867Y29000D01*
X239786D01*
X240245Y29459D01*
X276500Y-3245D02*
X274663Y-6000D01*
Y-3245D02*
X276500Y-6000D01*
X273745D02*
X272827D01*
X273286D01*
Y-3245D01*
X273745Y-3704D01*
X180000Y-43500D02*
Y-40745D01*
X178622D01*
X178163Y-41204D01*
Y-42123D01*
X178622Y-42582D01*
X180000D01*
X179082D02*
X178163Y-43500D01*
X177245Y-40745D02*
X175408Y-43500D01*
Y-40745D02*
X177245Y-43500D01*
X180000Y-47745D02*
X178163D01*
X179082D01*
Y-50500D01*
X177245Y-47745D02*
X175408Y-50500D01*
Y-47745D02*
X177245Y-50500D01*
X103000Y-16123D02*
X101163D01*
X102082Y-15204D02*
Y-17041D01*
X100245Y-14745D02*
Y-16582D01*
X99327Y-17500D01*
X98408Y-16582D01*
Y-14745D01*
X97490D02*
Y-17500D01*
X96113D01*
X95653Y-17041D01*
Y-16582D01*
X96113Y-16123D01*
X97490D01*
X96113D01*
X95653Y-15663D01*
Y-15204D01*
X96113Y-14745D01*
X97490D01*
X94735D02*
Y-17041D01*
X94276Y-17500D01*
X93357D01*
X92898Y-17041D01*
Y-14745D01*
X90143Y-15204D02*
X90602Y-14745D01*
X91521D01*
X91980Y-15204D01*
Y-15663D01*
X91521Y-16123D01*
X90602D01*
X90143Y-16582D01*
Y-17041D01*
X90602Y-17500D01*
X91521D01*
X91980Y-17041D01*
X104000Y-6745D02*
Y-9041D01*
X103541Y-9500D01*
X102622D01*
X102163Y-9041D01*
Y-6745D01*
X99408Y-7204D02*
X99867Y-6745D01*
X100786D01*
X101245Y-7204D01*
Y-7663D01*
X100786Y-8123D01*
X99867D01*
X99408Y-8582D01*
Y-9041D01*
X99867Y-9500D01*
X100786D01*
X101245Y-9041D01*
X98490Y-6745D02*
Y-9500D01*
X97113D01*
X96653Y-9041D01*
Y-8582D01*
X97113Y-8123D01*
X98490D01*
X97113D01*
X96653Y-7663D01*
Y-7204D01*
X97113Y-6745D01*
X98490D01*
X92980D02*
Y-9500D01*
X91602D01*
X91143Y-9041D01*
Y-7204D01*
X91602Y-6745D01*
X92980D01*
X90225Y-9500D02*
Y-6745D01*
X89307Y-7663D01*
X88388Y-6745D01*
Y-9500D01*
X104000Y755D02*
Y-1541D01*
X103541Y-2000D01*
X102622D01*
X102163Y-1541D01*
Y755D01*
X99408Y296D02*
X99867Y755D01*
X100786D01*
X101245Y296D01*
Y-163D01*
X100786Y-623D01*
X99867D01*
X99408Y-1082D01*
Y-1541D01*
X99867Y-2000D01*
X100786D01*
X101245Y-1541D01*
X98490Y755D02*
Y-2000D01*
X97113D01*
X96653Y-1541D01*
Y-1082D01*
X97113Y-623D01*
X98490D01*
X97113D01*
X96653Y-163D01*
Y296D01*
X97113Y755D01*
X98490D01*
X92980D02*
Y-2000D01*
X91602D01*
X91143Y-1541D01*
Y296D01*
X91602Y755D01*
X92980D01*
X90225Y-2000D02*
Y755D01*
X88847D01*
X88388Y296D01*
Y-623D01*
X88847Y-1082D01*
X90225D01*
X104000Y8755D02*
Y6459D01*
X103541Y6000D01*
X102622D01*
X102163Y6459D01*
Y8755D01*
X99408Y8296D02*
X99867Y8755D01*
X100786D01*
X101245Y8296D01*
Y7837D01*
X100786Y7378D01*
X99867D01*
X99408Y6918D01*
Y6459D01*
X99867Y6000D01*
X100786D01*
X101245Y6459D01*
X98490Y8755D02*
Y6000D01*
X97113D01*
X96653Y6459D01*
Y6918D01*
X97113Y7378D01*
X98490D01*
X97113D01*
X96653Y7837D01*
Y8296D01*
X97113Y8755D01*
X98490D01*
X92980D02*
X92062D01*
X92521D01*
Y6000D01*
X92980D01*
X92062D01*
X90684Y8755D02*
Y6000D01*
X89307D01*
X88847Y6459D01*
Y8296D01*
X89307Y8755D01*
X90684D01*
X96163Y16796D02*
X96623Y17255D01*
X97541D01*
X98000Y16796D01*
Y14959D01*
X97541Y14500D01*
X96623D01*
X96163Y14959D01*
Y15878D01*
X97082D01*
X95245Y14500D02*
Y17255D01*
X93408Y14500D01*
Y17255D01*
X92490D02*
Y14500D01*
X91113D01*
X90653Y14959D01*
Y16796D01*
X91113Y17255D01*
X92490D01*
X94500Y-57245D02*
X92663D01*
X93582D01*
Y-60000D01*
X89908Y-57704D02*
X90368Y-57245D01*
X91286D01*
X91745Y-57704D01*
Y-58163D01*
X91286Y-58622D01*
X90368D01*
X89908Y-59082D01*
Y-59541D01*
X90368Y-60000D01*
X91286D01*
X91745Y-59541D01*
X95000Y-46745D02*
Y-48582D01*
X94082Y-49500D01*
X93163Y-48582D01*
Y-46745D01*
X92245D02*
Y-49500D01*
X90868D01*
X90408Y-49041D01*
Y-48582D01*
X90868Y-48123D01*
X92245D01*
X90868D01*
X90408Y-47663D01*
Y-47204D01*
X90868Y-46745D01*
X92245D01*
X89490Y-49500D02*
Y-47663D01*
X88572Y-46745D01*
X87653Y-47663D01*
Y-49500D01*
Y-48123D01*
X89490D01*
X86735Y-46745D02*
X84898D01*
X85817D01*
Y-49500D01*
X83980Y-48123D02*
X82143D01*
X83062Y-47204D02*
Y-49041D01*
X93163Y-37204D02*
X93622Y-36745D01*
X94541D01*
X95000Y-37204D01*
Y-39041D01*
X94541Y-39500D01*
X93622D01*
X93163Y-39041D01*
Y-38122D01*
X94082D01*
X92245Y-39500D02*
Y-36745D01*
X90408Y-39500D01*
Y-36745D01*
X89490D02*
Y-39500D01*
X88112D01*
X87653Y-39041D01*
Y-37204D01*
X88112Y-36745D01*
X89490D01*
D102*
X212976Y-20795D02*
G03*
X212976Y-20795I-1181J0D01*
G01*
X277071Y51390D02*
G03*
X277071Y51390I-1181J0D01*
G01*
M02*
