%FSLAX25Y25*%
%MOIN*%
G70*
G01*
G75*
G04 Layer_Physical_Order=1*
G04 Layer_Color=255*
%ADD10R,0.08661X0.05906*%
%ADD11O,0.00984X0.03347*%
%ADD12O,0.03150X0.01181*%
%ADD13O,0.01181X0.03150*%
%ADD14R,0.06299X0.06299*%
%ADD15R,0.03937X0.03543*%
%ADD16C,0.03000*%
G04:AMPARAMS|DCode=17|XSize=236.22mil|YSize=98.43mil|CornerRadius=24.61mil|HoleSize=0mil|Usage=FLASHONLY|Rotation=0.000|XOffset=0mil|YOffset=0mil|HoleType=Round|Shape=RoundedRectangle|*
%AMROUNDEDRECTD17*
21,1,0.23622,0.04921,0,0,0.0*
21,1,0.18701,0.09843,0,0,0.0*
1,1,0.04921,0.09350,-0.02461*
1,1,0.04921,-0.09350,-0.02461*
1,1,0.04921,-0.09350,0.02461*
1,1,0.04921,0.09350,0.02461*
%
%ADD17ROUNDEDRECTD17*%
G04:AMPARAMS|DCode=18|XSize=98.43mil|YSize=39.37mil|CornerRadius=9.84mil|HoleSize=0mil|Usage=FLASHONLY|Rotation=0.000|XOffset=0mil|YOffset=0mil|HoleType=Round|Shape=RoundedRectangle|*
%AMROUNDEDRECTD18*
21,1,0.09843,0.01969,0,0,0.0*
21,1,0.07874,0.03937,0,0,0.0*
1,1,0.01969,0.03937,-0.00984*
1,1,0.01969,-0.03937,-0.00984*
1,1,0.01969,-0.03937,0.00984*
1,1,0.01969,0.03937,0.00984*
%
%ADD18ROUNDEDRECTD18*%
G04:AMPARAMS|DCode=19|XSize=78.74mil|YSize=94.49mil|CornerRadius=19.69mil|HoleSize=0mil|Usage=FLASHONLY|Rotation=180.000|XOffset=0mil|YOffset=0mil|HoleType=Round|Shape=RoundedRectangle|*
%AMROUNDEDRECTD19*
21,1,0.07874,0.05512,0,0,180.0*
21,1,0.03937,0.09449,0,0,180.0*
1,1,0.03937,-0.01969,0.02756*
1,1,0.03937,0.01969,0.02756*
1,1,0.03937,0.01969,-0.02756*
1,1,0.03937,-0.01969,-0.02756*
%
%ADD19ROUNDEDRECTD19*%
%ADD20R,0.03543X0.03937*%
%ADD21R,0.03150X0.06693*%
%ADD22R,0.03150X0.04331*%
%ADD23R,0.09000X0.09000*%
%ADD24R,0.04331X0.05906*%
%ADD25R,0.05906X0.04331*%
G04:AMPARAMS|DCode=26|XSize=51.18mil|YSize=64.96mil|CornerRadius=12.8mil|HoleSize=0mil|Usage=FLASHONLY|Rotation=0.000|XOffset=0mil|YOffset=0mil|HoleType=Round|Shape=RoundedRectangle|*
%AMROUNDEDRECTD26*
21,1,0.05118,0.03937,0,0,0.0*
21,1,0.02559,0.06496,0,0,0.0*
1,1,0.02559,0.01280,-0.01969*
1,1,0.02559,-0.01280,-0.01969*
1,1,0.02559,-0.01280,0.01969*
1,1,0.02559,0.01280,0.01969*
%
%ADD26ROUNDEDRECTD26*%
G04:AMPARAMS|DCode=27|XSize=31.5mil|YSize=106.3mil|CornerRadius=7.87mil|HoleSize=0mil|Usage=FLASHONLY|Rotation=180.000|XOffset=0mil|YOffset=0mil|HoleType=Round|Shape=RoundedRectangle|*
%AMROUNDEDRECTD27*
21,1,0.03150,0.09055,0,0,180.0*
21,1,0.01575,0.10630,0,0,180.0*
1,1,0.01575,-0.00787,0.04528*
1,1,0.01575,0.00787,0.04528*
1,1,0.01575,0.00787,-0.04528*
1,1,0.01575,-0.00787,-0.04528*
%
%ADD27ROUNDEDRECTD27*%
G04:AMPARAMS|DCode=28|XSize=25.59mil|YSize=43.31mil|CornerRadius=6.4mil|HoleSize=0mil|Usage=FLASHONLY|Rotation=90.000|XOffset=0mil|YOffset=0mil|HoleType=Round|Shape=RoundedRectangle|*
%AMROUNDEDRECTD28*
21,1,0.02559,0.03051,0,0,90.0*
21,1,0.01280,0.04331,0,0,90.0*
1,1,0.01280,0.01526,0.00640*
1,1,0.01280,0.01526,-0.00640*
1,1,0.01280,-0.01526,-0.00640*
1,1,0.01280,-0.01526,0.00640*
%
%ADD28ROUNDEDRECTD28*%
%ADD29C,0.01181*%
%ADD30C,0.01969*%
%ADD31C,0.01000*%
%ADD32C,0.03937*%
%ADD33C,0.03902*%
%ADD34C,0.02953*%
%ADD35C,0.03543*%
G04:AMPARAMS|DCode=36|XSize=86.61mil|YSize=59.06mil|CornerRadius=0mil|HoleSize=0mil|Usage=FLASHONLY|Rotation=0.000|XOffset=0mil|YOffset=0mil|HoleType=Round|Shape=Octagon|*
%AMOCTAGOND36*
4,1,8,0.04331,-0.01476,0.04331,0.01476,0.02854,0.02953,-0.02854,0.02953,-0.04331,0.01476,-0.04331,-0.01476,-0.02854,-0.02953,0.02854,-0.02953,0.04331,-0.01476,0.0*
%
%ADD36OCTAGOND36*%

%ADD37P,0.05114X8X22.5*%
%ADD38C,0.13780*%
%ADD39C,0.05906*%
%ADD40R,0.05906X0.05906*%
%ADD41P,0.04261X8X22.5*%
%ADD42C,0.03937*%
%ADD43R,0.05906X0.05906*%
%ADD44C,0.01969*%
%ADD45C,0.02362*%
%ADD46C,0.04724*%
G36*
X24500Y-45500D02*
X18000D01*
Y-38000D01*
X15500D01*
Y-34000D01*
X24500D01*
Y-45500D01*
D02*
G37*
G36*
X8500Y-38000D02*
X1204D01*
Y-29500D01*
X8500D01*
Y-38000D01*
D02*
G37*
D10*
X12000Y-42000D02*
D03*
D11*
X15937Y-47905D02*
D03*
X13969D02*
D03*
X12000D02*
D03*
X10031D02*
D03*
X8063D02*
D03*
Y-36094D02*
D03*
X10031D02*
D03*
X12000D02*
D03*
X13969D02*
D03*
X15937D02*
D03*
D12*
X66405Y-43453D02*
D03*
Y-41484D02*
D03*
Y-39516D02*
D03*
Y-37547D02*
D03*
X54594D02*
D03*
Y-39516D02*
D03*
Y-41484D02*
D03*
Y-43453D02*
D03*
D13*
X63453Y-34595D02*
D03*
X61484D02*
D03*
X59516D02*
D03*
X57547D02*
D03*
Y-46406D02*
D03*
X59516D02*
D03*
X61484D02*
D03*
X63453D02*
D03*
D14*
X60500Y-40500D02*
D03*
D15*
X30700Y-56709D02*
D03*
Y-63402D02*
D03*
X187000Y48346D02*
D03*
Y41654D02*
D03*
Y54654D02*
D03*
Y61347D02*
D03*
X13122Y-56709D02*
D03*
Y-63402D02*
D03*
X19000Y-56709D02*
D03*
Y-63402D02*
D03*
X7122Y-56709D02*
D03*
Y-63402D02*
D03*
X67000Y-56709D02*
D03*
Y-63402D02*
D03*
X61000Y-56709D02*
D03*
Y-63402D02*
D03*
X49000Y-56709D02*
D03*
Y-63402D02*
D03*
X55000Y-56709D02*
D03*
Y-63402D02*
D03*
X36800D02*
D03*
Y-56709D02*
D03*
X42800Y-63346D02*
D03*
Y-56653D02*
D03*
X329000Y-49654D02*
D03*
Y-56346D02*
D03*
X82500Y66847D02*
D03*
Y60154D02*
D03*
X25000Y-63402D02*
D03*
Y-56709D02*
D03*
X324500Y-36402D02*
D03*
Y-29709D02*
D03*
X318500Y-29709D02*
D03*
Y-36402D02*
D03*
X294500Y-36402D02*
D03*
Y-29709D02*
D03*
X288500Y-29709D02*
D03*
Y-36402D02*
D03*
X312500Y-29709D02*
D03*
Y-36402D02*
D03*
X306500Y-29709D02*
D03*
Y-36402D02*
D03*
X300500Y-29709D02*
D03*
Y-36402D02*
D03*
X348000Y-26098D02*
D03*
Y-32791D02*
D03*
Y-40098D02*
D03*
Y-46791D02*
D03*
X354000Y-26098D02*
D03*
Y-32791D02*
D03*
Y-40098D02*
D03*
Y-46791D02*
D03*
X342000Y-32791D02*
D03*
Y-26098D02*
D03*
Y-46791D02*
D03*
Y-40098D02*
D03*
X88500Y66847D02*
D03*
Y60154D02*
D03*
X74500Y-56709D02*
D03*
Y-63402D02*
D03*
X86500Y-63346D02*
D03*
Y-56653D02*
D03*
X80500Y-63402D02*
D03*
Y-56709D02*
D03*
X92500Y-63346D02*
D03*
Y-56653D02*
D03*
D16*
X145500Y40500D02*
D03*
X164000Y66500D02*
D03*
D17*
X155189Y51500D02*
D03*
D18*
X178811Y56500D02*
D03*
Y46500D02*
D03*
D19*
X213374Y56945D02*
D03*
X197626D02*
D03*
D20*
X202346Y46445D02*
D03*
X195653D02*
D03*
X207653D02*
D03*
X214346D02*
D03*
X84654Y-38000D02*
D03*
X91347D02*
D03*
X314846Y38500D02*
D03*
X308154D02*
D03*
X93654Y23500D02*
D03*
X100347D02*
D03*
X286347Y24000D02*
D03*
X279654D02*
D03*
X93654Y29500D02*
D03*
X100347D02*
D03*
X286347Y30000D02*
D03*
X279654D02*
D03*
X314791Y57435D02*
D03*
X308099D02*
D03*
X314791Y63799D02*
D03*
X308099D02*
D03*
X314791Y51071D02*
D03*
X308098D02*
D03*
X314791Y44707D02*
D03*
X308099D02*
D03*
X210966Y-65555D02*
D03*
X217659D02*
D03*
X128841D02*
D03*
X135534D02*
D03*
X121846Y-65555D02*
D03*
X115154D02*
D03*
X149222D02*
D03*
X142528D02*
D03*
X156216Y-65555D02*
D03*
X162909D02*
D03*
X169653Y-65500D02*
D03*
X176347D02*
D03*
X189848D02*
D03*
X183155D02*
D03*
X197278Y-65555D02*
D03*
X203972D02*
D03*
X91347Y-44000D02*
D03*
X84654D02*
D03*
X65402Y53500D02*
D03*
X58709D02*
D03*
X65346Y47500D02*
D03*
X58653D02*
D03*
X326098Y41500D02*
D03*
X332791D02*
D03*
X325598Y64000D02*
D03*
X332291D02*
D03*
X332791Y34500D02*
D03*
X326098D02*
D03*
D21*
X57307Y68000D02*
D03*
X70693D02*
D03*
D22*
X64000Y61504D02*
D03*
D23*
X283500Y-15000D02*
D03*
Y15000D02*
D03*
X97500Y-15000D02*
D03*
Y15000D02*
D03*
D24*
X302563Y-49055D02*
D03*
X310437D02*
D03*
D25*
X280500Y-37492D02*
D03*
Y-29618D02*
D03*
D26*
X11417Y65748D02*
D03*
X39764D02*
D03*
X23228D02*
D03*
X39764Y34252D02*
D03*
X23228D02*
D03*
X341272Y15748D02*
D03*
X324736D02*
D03*
X341272Y-15748D02*
D03*
X324736D02*
D03*
X353083D02*
D03*
D27*
X35831Y-39500D02*
D03*
X27169D02*
D03*
D28*
X324720Y56587D02*
D03*
Y52846D02*
D03*
X324720Y49106D02*
D03*
X334169D02*
D03*
Y56587D02*
D03*
D29*
X19000Y-46100D02*
Y-43500D01*
X17195Y-47905D02*
X19000Y-46100D01*
X15937Y-47905D02*
X17195D01*
X36800Y-63402D02*
X42745D01*
X30700D02*
X36800D01*
X42745D02*
X42800Y-63346D01*
X19000Y-63402D02*
Y-61400D01*
X20400Y-60000D01*
X28900D01*
X30700Y-61800D01*
Y-63402D02*
Y-61800D01*
X36800Y-56709D02*
Y-51200D01*
X38000Y-50000D01*
X48500Y-33500D02*
X52547Y-37547D01*
X43600Y-33500D02*
X48500D01*
X52547Y-37547D02*
X54594D01*
X41000Y-31500D02*
X58221D01*
X38900Y-33600D02*
X41000Y-31500D01*
X38900Y-49100D02*
Y-33600D01*
X38000Y-50000D02*
X38900Y-49100D01*
X320500Y60000D02*
X321307D01*
X324720Y56587D01*
X327913D01*
X329500Y55000D01*
Y51000D02*
Y55000D01*
X327606Y49106D02*
X329500Y51000D01*
X324720Y49106D02*
X327606D01*
X332791Y34500D02*
X339000D01*
X305000Y38500D02*
X308154D01*
X303000Y36500D02*
X305000Y38500D01*
X306500Y-29709D02*
X318500D01*
X306500Y-29709D02*
Y-24500D01*
X304362Y-22362D02*
X306500Y-24500D01*
X304362Y-22362D02*
Y-1575D01*
X299638Y-28846D02*
Y-1575D01*
Y-28846D02*
X300500Y-29709D01*
X288500Y-29709D02*
Y-25500D01*
X310437Y-49055D02*
X315445D01*
X318500Y-46000D01*
Y-36402D01*
X298555Y-49055D02*
X302563D01*
X294500Y-45000D02*
X298555Y-49055D01*
X294500Y-45000D02*
Y-36402D01*
X280500Y-37492D02*
X281591Y-36402D01*
X288500D01*
X288500Y-36402D01*
X294500D01*
Y-29709D02*
X300500D01*
Y-30402D02*
Y-29709D01*
Y-30402D02*
X306500Y-36402D01*
X318500Y-36402D02*
X318500Y-36402D01*
X324500D01*
X339791Y-46791D02*
X342000D01*
X336500Y-43500D02*
X339791Y-46791D01*
X336500Y-43500D02*
Y-22500D01*
X334500Y-20500D02*
X336500Y-22500D01*
X329488Y-20500D02*
X334500D01*
X324736Y-15748D02*
X329488Y-20500D01*
X357098Y-37000D02*
X359000D01*
X354000Y-40098D02*
X357098Y-37000D01*
X342000Y-40098D02*
X348000D01*
X339791Y-32791D02*
X342000D01*
X338500Y-31500D02*
X339791Y-32791D01*
X338500Y-31500D02*
Y-18520D01*
X341272Y-15748D01*
X348500Y-17500D02*
X351331D01*
X353083Y-15748D01*
X354000Y-26098D02*
Y-22000D01*
X342000Y-26098D02*
X348000D01*
X257941Y42059D02*
X261000Y39000D01*
X273500D01*
X255000Y48000D02*
X261000Y42000D01*
X269500D01*
X273000Y65000D02*
X276000Y68000D01*
X224500Y65000D02*
X273000D01*
X19000Y-67500D02*
Y-63402D01*
X7122Y-67378D02*
Y-63402D01*
X228000Y48000D02*
X255000D01*
X230059Y42059D02*
X257941D01*
X230000Y42000D02*
X230059Y42059D01*
X245000Y-17000D02*
Y37500D01*
X279500Y36342D02*
Y51500D01*
X271500Y28343D02*
X279500Y36342D01*
X271500Y12500D02*
Y28343D01*
X254000Y-5000D02*
X271500Y12500D01*
X234500Y-500D02*
Y1000D01*
X274000Y24346D02*
X279654Y30000D01*
X274000Y10000D02*
Y24346D01*
X254000Y-10000D02*
X274000Y10000D01*
X232500Y-2500D02*
X234500Y-500D01*
X217500Y-2500D02*
X232500D01*
X212000Y3000D02*
X217500Y-2500D01*
X184000Y3000D02*
X212000D01*
X219642Y858D02*
X228858D01*
X214000Y6500D02*
X219642Y858D01*
X171000Y6500D02*
X214000D01*
X165032Y12468D02*
X171000Y6500D01*
X171784Y8500D02*
X215500D01*
X165847Y14437D02*
X171784Y8500D01*
X172568Y10500D02*
X216500D01*
X166662Y16406D02*
X172568Y10500D01*
X173352Y12500D02*
X221000D01*
X167478Y18374D02*
X173352Y12500D01*
X215500Y8500D02*
X220500Y3500D01*
X216500Y10500D02*
X219563Y7437D01*
X221000Y12500D02*
X223500Y10000D01*
X220500Y3500D02*
X228000D01*
X219563Y7437D02*
X228437D01*
X229000Y8000D01*
X201000Y22500D02*
Y35500D01*
X204500Y39000D01*
X210000D01*
X214346Y43346D01*
Y46445D01*
X195653Y40346D02*
Y46445D01*
Y40346D02*
X197000Y39000D01*
X179500Y43000D02*
X187000Y35500D01*
Y30500D02*
Y35500D01*
X183500Y22000D02*
Y35500D01*
X189347Y41654D02*
X192000Y39000D01*
X187000Y41654D02*
X189347D01*
X120216Y32500D02*
X160500D01*
X113685Y39031D02*
X120216Y32500D01*
X109185Y39031D02*
X113685D01*
X103032Y45185D02*
X109185Y39031D01*
X119500Y36000D02*
X160500D01*
X105000Y46000D02*
X110000Y41000D01*
X114500D02*
X119500Y36000D01*
X110000Y41000D02*
X114500D01*
X103032Y45185D02*
Y48469D01*
X97500Y54000D02*
X103032Y48469D01*
X75500Y54000D02*
X97500D01*
X105000Y46000D02*
Y50000D01*
X98000Y57000D02*
X105000Y50000D01*
X142500Y40500D02*
X145500D01*
X137126Y18374D02*
X167478D01*
X123500Y54618D02*
Y64500D01*
Y54618D02*
X133559Y44559D01*
Y42941D02*
Y44559D01*
Y42941D02*
X134500Y42000D01*
Y15500D02*
X139932D01*
X140838Y16406D01*
X166662D01*
X113500Y58881D02*
Y64500D01*
Y58881D02*
X130381Y42000D01*
X131000D01*
Y12500D02*
X139716D01*
X141653Y14437D01*
X165847D01*
X228000Y3500D02*
X229000Y4500D01*
X119500Y10500D02*
X120500Y9500D01*
X139500D01*
X142469Y12468D01*
X165032D01*
X59500Y57000D02*
X98000D01*
X58709Y56209D02*
X59500Y57000D01*
X58709Y53500D02*
Y56209D01*
X54500Y54000D02*
Y63000D01*
Y54000D02*
X55000Y53500D01*
X58709D01*
X64000Y61504D02*
X68496D01*
X63803D02*
X64000D01*
X57307Y68000D02*
X63803Y61504D01*
X88500Y66847D02*
X92847D01*
X81346Y68000D02*
X82500Y66847D01*
X70693Y68000D02*
X81346D01*
X7000D02*
X9165D01*
X11417Y65748D01*
X58653Y43154D02*
Y47500D01*
X49500Y68000D02*
X54500Y63000D01*
X42016Y68000D02*
X49500D01*
X39764Y65748D02*
X42016Y68000D01*
X18500D02*
X20976D01*
X23228Y65748D01*
X65346Y47500D02*
X65402Y47555D01*
Y53500D01*
X18752Y34252D02*
X23228D01*
X17500Y33000D02*
X18752Y34252D01*
X53000Y34000D02*
X72418D01*
X75918Y30500D01*
X79500D01*
X82000Y28000D01*
X89000D01*
X82500Y60154D02*
X88500D01*
X78154D02*
X82500D01*
X78000Y60000D02*
X78154Y60154D01*
X93532Y5531D02*
X145531D01*
X147000Y7000D01*
X110500Y7500D02*
X142000D01*
X108000Y10000D02*
X110500Y7500D01*
X108000Y10000D02*
Y27000D01*
X142000Y7500D02*
X145000Y10500D01*
X160000D01*
X100347Y29500D02*
X105500D01*
X108000Y27000D01*
X160000Y10500D02*
X163000Y7500D01*
X100347Y23500D02*
X104000D01*
X93654D02*
Y29500D01*
X166000Y-1500D02*
X205500D01*
X164752Y-252D02*
X166000Y-1500D01*
X82500Y-252D02*
X164752D01*
X166500Y-6500D02*
X200000D01*
X164874Y-8126D02*
X166500Y-6500D01*
X82500Y-8126D02*
X164874D01*
X168637Y-9363D02*
X213637D01*
X167000Y-11000D02*
X168637Y-9363D01*
X138500Y-11000D02*
X167000D01*
X286347Y24000D02*
Y30000D01*
X295000Y15000D02*
X297000Y17000D01*
X283500Y15000D02*
X295000D01*
X135534Y-65555D02*
Y-61034D01*
X142528Y-65555D02*
Y-61028D01*
X162909Y-65555D02*
Y-61091D01*
X171153Y-61154D02*
X172000D01*
X176347Y-65500D01*
X217659Y-65555D02*
X222445D01*
X130500Y-31000D02*
X145500D01*
X12000Y-42000D02*
Y-36094D01*
Y-42000D02*
X13969Y-43968D01*
Y-47905D02*
Y-43968D01*
X58531Y-38532D02*
X60500Y-40500D01*
X57547Y-37547D02*
X58531Y-38532D01*
X57547Y-37547D02*
Y-34595D01*
X59516Y-34595D02*
Y-32795D01*
X58221Y-31500D02*
X59516Y-32795D01*
X214000Y-9000D02*
Y-8500D01*
X213637Y-9363D02*
X214000Y-9000D01*
X135000Y-51000D02*
X150000D01*
X129000Y-57000D02*
X135000Y-51000D01*
X118500Y-57000D02*
X129000D01*
X113500Y-62000D02*
X118500Y-57000D01*
X106854Y-62000D02*
X113500D01*
X100854Y-68000D02*
X106854Y-62000D01*
X88000Y-68000D02*
X100854D01*
X86500Y-66500D02*
X88000Y-68000D01*
X86500Y-66500D02*
Y-63346D01*
X108555Y-65555D02*
X115154D01*
X161784Y-30000D02*
X181500D01*
X152315Y-20531D02*
X161784Y-30000D01*
X103032Y-20531D02*
X152315D01*
X97500Y-15000D02*
X103032Y-20531D01*
X167500Y-38500D02*
X177000D01*
X151500Y-22500D02*
X167500Y-38500D01*
X97000Y-22500D02*
X151500D01*
X92000Y-27500D02*
X97000Y-22500D01*
X214346Y46445D02*
Y55972D01*
X213374Y56945D02*
X214346Y55972D01*
X195653Y46445D02*
Y54972D01*
X197626Y56945D01*
X178500Y40500D02*
X183500Y35500D01*
X172500Y40500D02*
X178500D01*
X170031Y42968D02*
X172500Y40500D01*
X170031Y48815D02*
X177716Y56500D01*
X178811D01*
X170031Y42968D02*
Y48815D01*
X178811Y56500D02*
X183658Y61347D01*
X187000D01*
Y51500D02*
Y54654D01*
Y48346D02*
Y51500D01*
X173500Y43000D02*
X179500D01*
X172000Y44500D02*
X173500Y43000D01*
X172000Y44500D02*
Y48000D01*
X175500Y51500D01*
X187000D01*
X183658Y41654D02*
X187000D01*
X178811Y46500D02*
X183658Y41654D01*
X219587Y-50500D02*
X225433Y-56346D01*
X206000Y-50500D02*
X219587D01*
X222551Y-47559D02*
X231339Y-56346D01*
X206449Y-47559D02*
X222551D01*
X205890Y-47000D02*
X206449Y-47559D01*
X244600Y-23000D02*
X246500D01*
X244468Y-22869D02*
X244600Y-23000D01*
X240401Y-22869D02*
X244468D01*
X238706Y-21174D02*
X240401Y-22869D01*
X188731Y-21174D02*
X238706D01*
X186905Y-23000D02*
X188731Y-21174D01*
X176500Y-23000D02*
X186905D01*
X243300Y-20900D02*
X244600D01*
X174600D02*
X186221D01*
X243268Y-20868D02*
X243300Y-20900D01*
X241185Y-20868D02*
X243268D01*
X239522Y-19206D02*
X241185Y-20868D01*
X187915Y-19206D02*
X239522D01*
X186221Y-20900D02*
X187915Y-19206D01*
X171000Y-24500D02*
X174600Y-20900D01*
X244600D02*
X247031Y-18469D01*
X243100Y-18900D02*
X245000Y-17000D01*
X242000Y-18900D02*
X243100D01*
X240337Y-17237D02*
X242000Y-18900D01*
X187100Y-17237D02*
X240337D01*
X185437Y-18900D02*
X187100Y-17237D01*
X173600Y-18900D02*
X185437D01*
X171500Y-21000D02*
X173600Y-18900D01*
X251000Y-15300D02*
Y12500D01*
Y-15300D02*
X251100Y-15400D01*
X242369Y-15269D02*
X242400Y-15300D01*
X183932Y-15269D02*
X242369D01*
X183300Y-15900D02*
X183932Y-15269D01*
X246500Y-23000D02*
X249000Y-20500D01*
X239169Y-11332D02*
X241000Y-9500D01*
X172669Y-11332D02*
X239169D01*
X240700Y-13300D02*
X243000Y-11000D01*
X169000Y-15000D02*
X172669Y-11332D01*
X175700Y-13300D02*
X240700D01*
X170941Y-18059D02*
X175700Y-13300D01*
X172000Y-27500D02*
X176500Y-23000D01*
X166000Y-21000D02*
X171500D01*
X167940Y-18059D02*
X170941D01*
X165000Y-15119D02*
X167940Y-18059D01*
X165000Y-15119D02*
Y-15000D01*
X169000Y-15500D02*
Y-15000D01*
X89059Y-3941D02*
X202441D01*
X204500Y-6000D01*
X89000Y-4000D02*
X89059Y-3941D01*
X205500Y-1500D02*
X206500Y-2500D01*
X251000Y12500D02*
X258000Y19500D01*
X247031Y29032D02*
X257000Y39000D01*
X247031Y-18469D02*
Y29032D01*
X249000Y27000D02*
X257000Y35000D01*
X249000Y-20500D02*
Y27000D01*
X240500Y38000D02*
X243000Y35500D01*
Y-11000D02*
Y35500D01*
X236500Y38500D02*
X241000Y34000D01*
Y-9500D02*
Y34000D01*
X236500Y38500D02*
Y39500D01*
X240500Y38000D02*
Y39500D01*
X170000Y-27500D02*
X172000D01*
X167500Y-25000D02*
X170000Y-27500D01*
X167500Y-25000D02*
Y-24500D01*
X66405Y-43453D02*
X69453D01*
X71000Y-45000D01*
Y-52000D02*
Y-45000D01*
X74500Y-56709D02*
X80500D01*
Y-57346D02*
Y-56709D01*
Y-57346D02*
X86500Y-63346D01*
X67000Y-56709D02*
Y-52500D01*
X63453Y-48953D02*
X67000Y-52500D01*
X63453Y-48953D02*
Y-46406D01*
X61000Y-56709D02*
X61484Y-56224D01*
Y-46406D01*
X55000Y-56709D02*
Y-54500D01*
X59516Y-49984D01*
Y-46406D01*
X59516Y-34595D02*
X59516Y-34595D01*
X10031Y-36094D02*
Y-31468D01*
X11500Y-30000D01*
X29500D01*
X35831Y-36331D01*
Y-39500D02*
Y-36331D01*
X14500Y-32500D02*
X25500D01*
X13969Y-33031D02*
X14500Y-32500D01*
X13969Y-36094D02*
Y-33031D01*
X25500Y-32500D02*
X27169Y-34169D01*
Y-39500D02*
Y-34169D01*
D30*
X30700Y-56709D02*
Y-51700D01*
X25000Y-67400D02*
Y-63402D01*
X308098Y51071D02*
X308099Y51071D01*
Y44707D02*
Y51071D01*
X298500Y36500D02*
Y38500D01*
X300500Y40500D01*
X303891D01*
X308099Y44707D01*
Y63799D02*
Y68401D01*
X320500Y36000D02*
Y38500D01*
X323500Y41500D01*
X326098D01*
X326098Y29598D02*
Y34500D01*
X332791Y41500D02*
X334169Y42878D01*
Y49106D01*
X340000Y47000D02*
Y53500D01*
X336913Y56587D02*
X340000Y53500D01*
X334169Y56587D02*
X336913D01*
X334169D02*
Y62122D01*
X332291Y64000D02*
X334169Y62122D01*
X320000Y54500D02*
Y55500D01*
Y54500D02*
X321654Y52846D01*
X324720D01*
X320500Y64000D02*
X325598D01*
X329000Y-49654D02*
Y-46000D01*
X13122Y-67378D02*
Y-63402D01*
X153500Y64500D02*
X155500Y66500D01*
X164000D01*
X329000Y-60000D02*
Y-56346D01*
X326709Y-27500D02*
X329000D01*
X324500Y-29709D02*
X326709Y-27500D01*
X275000Y-27000D02*
X277882D01*
X280500Y-29618D01*
X101154Y-48000D02*
X103000D01*
X92500Y-56653D02*
X101154Y-48000D01*
X86500Y-56653D02*
Y-55500D01*
X71500Y-40500D02*
X86500Y-55500D01*
X68984Y-40500D02*
X71500D01*
X92500Y-63346D02*
X96846D01*
X86500Y-56653D02*
X86500Y-56653D01*
X92500D01*
D31*
X42800Y-56653D02*
Y-51000D01*
X41900Y-50100D02*
X42800Y-51000D01*
X41900Y-35200D02*
X43600Y-33500D01*
X41900Y-50100D02*
Y-35200D01*
X46000Y-37500D02*
X48016Y-39516D01*
X46016Y-41484D02*
X54594D01*
X48016Y-39516D02*
X54594D01*
X312000Y-13500D02*
X318000Y-19500D01*
Y-21500D02*
Y-19500D01*
X354000Y-32791D02*
X358791D01*
X310213Y-17713D02*
Y18760D01*
Y-17713D02*
X314000Y-21500D01*
X354000Y-46791D02*
X358791D01*
X341000Y16020D02*
X341272Y15748D01*
X341000Y16020D02*
Y23500D01*
X300500Y-40500D02*
Y-36402D01*
X312500Y-41000D02*
Y-36402D01*
X348000Y-46791D02*
X348000Y-46791D01*
X354000D01*
X354000Y-32791D02*
X354000Y-32791D01*
X348000Y-32791D02*
X354000D01*
X312000Y-13500D02*
Y19500D01*
X292787Y38713D02*
X312000Y19500D01*
X292787Y38713D02*
Y59713D01*
X292500Y60000D02*
X292787Y59713D01*
X289213Y37232D02*
X308425Y18019D01*
X283713Y51760D02*
X289213Y46260D01*
Y37232D02*
Y46260D01*
X285500Y52500D02*
X291000Y47000D01*
Y37972D02*
Y47000D01*
Y37972D02*
X310213Y18760D01*
X280000Y55500D02*
X283713Y51787D01*
Y51760D02*
Y51787D01*
X285500Y52500D02*
Y60500D01*
X308425Y-21575D02*
Y18019D01*
X301534Y64000D02*
X308099Y57435D01*
X279405Y64000D02*
X301534D01*
X271953Y56547D02*
X279405Y64000D01*
X265500Y46500D02*
X271500D01*
X276941Y41059D01*
Y39441D02*
Y41059D01*
X254500Y28000D02*
X262500Y36000D01*
X265500D01*
X168122Y378D02*
X207622D01*
X166000Y2500D02*
X168122Y378D01*
X122000Y2500D02*
X166000D01*
X279654Y23154D02*
Y24000D01*
X277000Y20500D02*
X279654Y23154D01*
X276500Y-15000D02*
X283500D01*
X266500Y-25000D02*
X276500Y-15000D01*
X217000Y-25000D02*
X266500D01*
X215000Y-27000D02*
X217000Y-25000D01*
X215000Y-34500D02*
Y-27000D01*
X209500Y-6500D02*
X209746Y-6746D01*
X209500Y-6500D02*
Y-1500D01*
X207622Y378D02*
X209500Y-1500D01*
X109500Y-40000D02*
Y-30500D01*
X94500Y-44000D02*
X95500Y-43000D01*
X91347Y-44000D02*
X94500D01*
X61500Y-34579D02*
Y-31000D01*
X61484Y-34595D02*
X61500Y-34579D01*
X65000Y-31500D02*
X72000D01*
X63453Y-33047D02*
X65000Y-31500D01*
X63453Y-34595D02*
Y-33047D01*
X72000Y-31500D02*
X77500Y-37000D01*
X153500Y-37500D02*
X156500Y-40500D01*
X113500Y-37500D02*
X153500D01*
X110000Y-52000D02*
Y-50500D01*
X115500Y-45000D01*
X172500Y-42000D02*
X173000Y-41500D01*
X168000Y-42000D02*
X172500D01*
X153500Y-27500D02*
X168000Y-42000D01*
X102000Y-27500D02*
X153500D01*
X113500Y-41000D02*
X153000D01*
X66405Y-37547D02*
X72047D01*
X84000Y-49500D01*
X94000D01*
X100500Y-43000D01*
X111500D01*
X113500Y-41000D01*
X112500Y-33500D02*
X152500D01*
X160000Y-41000D01*
X156500D02*
Y-40500D01*
X115500Y-45000D02*
X149000D01*
X160000Y-51000D02*
X201500D01*
X149000Y-45000D02*
X150469Y-43532D01*
X162031D01*
X162713Y-44213D01*
X190787D01*
X195000Y-40000D01*
X153000Y-46000D02*
X195000D01*
X156500Y-48500D02*
X198000D01*
X182773Y-60930D02*
X188798D01*
X178189Y-56346D02*
X182773Y-60930D01*
X188798D02*
X189848Y-61980D01*
Y-65500D02*
Y-61980D01*
X183133Y-65478D02*
X183155Y-65500D01*
X180027Y-65478D02*
X183133D01*
X180027D02*
X180087Y-65418D01*
X190000Y-56346D02*
X194525Y-60871D01*
X202468D01*
X121846Y-65555D02*
X122000Y-65402D01*
Y-61000D01*
X134153Y-56346D02*
X142756D01*
X128841Y-61659D02*
X134153Y-56346D01*
X128841Y-65555D02*
Y-61659D01*
X149222Y-65555D02*
Y-61692D01*
X154567Y-56346D01*
X156216Y-65555D02*
Y-60603D01*
X160473Y-56346D01*
X166378Y-62224D02*
X169653Y-65500D01*
X166378Y-62224D02*
Y-56346D01*
X197230Y-65506D02*
X197278Y-65555D01*
X193960Y-65506D02*
X197230D01*
X203972Y-65555D02*
Y-62375D01*
X202468Y-60871D02*
X203972Y-62375D01*
X210966Y-65555D02*
Y-60880D01*
X210975Y-60871D01*
X236500Y-45000D02*
X254000Y-62500D01*
X223500Y-45000D02*
X236500D01*
X235528Y-41500D02*
X254740Y-60713D01*
X223500Y-41500D02*
X235528D01*
X234556Y-38000D02*
X254556Y-58000D01*
X223500Y-38000D02*
X234556D01*
X253500Y-34500D02*
X276500Y-57500D01*
X223500Y-34500D02*
X253500D01*
X276500Y-57500D02*
X298000D01*
X254556Y-58000D02*
X264500D01*
X314500Y-65500D02*
X315000Y-65000D01*
X264500Y-65500D02*
X314500D01*
X264500Y-58000D02*
Y-57500D01*
X254740Y-60713D02*
X293287D01*
X294000Y-60000D01*
X306000Y-62500D02*
X307000Y-61500D01*
X254000Y-62500D02*
X306000D01*
X68984Y-40500D02*
Y-39516D01*
Y-41484D02*
Y-40500D01*
X66405Y-39516D02*
X68984D01*
X66405Y-41484D02*
X68984D01*
X4594Y-47905D02*
X8063D01*
X19000Y-56709D02*
Y-54000D01*
X17500Y-52500D02*
X19000Y-54000D01*
X13500Y-52500D02*
X17500D01*
X12000Y-51000D02*
X13500Y-52500D01*
X12000Y-51000D02*
Y-47905D01*
X7122Y-56709D02*
X10000D01*
X13122D01*
X10000D02*
X10031Y-56677D01*
Y-47905D01*
X49000Y-56709D02*
Y-46000D01*
X51547Y-43453D01*
X54594D01*
X52595Y-46406D02*
X57547D01*
X19000Y-56709D02*
X25000D01*
D32*
X314791Y57435D02*
Y63799D01*
Y68291D01*
Y51071D02*
Y57435D01*
Y44707D02*
Y51071D01*
Y27209D02*
Y44707D01*
X82500Y15496D02*
X97004D01*
X97500Y15000D01*
X91347Y-38000D02*
X103000D01*
X74500Y-63402D02*
X80500D01*
X67000D02*
X74500D01*
X61000D02*
X67000D01*
X55000D02*
X61000D01*
X49000D02*
X55000D01*
X205000Y43500D02*
Y46445D01*
X82500Y-35846D02*
Y-16000D01*
Y-35846D02*
X84654Y-38000D01*
Y-44000D02*
Y-38000D01*
D33*
X138500Y46504D02*
D03*
Y54496D02*
D03*
X108500Y50500D02*
D03*
D34*
X64000Y68000D02*
D03*
D35*
X110866Y33417D02*
D03*
Y-57528D02*
D03*
X269134Y33417D02*
D03*
Y-57528D02*
D03*
D36*
X258110Y-49850D02*
D03*
X121890D02*
D03*
D37*
X142756Y-56346D02*
D03*
X148661D02*
D03*
X154567D02*
D03*
X160473D02*
D03*
X166378D02*
D03*
X172283D02*
D03*
X178189D02*
D03*
X184095D02*
D03*
X190000D02*
D03*
X195905D02*
D03*
X201811D02*
D03*
X207716D02*
D03*
X213622D02*
D03*
X219528D02*
D03*
X225433D02*
D03*
X231339D02*
D03*
X237244D02*
D03*
D38*
X350394Y-59055D02*
D03*
Y59055D02*
D03*
X78740Y39370D02*
D03*
D39*
X95000Y47874D02*
D03*
X82500Y-8126D02*
D03*
Y-252D02*
D03*
Y7622D02*
D03*
Y15496D02*
D03*
X102000Y-27500D02*
D03*
X153500Y64500D02*
D03*
X143500D02*
D03*
X133500D02*
D03*
X123500D02*
D03*
X113500D02*
D03*
X103000Y-38000D02*
D03*
Y-48000D02*
D03*
D40*
X95000Y40000D02*
D03*
X82500Y-16000D02*
D03*
X103000Y-58000D02*
D03*
D41*
X299638Y-1575D02*
D03*
D42*
X304362D02*
D03*
D43*
X92000Y-27500D02*
D03*
X103500Y64500D02*
D03*
D44*
X12000Y-42000D02*
D03*
X9047Y-43378D02*
D03*
Y-40622D02*
D03*
X14953D02*
D03*
Y-43378D02*
D03*
X58531Y-38532D02*
D03*
X62468D02*
D03*
Y-42469D02*
D03*
X58531D02*
D03*
X60500Y-40500D02*
D03*
D45*
X25000Y-67400D02*
D03*
X41900Y-50100D02*
D03*
X210653Y26153D02*
D03*
X298500Y36500D02*
D03*
X308099Y68401D02*
D03*
X320500Y36000D02*
D03*
X326098Y29598D02*
D03*
X340000Y47000D02*
D03*
X320500Y60000D02*
D03*
X320000Y55500D02*
D03*
X320500Y64000D02*
D03*
X314791Y68291D02*
D03*
Y27209D02*
D03*
X339000Y34500D02*
D03*
X303000Y36500D02*
D03*
X318000Y-21500D02*
D03*
X358791Y-32791D02*
D03*
X314000Y-21500D02*
D03*
X358791Y-46791D02*
D03*
X329000Y-46000D02*
D03*
X341000Y23500D02*
D03*
X300500Y-40500D02*
D03*
X312500Y-41000D02*
D03*
X308425Y-21575D02*
D03*
X288500Y-25500D02*
D03*
X359000Y-37000D02*
D03*
X348500Y-17500D02*
D03*
X354000Y-22000D02*
D03*
X292500Y60000D02*
D03*
X285500Y60500D02*
D03*
X280000Y55500D02*
D03*
X271953Y56547D02*
D03*
X265500Y46500D02*
D03*
X276941Y39441D02*
D03*
X273500Y39000D02*
D03*
X254500Y28000D02*
D03*
X265500Y36000D02*
D03*
X269500Y42000D02*
D03*
X262000Y45500D02*
D03*
X298000Y54500D02*
D03*
X251000Y62000D02*
D03*
X272000Y68000D02*
D03*
X282500D02*
D03*
X265000D02*
D03*
X255783Y62217D02*
D03*
X245000Y55500D02*
D03*
X30700Y-51700D02*
D03*
X19000Y-67500D02*
D03*
X7122Y-67378D02*
D03*
X13122D02*
D03*
X228000Y48000D02*
D03*
X230000Y42000D02*
D03*
X276500Y47500D02*
D03*
X301500Y54500D02*
D03*
X236500Y45000D02*
D03*
X245000Y37500D02*
D03*
X233154Y59346D02*
D03*
X239846Y59346D02*
D03*
X238000Y16000D02*
D03*
X264000Y33000D02*
D03*
X263500Y21000D02*
D03*
X267000D02*
D03*
X273500Y34500D02*
D03*
X279500Y51500D02*
D03*
X254000Y-5000D02*
D03*
X234500Y1000D02*
D03*
X254000Y-10000D02*
D03*
X184000Y3000D02*
D03*
X236500Y-5500D02*
D03*
X234000Y-8500D02*
D03*
X215047Y-5047D02*
D03*
X221500Y36000D02*
D03*
Y30000D02*
D03*
X201000Y22500D02*
D03*
X197000Y39000D02*
D03*
X195000Y21000D02*
D03*
X193654Y34347D02*
D03*
X187000Y30500D02*
D03*
X183500Y22000D02*
D03*
X192000Y39000D02*
D03*
X171555Y66945D02*
D03*
X276000Y68000D02*
D03*
X224500Y65000D02*
D03*
X160500Y32500D02*
D03*
X75500Y54000D02*
D03*
X160500Y36000D02*
D03*
X176347Y31346D02*
D03*
X171500Y21000D02*
D03*
X137126Y18374D02*
D03*
X142500Y40500D02*
D03*
X223500Y10000D02*
D03*
X134500Y42000D02*
D03*
Y15500D02*
D03*
X229000Y8000D02*
D03*
X131000Y42000D02*
D03*
Y12500D02*
D03*
X229000Y4500D02*
D03*
X119500Y10500D02*
D03*
X228858Y858D02*
D03*
X140000Y50500D02*
D03*
X118500Y57500D02*
D03*
X68496Y61504D02*
D03*
X92847Y66847D02*
D03*
X7000Y68000D02*
D03*
X58653Y43154D02*
D03*
X18500Y68000D02*
D03*
X17500Y33000D02*
D03*
X53000Y34000D02*
D03*
X89000Y28000D02*
D03*
X78000Y60000D02*
D03*
X93532Y5531D02*
D03*
X147000Y7000D02*
D03*
X163000Y7500D02*
D03*
X104000Y23500D02*
D03*
X277000Y20500D02*
D03*
X297000Y17000D02*
D03*
X290500Y10500D02*
D03*
X272930Y430D02*
D03*
X266000Y-16000D02*
D03*
X259500Y-16055D02*
D03*
X329000Y-60000D02*
D03*
Y-27500D02*
D03*
X311055Y-54445D02*
D03*
X274933Y-51567D02*
D03*
X275000Y-27000D02*
D03*
X215000Y-34500D02*
D03*
X252346Y-40653D02*
D03*
X218000Y-44500D02*
D03*
X135534Y-61034D02*
D03*
X142528Y-61028D02*
D03*
X162909Y-61091D02*
D03*
X171153Y-61154D02*
D03*
X222445Y-65555D02*
D03*
X209746Y-6746D02*
D03*
X122000Y2500D02*
D03*
X130500Y-31000D02*
D03*
X109500Y-30500D02*
D03*
Y-40000D02*
D03*
X95500Y-43000D02*
D03*
X143000Y-48000D02*
D03*
X138500Y-11000D02*
D03*
X145500Y-31000D02*
D03*
X38000Y-50000D02*
D03*
X61500Y-31000D02*
D03*
X112500Y-33500D02*
D03*
X77500Y-37000D02*
D03*
X113500Y-37500D02*
D03*
X110000Y-52000D02*
D03*
X214000Y-8500D02*
D03*
X150000Y-51000D02*
D03*
X108555Y-65555D02*
D03*
X181500Y-30000D02*
D03*
X177000Y-38500D02*
D03*
X173000Y-41500D02*
D03*
X96846Y-63346D02*
D03*
X160000Y-41000D02*
D03*
Y-51000D02*
D03*
X156500Y-41000D02*
D03*
X153000D02*
D03*
X156500Y-48500D02*
D03*
X153000Y-46000D02*
D03*
X195000Y-40000D02*
D03*
Y-46000D02*
D03*
X198000Y-48500D02*
D03*
X201500Y-51000D02*
D03*
X207500Y-24000D02*
D03*
X190500D02*
D03*
X71000Y-63500D02*
D03*
X205000Y43500D02*
D03*
X206000Y-50500D02*
D03*
X205890Y-47000D02*
D03*
X194079Y-24021D02*
D03*
X211300Y-24100D02*
D03*
X251600Y-15400D02*
D03*
X242400Y-15300D02*
D03*
X183300Y-15900D02*
D03*
X180087Y-65418D02*
D03*
X122000Y-61000D02*
D03*
X193960Y-65506D02*
D03*
X210975Y-60871D02*
D03*
X223500Y-45000D02*
D03*
Y-41500D02*
D03*
Y-38000D02*
D03*
Y-34500D02*
D03*
X169000Y-15500D02*
D03*
X204500Y-6000D02*
D03*
X89000Y-4000D02*
D03*
X200000Y-6500D02*
D03*
X206500Y-2500D02*
D03*
X298000Y-57500D02*
D03*
X315000Y-65000D02*
D03*
X264500Y-65500D02*
D03*
Y-57500D02*
D03*
X294000Y-60000D02*
D03*
X307000Y-61500D02*
D03*
X302394Y-54394D02*
D03*
X258000Y19500D02*
D03*
X236500Y39500D02*
D03*
X240500D02*
D03*
X257000Y39000D02*
D03*
Y35000D02*
D03*
X165000Y-15000D02*
D03*
X166000Y-21000D02*
D03*
X167500Y-24500D02*
D03*
X171000D02*
D03*
X71000Y-52000D02*
D03*
X22500Y-43500D02*
D03*
X19000D02*
D03*
X22500Y-40000D02*
D03*
X19000D02*
D03*
X22500Y-36000D02*
D03*
X19000D02*
D03*
X4594Y-47905D02*
D03*
X46000Y-37500D02*
D03*
X46016Y-41484D02*
D03*
X52595Y-46406D02*
D03*
X4500Y-36000D02*
D03*
Y-32000D02*
D03*
D46*
X300500Y45000D02*
D03*
X154000Y6500D02*
D03*
X157000Y-15000D02*
D03*
X112598Y-15598D02*
D03*
M02*
