%FSLAX25Y25*%
%MOIN*%
G70*
G01*
G75*
G04 Layer_Color=8388736*
%ADD10R,0.08661X0.05906*%
%ADD11O,0.00984X0.03347*%
%ADD12O,0.03150X0.01181*%
%ADD13O,0.01181X0.03150*%
%ADD14R,0.06299X0.06299*%
%ADD15R,0.03937X0.03543*%
%ADD16C,0.03000*%
G04:AMPARAMS|DCode=17|XSize=236.22mil|YSize=98.43mil|CornerRadius=24.61mil|HoleSize=0mil|Usage=FLASHONLY|Rotation=0.000|XOffset=0mil|YOffset=0mil|HoleType=Round|Shape=RoundedRectangle|*
%AMROUNDEDRECTD17*
21,1,0.23622,0.04921,0,0,0.0*
21,1,0.18701,0.09843,0,0,0.0*
1,1,0.04921,0.09350,-0.02461*
1,1,0.04921,-0.09350,-0.02461*
1,1,0.04921,-0.09350,0.02461*
1,1,0.04921,0.09350,0.02461*
%
%ADD17ROUNDEDRECTD17*%
G04:AMPARAMS|DCode=18|XSize=98.43mil|YSize=39.37mil|CornerRadius=9.84mil|HoleSize=0mil|Usage=FLASHONLY|Rotation=0.000|XOffset=0mil|YOffset=0mil|HoleType=Round|Shape=RoundedRectangle|*
%AMROUNDEDRECTD18*
21,1,0.09843,0.01969,0,0,0.0*
21,1,0.07874,0.03937,0,0,0.0*
1,1,0.01969,0.03937,-0.00984*
1,1,0.01969,-0.03937,-0.00984*
1,1,0.01969,-0.03937,0.00984*
1,1,0.01969,0.03937,0.00984*
%
%ADD18ROUNDEDRECTD18*%
G04:AMPARAMS|DCode=19|XSize=78.74mil|YSize=94.49mil|CornerRadius=19.69mil|HoleSize=0mil|Usage=FLASHONLY|Rotation=180.000|XOffset=0mil|YOffset=0mil|HoleType=Round|Shape=RoundedRectangle|*
%AMROUNDEDRECTD19*
21,1,0.07874,0.05512,0,0,180.0*
21,1,0.03937,0.09449,0,0,180.0*
1,1,0.03937,-0.01969,0.02756*
1,1,0.03937,0.01969,0.02756*
1,1,0.03937,0.01969,-0.02756*
1,1,0.03937,-0.01969,-0.02756*
%
%ADD19ROUNDEDRECTD19*%
%ADD20R,0.03543X0.03937*%
%ADD21R,0.03150X0.06693*%
%ADD22R,0.03150X0.04331*%
%ADD23R,0.09000X0.09000*%
%ADD24R,0.04331X0.05906*%
%ADD25R,0.05906X0.04331*%
G04:AMPARAMS|DCode=26|XSize=51.18mil|YSize=64.96mil|CornerRadius=12.8mil|HoleSize=0mil|Usage=FLASHONLY|Rotation=0.000|XOffset=0mil|YOffset=0mil|HoleType=Round|Shape=RoundedRectangle|*
%AMROUNDEDRECTD26*
21,1,0.05118,0.03937,0,0,0.0*
21,1,0.02559,0.06496,0,0,0.0*
1,1,0.02559,0.01280,-0.01969*
1,1,0.02559,-0.01280,-0.01969*
1,1,0.02559,-0.01280,0.01969*
1,1,0.02559,0.01280,0.01969*
%
%ADD26ROUNDEDRECTD26*%
G04:AMPARAMS|DCode=27|XSize=31.5mil|YSize=106.3mil|CornerRadius=7.87mil|HoleSize=0mil|Usage=FLASHONLY|Rotation=180.000|XOffset=0mil|YOffset=0mil|HoleType=Round|Shape=RoundedRectangle|*
%AMROUNDEDRECTD27*
21,1,0.03150,0.09055,0,0,180.0*
21,1,0.01575,0.10630,0,0,180.0*
1,1,0.01575,-0.00787,0.04528*
1,1,0.01575,0.00787,0.04528*
1,1,0.01575,0.00787,-0.04528*
1,1,0.01575,-0.00787,-0.04528*
%
%ADD27ROUNDEDRECTD27*%
G04:AMPARAMS|DCode=28|XSize=25.59mil|YSize=43.31mil|CornerRadius=6.4mil|HoleSize=0mil|Usage=FLASHONLY|Rotation=90.000|XOffset=0mil|YOffset=0mil|HoleType=Round|Shape=RoundedRectangle|*
%AMROUNDEDRECTD28*
21,1,0.02559,0.03051,0,0,90.0*
21,1,0.01280,0.04331,0,0,90.0*
1,1,0.01280,0.01526,0.00640*
1,1,0.01280,0.01526,-0.00640*
1,1,0.01280,-0.01526,-0.00640*
1,1,0.01280,-0.01526,0.00640*
%
%ADD28ROUNDEDRECTD28*%
%ADD29C,0.01181*%
%ADD30C,0.01969*%
%ADD31C,0.01000*%
%ADD32C,0.03937*%
%ADD33C,0.03902*%
%ADD34C,0.02953*%
%ADD35C,0.03543*%
G04:AMPARAMS|DCode=36|XSize=86.61mil|YSize=59.06mil|CornerRadius=0mil|HoleSize=0mil|Usage=FLASHONLY|Rotation=0.000|XOffset=0mil|YOffset=0mil|HoleType=Round|Shape=Octagon|*
%AMOCTAGOND36*
4,1,8,0.04331,-0.01476,0.04331,0.01476,0.02854,0.02953,-0.02854,0.02953,-0.04331,0.01476,-0.04331,-0.01476,-0.02854,-0.02953,0.02854,-0.02953,0.04331,-0.01476,0.0*
%
%ADD36OCTAGOND36*%

%ADD37P,0.05114X8X22.5*%
%ADD38C,0.13780*%
%ADD39C,0.05906*%
%ADD40R,0.05906X0.05906*%
%ADD41P,0.04261X8X22.5*%
%ADD42C,0.03937*%
%ADD43R,0.05906X0.05906*%
%ADD44C,0.01969*%
%ADD45C,0.02362*%
%ADD46C,0.04724*%
%ADD47C,0.04000*%
%ADD48C,0.07902*%
%ADD49C,0.06953*%
%ADD50C,0.07543*%
%ADD51O,0.10693X0.07150*%
%ADD52C,0.06362*%
%ADD53C,0.13843*%
%ADD54C,0.05181*%
%ADD55C,0.03098*%
%ADD56R,0.10630X0.07874*%
%ADD57R,0.05709X0.07874*%
%ADD58R,0.03150X0.05906*%
%ADD59O,0.01181X0.07087*%
%ADD60O,0.07087X0.01181*%
G04:AMPARAMS|DCode=61|XSize=50mil|YSize=70mil|CornerRadius=12.5mil|HoleSize=0mil|Usage=FLASHONLY|Rotation=90.000|XOffset=0mil|YOffset=0mil|HoleType=Round|Shape=RoundedRectangle|*
%AMROUNDEDRECTD61*
21,1,0.05000,0.04500,0,0,90.0*
21,1,0.02500,0.07000,0,0,90.0*
1,1,0.02500,0.02250,0.01250*
1,1,0.02500,0.02250,-0.01250*
1,1,0.02500,-0.02250,-0.01250*
1,1,0.02500,-0.02250,0.01250*
%
%ADD61ROUNDEDRECTD61*%
%ADD62C,0.00984*%
%ADD63C,0.00394*%
%ADD64C,0.00787*%
%ADD65R,0.09461X0.06706*%
%ADD66O,0.01784X0.04147*%
%ADD67O,0.03950X0.01981*%
%ADD68O,0.01981X0.03950*%
%ADD69R,0.07099X0.07099*%
%ADD70R,0.04737X0.04343*%
%ADD71C,0.03800*%
G04:AMPARAMS|DCode=72|XSize=244.22mil|YSize=106.42mil|CornerRadius=28.61mil|HoleSize=0mil|Usage=FLASHONLY|Rotation=0.000|XOffset=0mil|YOffset=0mil|HoleType=Round|Shape=RoundedRectangle|*
%AMROUNDEDRECTD72*
21,1,0.24422,0.04921,0,0,0.0*
21,1,0.18701,0.10642,0,0,0.0*
1,1,0.05721,0.09350,-0.02461*
1,1,0.05721,-0.09350,-0.02461*
1,1,0.05721,-0.09350,0.02461*
1,1,0.05721,0.09350,0.02461*
%
%ADD72ROUNDEDRECTD72*%
G04:AMPARAMS|DCode=73|XSize=106.42mil|YSize=47.37mil|CornerRadius=13.84mil|HoleSize=0mil|Usage=FLASHONLY|Rotation=0.000|XOffset=0mil|YOffset=0mil|HoleType=Round|Shape=RoundedRectangle|*
%AMROUNDEDRECTD73*
21,1,0.10642,0.01969,0,0,0.0*
21,1,0.07874,0.04737,0,0,0.0*
1,1,0.02769,0.03937,-0.00984*
1,1,0.02769,-0.03937,-0.00984*
1,1,0.02769,-0.03937,0.00984*
1,1,0.02769,0.03937,0.00984*
%
%ADD73ROUNDEDRECTD73*%
G04:AMPARAMS|DCode=74|XSize=86.74mil|YSize=102.49mil|CornerRadius=23.69mil|HoleSize=0mil|Usage=FLASHONLY|Rotation=180.000|XOffset=0mil|YOffset=0mil|HoleType=Round|Shape=RoundedRectangle|*
%AMROUNDEDRECTD74*
21,1,0.08674,0.05512,0,0,180.0*
21,1,0.03937,0.10249,0,0,180.0*
1,1,0.04737,-0.01969,0.02756*
1,1,0.04737,0.01969,0.02756*
1,1,0.04737,0.01969,-0.02756*
1,1,0.04737,-0.01969,-0.02756*
%
%ADD74ROUNDEDRECTD74*%
%ADD75R,0.04343X0.04737*%
%ADD76R,0.03950X0.07493*%
%ADD77R,0.03950X0.05131*%
%ADD78R,0.09800X0.09800*%
%ADD79R,0.05131X0.06706*%
%ADD80R,0.06706X0.05131*%
G04:AMPARAMS|DCode=81|XSize=59.18mil|YSize=72.96mil|CornerRadius=16.8mil|HoleSize=0mil|Usage=FLASHONLY|Rotation=0.000|XOffset=0mil|YOffset=0mil|HoleType=Round|Shape=RoundedRectangle|*
%AMROUNDEDRECTD81*
21,1,0.05918,0.03937,0,0,0.0*
21,1,0.02559,0.07296,0,0,0.0*
1,1,0.03359,0.01280,-0.01969*
1,1,0.03359,-0.01280,-0.01969*
1,1,0.03359,-0.01280,0.01969*
1,1,0.03359,0.01280,0.01969*
%
%ADD81ROUNDEDRECTD81*%
G04:AMPARAMS|DCode=82|XSize=39.5mil|YSize=114.3mil|CornerRadius=11.87mil|HoleSize=0mil|Usage=FLASHONLY|Rotation=180.000|XOffset=0mil|YOffset=0mil|HoleType=Round|Shape=RoundedRectangle|*
%AMROUNDEDRECTD82*
21,1,0.03950,0.09055,0,0,180.0*
21,1,0.01575,0.11430,0,0,180.0*
1,1,0.02375,-0.00787,0.04528*
1,1,0.02375,0.00787,0.04528*
1,1,0.02375,0.00787,-0.04528*
1,1,0.02375,-0.00787,-0.04528*
%
%ADD82ROUNDEDRECTD82*%
G04:AMPARAMS|DCode=83|XSize=33.59mil|YSize=51.31mil|CornerRadius=10.4mil|HoleSize=0mil|Usage=FLASHONLY|Rotation=90.000|XOffset=0mil|YOffset=0mil|HoleType=Round|Shape=RoundedRectangle|*
%AMROUNDEDRECTD83*
21,1,0.03359,0.03051,0,0,90.0*
21,1,0.01280,0.05131,0,0,90.0*
1,1,0.02080,0.01526,0.00640*
1,1,0.02080,0.01526,-0.00640*
1,1,0.02080,-0.01526,-0.00640*
1,1,0.02080,-0.01526,0.00640*
%
%ADD83ROUNDEDRECTD83*%
%ADD84C,0.04702*%
%ADD85C,0.03753*%
%ADD86C,0.04343*%
G04:AMPARAMS|DCode=87|XSize=94.61mil|YSize=67.06mil|CornerRadius=0mil|HoleSize=0mil|Usage=FLASHONLY|Rotation=0.000|XOffset=0mil|YOffset=0mil|HoleType=Round|Shape=Octagon|*
%AMOCTAGOND87*
4,1,8,0.04731,-0.01676,0.04731,0.01676,0.03054,0.03353,-0.03054,0.03353,-0.04731,0.01676,-0.04731,-0.01676,-0.03054,-0.03353,0.03054,-0.03353,0.04731,-0.01676,0.0*
%
%ADD87OCTAGOND87*%

%ADD88P,0.05980X8X22.5*%
%ADD89C,0.14579*%
%ADD90C,0.06706*%
%ADD91R,0.06706X0.06706*%
%ADD92P,0.05127X8X22.5*%
%ADD93C,0.04737*%
%ADD94R,0.06706X0.06706*%
D65*
X12000Y-42000D02*
D03*
D66*
X15937Y-47905D02*
D03*
X13969D02*
D03*
X12000D02*
D03*
X10031D02*
D03*
X8063D02*
D03*
Y-36094D02*
D03*
X10031D02*
D03*
X12000D02*
D03*
X13969D02*
D03*
X15937D02*
D03*
D67*
X66405Y-43453D02*
D03*
Y-41484D02*
D03*
Y-39516D02*
D03*
Y-37547D02*
D03*
X54594D02*
D03*
Y-39516D02*
D03*
Y-41484D02*
D03*
Y-43453D02*
D03*
D68*
X63453Y-34595D02*
D03*
X61484D02*
D03*
X59516D02*
D03*
X57547D02*
D03*
Y-46406D02*
D03*
X59516D02*
D03*
X61484D02*
D03*
X63453D02*
D03*
D69*
X60500Y-40500D02*
D03*
D70*
X30700Y-56709D02*
D03*
Y-63402D02*
D03*
X187000Y48346D02*
D03*
Y41654D02*
D03*
Y54654D02*
D03*
Y61347D02*
D03*
X13122Y-56709D02*
D03*
Y-63402D02*
D03*
X19000Y-56709D02*
D03*
Y-63402D02*
D03*
X7122Y-56709D02*
D03*
Y-63402D02*
D03*
X67000Y-56709D02*
D03*
Y-63402D02*
D03*
X61000Y-56709D02*
D03*
Y-63402D02*
D03*
X49000Y-56709D02*
D03*
Y-63402D02*
D03*
X55000Y-56709D02*
D03*
Y-63402D02*
D03*
X36800D02*
D03*
Y-56709D02*
D03*
X42800Y-63346D02*
D03*
Y-56653D02*
D03*
X329000Y-49654D02*
D03*
Y-56346D02*
D03*
X82500Y66847D02*
D03*
Y60154D02*
D03*
X25000Y-63402D02*
D03*
Y-56709D02*
D03*
X324500Y-36402D02*
D03*
Y-29709D02*
D03*
X318500Y-29709D02*
D03*
Y-36402D02*
D03*
X294500Y-36402D02*
D03*
Y-29709D02*
D03*
X288500Y-29709D02*
D03*
Y-36402D02*
D03*
X312500Y-29709D02*
D03*
Y-36402D02*
D03*
X306500Y-29709D02*
D03*
Y-36402D02*
D03*
X300500Y-29709D02*
D03*
Y-36402D02*
D03*
X348000Y-26098D02*
D03*
Y-32791D02*
D03*
Y-40098D02*
D03*
Y-46791D02*
D03*
X354000Y-26098D02*
D03*
Y-32791D02*
D03*
Y-40098D02*
D03*
Y-46791D02*
D03*
X342000Y-32791D02*
D03*
Y-26098D02*
D03*
Y-46791D02*
D03*
Y-40098D02*
D03*
X88500Y66847D02*
D03*
Y60154D02*
D03*
X74500Y-56709D02*
D03*
Y-63402D02*
D03*
X86500Y-63346D02*
D03*
Y-56653D02*
D03*
X80500Y-63402D02*
D03*
Y-56709D02*
D03*
X92500Y-63346D02*
D03*
Y-56653D02*
D03*
D71*
X145500Y40500D02*
D03*
X164000Y66500D02*
D03*
D72*
X155189Y51500D02*
D03*
D73*
X178811Y56500D02*
D03*
Y46500D02*
D03*
D74*
X213374Y56945D02*
D03*
X197626D02*
D03*
D75*
X202346Y46445D02*
D03*
X195653D02*
D03*
X207653D02*
D03*
X214346D02*
D03*
X84654Y-38000D02*
D03*
X91347D02*
D03*
X314846Y38500D02*
D03*
X308154D02*
D03*
X93654Y23500D02*
D03*
X100347D02*
D03*
X286347Y24000D02*
D03*
X279654D02*
D03*
X93654Y29500D02*
D03*
X100347D02*
D03*
X286347Y30000D02*
D03*
X279654D02*
D03*
X314791Y57435D02*
D03*
X308099D02*
D03*
X314791Y63799D02*
D03*
X308099D02*
D03*
X314791Y51071D02*
D03*
X308098D02*
D03*
X314791Y44707D02*
D03*
X308099D02*
D03*
X210966Y-65555D02*
D03*
X217659D02*
D03*
X128841D02*
D03*
X135534D02*
D03*
X121846Y-65555D02*
D03*
X115154D02*
D03*
X149222D02*
D03*
X142528D02*
D03*
X156216Y-65555D02*
D03*
X162909D02*
D03*
X169653Y-65500D02*
D03*
X176347D02*
D03*
X189848D02*
D03*
X183155D02*
D03*
X197278Y-65555D02*
D03*
X203972D02*
D03*
X91347Y-44000D02*
D03*
X84654D02*
D03*
X65402Y53500D02*
D03*
X58709D02*
D03*
X65346Y47500D02*
D03*
X58653D02*
D03*
X326098Y41500D02*
D03*
X332791D02*
D03*
X325598Y64000D02*
D03*
X332291D02*
D03*
X332791Y34500D02*
D03*
X326098D02*
D03*
D76*
X57307Y68000D02*
D03*
X70693D02*
D03*
D77*
X64000Y61504D02*
D03*
D78*
X283500Y-15000D02*
D03*
Y15000D02*
D03*
X97500Y-15000D02*
D03*
Y15000D02*
D03*
D79*
X302563Y-49055D02*
D03*
X310437D02*
D03*
D80*
X280500Y-37492D02*
D03*
Y-29618D02*
D03*
D81*
X11417Y65748D02*
D03*
X39764D02*
D03*
X23228D02*
D03*
X39764Y34252D02*
D03*
X23228D02*
D03*
X341272Y15748D02*
D03*
X324736D02*
D03*
X341272Y-15748D02*
D03*
X324736D02*
D03*
X353083D02*
D03*
D82*
X35831Y-39500D02*
D03*
X27169D02*
D03*
D83*
X324720Y56587D02*
D03*
Y52846D02*
D03*
X324720Y49106D02*
D03*
X334169D02*
D03*
Y56587D02*
D03*
D84*
X138500Y46504D02*
D03*
Y54496D02*
D03*
X108500Y50500D02*
D03*
D85*
X64000Y68000D02*
D03*
D86*
X110866Y33417D02*
D03*
Y-57528D02*
D03*
X269134Y33417D02*
D03*
Y-57528D02*
D03*
D87*
X258110Y-49850D02*
D03*
X121890D02*
D03*
D88*
X142756Y-56346D02*
D03*
X148661D02*
D03*
X154567D02*
D03*
X160473D02*
D03*
X166378D02*
D03*
X172283D02*
D03*
X178189D02*
D03*
X184095D02*
D03*
X190000D02*
D03*
X195905D02*
D03*
X201811D02*
D03*
X207716D02*
D03*
X213622D02*
D03*
X219528D02*
D03*
X225433D02*
D03*
X231339D02*
D03*
X237244D02*
D03*
D89*
X350394Y-59055D02*
D03*
Y59055D02*
D03*
X78740Y39370D02*
D03*
D90*
X95000Y47874D02*
D03*
X82500Y-8126D02*
D03*
Y-252D02*
D03*
Y7622D02*
D03*
Y15496D02*
D03*
X102000Y-27500D02*
D03*
X153500Y64500D02*
D03*
X143500D02*
D03*
X133500D02*
D03*
X123500D02*
D03*
X113500D02*
D03*
X103000Y-38000D02*
D03*
Y-48000D02*
D03*
D91*
X95000Y40000D02*
D03*
X82500Y-16000D02*
D03*
X103000Y-58000D02*
D03*
D92*
X299638Y-1575D02*
D03*
D93*
X304362D02*
D03*
D94*
X92000Y-27500D02*
D03*
X103500Y64500D02*
D03*
M02*
