%FSLAX25Y25*%
%MOIN*%
G70*
G01*
G75*
G04 Layer_Physical_Order=4*
G04 Layer_Color=16711680*
%ADD10R,0.08661X0.05906*%
%ADD11O,0.00984X0.03347*%
%ADD12O,0.03150X0.01181*%
%ADD13O,0.01181X0.03150*%
%ADD14R,0.06299X0.06299*%
%ADD15R,0.03937X0.03543*%
%ADD16C,0.03000*%
G04:AMPARAMS|DCode=17|XSize=236.22mil|YSize=98.43mil|CornerRadius=24.61mil|HoleSize=0mil|Usage=FLASHONLY|Rotation=0.000|XOffset=0mil|YOffset=0mil|HoleType=Round|Shape=RoundedRectangle|*
%AMROUNDEDRECTD17*
21,1,0.23622,0.04921,0,0,0.0*
21,1,0.18701,0.09843,0,0,0.0*
1,1,0.04921,0.09350,-0.02461*
1,1,0.04921,-0.09350,-0.02461*
1,1,0.04921,-0.09350,0.02461*
1,1,0.04921,0.09350,0.02461*
%
%ADD17ROUNDEDRECTD17*%
G04:AMPARAMS|DCode=18|XSize=98.43mil|YSize=39.37mil|CornerRadius=9.84mil|HoleSize=0mil|Usage=FLASHONLY|Rotation=0.000|XOffset=0mil|YOffset=0mil|HoleType=Round|Shape=RoundedRectangle|*
%AMROUNDEDRECTD18*
21,1,0.09843,0.01969,0,0,0.0*
21,1,0.07874,0.03937,0,0,0.0*
1,1,0.01969,0.03937,-0.00984*
1,1,0.01969,-0.03937,-0.00984*
1,1,0.01969,-0.03937,0.00984*
1,1,0.01969,0.03937,0.00984*
%
%ADD18ROUNDEDRECTD18*%
G04:AMPARAMS|DCode=19|XSize=78.74mil|YSize=94.49mil|CornerRadius=19.69mil|HoleSize=0mil|Usage=FLASHONLY|Rotation=180.000|XOffset=0mil|YOffset=0mil|HoleType=Round|Shape=RoundedRectangle|*
%AMROUNDEDRECTD19*
21,1,0.07874,0.05512,0,0,180.0*
21,1,0.03937,0.09449,0,0,180.0*
1,1,0.03937,-0.01969,0.02756*
1,1,0.03937,0.01969,0.02756*
1,1,0.03937,0.01969,-0.02756*
1,1,0.03937,-0.01969,-0.02756*
%
%ADD19ROUNDEDRECTD19*%
%ADD20R,0.03543X0.03937*%
%ADD21R,0.03150X0.06693*%
%ADD22R,0.03150X0.04331*%
%ADD23R,0.09000X0.09000*%
%ADD24R,0.04331X0.05906*%
%ADD25R,0.05906X0.04331*%
G04:AMPARAMS|DCode=26|XSize=51.18mil|YSize=64.96mil|CornerRadius=12.8mil|HoleSize=0mil|Usage=FLASHONLY|Rotation=0.000|XOffset=0mil|YOffset=0mil|HoleType=Round|Shape=RoundedRectangle|*
%AMROUNDEDRECTD26*
21,1,0.05118,0.03937,0,0,0.0*
21,1,0.02559,0.06496,0,0,0.0*
1,1,0.02559,0.01280,-0.01969*
1,1,0.02559,-0.01280,-0.01969*
1,1,0.02559,-0.01280,0.01969*
1,1,0.02559,0.01280,0.01969*
%
%ADD26ROUNDEDRECTD26*%
G04:AMPARAMS|DCode=27|XSize=31.5mil|YSize=106.3mil|CornerRadius=7.87mil|HoleSize=0mil|Usage=FLASHONLY|Rotation=180.000|XOffset=0mil|YOffset=0mil|HoleType=Round|Shape=RoundedRectangle|*
%AMROUNDEDRECTD27*
21,1,0.03150,0.09055,0,0,180.0*
21,1,0.01575,0.10630,0,0,180.0*
1,1,0.01575,-0.00787,0.04528*
1,1,0.01575,0.00787,0.04528*
1,1,0.01575,0.00787,-0.04528*
1,1,0.01575,-0.00787,-0.04528*
%
%ADD27ROUNDEDRECTD27*%
G04:AMPARAMS|DCode=28|XSize=25.59mil|YSize=43.31mil|CornerRadius=6.4mil|HoleSize=0mil|Usage=FLASHONLY|Rotation=90.000|XOffset=0mil|YOffset=0mil|HoleType=Round|Shape=RoundedRectangle|*
%AMROUNDEDRECTD28*
21,1,0.02559,0.03051,0,0,90.0*
21,1,0.01280,0.04331,0,0,90.0*
1,1,0.01280,0.01526,0.00640*
1,1,0.01280,0.01526,-0.00640*
1,1,0.01280,-0.01526,-0.00640*
1,1,0.01280,-0.01526,0.00640*
%
%ADD28ROUNDEDRECTD28*%
%ADD29C,0.01181*%
%ADD30C,0.01969*%
%ADD31C,0.01000*%
%ADD32C,0.03937*%
%ADD33C,0.03902*%
%ADD34C,0.02953*%
%ADD35C,0.03543*%
G04:AMPARAMS|DCode=36|XSize=86.61mil|YSize=59.06mil|CornerRadius=0mil|HoleSize=0mil|Usage=FLASHONLY|Rotation=0.000|XOffset=0mil|YOffset=0mil|HoleType=Round|Shape=Octagon|*
%AMOCTAGOND36*
4,1,8,0.04331,-0.01476,0.04331,0.01476,0.02854,0.02953,-0.02854,0.02953,-0.04331,0.01476,-0.04331,-0.01476,-0.02854,-0.02953,0.02854,-0.02953,0.04331,-0.01476,0.0*
%
%ADD36OCTAGOND36*%

%ADD37P,0.05114X8X22.5*%
%ADD38C,0.13780*%
%ADD39C,0.05906*%
%ADD40R,0.05906X0.05906*%
%ADD41P,0.04261X8X22.5*%
%ADD42C,0.03937*%
%ADD43R,0.05906X0.05906*%
%ADD44C,0.01969*%
%ADD45C,0.02362*%
%ADD46C,0.04724*%
%ADD47C,0.04000*%
%ADD48C,0.07902*%
%ADD49C,0.06953*%
%ADD50C,0.07543*%
%ADD51O,0.10693X0.07150*%
%ADD52C,0.06362*%
%ADD53C,0.13843*%
%ADD54C,0.05181*%
%ADD55C,0.03098*%
%ADD56R,0.10630X0.07874*%
%ADD57R,0.05709X0.07874*%
%ADD58R,0.03150X0.05906*%
%ADD59O,0.01181X0.07087*%
%ADD60O,0.07087X0.01181*%
G04:AMPARAMS|DCode=61|XSize=50mil|YSize=70mil|CornerRadius=12.5mil|HoleSize=0mil|Usage=FLASHONLY|Rotation=90.000|XOffset=0mil|YOffset=0mil|HoleType=Round|Shape=RoundedRectangle|*
%AMROUNDEDRECTD61*
21,1,0.05000,0.04500,0,0,90.0*
21,1,0.02500,0.07000,0,0,90.0*
1,1,0.02500,0.02250,0.01250*
1,1,0.02500,0.02250,-0.01250*
1,1,0.02500,-0.02250,-0.01250*
1,1,0.02500,-0.02250,0.01250*
%
%ADD61ROUNDEDRECTD61*%
D15*
X171555Y62846D02*
D03*
Y56154D02*
D03*
X165555Y56154D02*
D03*
Y62846D02*
D03*
X247000Y-40653D02*
D03*
Y-47346D02*
D03*
X171500Y24654D02*
D03*
Y31346D02*
D03*
X168445Y-3847D02*
D03*
Y2847D02*
D03*
X161945Y-3847D02*
D03*
Y2847D02*
D03*
X190100Y-42154D02*
D03*
Y-48846D02*
D03*
X213800Y-40554D02*
D03*
Y-47246D02*
D03*
X292500Y2153D02*
D03*
Y8846D02*
D03*
X259000Y8846D02*
D03*
Y2153D02*
D03*
D16*
X348000Y31500D02*
D03*
X166000Y-49000D02*
D03*
X183000D02*
D03*
Y-42555D02*
D03*
X348000Y-41000D02*
D03*
D20*
X130894Y-49841D02*
D03*
X137587D02*
D03*
X193654Y30000D02*
D03*
X200346D02*
D03*
X259500Y-20055D02*
D03*
X266193D02*
D03*
X259500Y-12055D02*
D03*
X266193D02*
D03*
X210653Y30000D02*
D03*
X217347D02*
D03*
X308063Y32276D02*
D03*
X314756D02*
D03*
X267653Y16555D02*
D03*
X274346D02*
D03*
X308063Y59146D02*
D03*
X314756D02*
D03*
X233154Y54500D02*
D03*
X239846D02*
D03*
X314846Y38500D02*
D03*
X308154D02*
D03*
X314846Y45000D02*
D03*
X308154D02*
D03*
X314756Y52782D02*
D03*
X308063D02*
D03*
X233154Y48500D02*
D03*
X239846D02*
D03*
X246153Y16000D02*
D03*
X252847D02*
D03*
X65346Y53500D02*
D03*
X58653D02*
D03*
X65346Y47500D02*
D03*
X58653D02*
D03*
D25*
X95500Y30937D02*
D03*
Y23063D02*
D03*
D29*
X345000Y34500D02*
X348000Y31500D01*
X339000Y34500D02*
X345000D01*
X303000Y36500D02*
X305000Y38500D01*
X308154D01*
X329000Y-46000D02*
X343000D01*
X348000Y-41000D01*
X281953Y41547D02*
X286717D01*
X281500Y42000D02*
X281953Y41547D01*
X269500Y42000D02*
X281500D01*
X273500Y39000D02*
X279827Y32673D01*
Y26783D02*
Y32673D01*
X260000Y43500D02*
X262000Y45500D01*
X260000Y32619D02*
Y43500D01*
X258173Y30792D02*
X260000Y32619D01*
X251283Y45484D02*
X261984D01*
X262000Y45500D01*
X259295Y57295D02*
X260142Y58142D01*
X251500Y62000D02*
X256205Y57295D01*
X259295D01*
X260142Y58142D02*
Y62217D01*
X298000Y53000D02*
Y54500D01*
X294421Y49421D02*
X298000Y53000D01*
X286717Y49421D02*
X294421D01*
X251000Y62000D02*
X251500D01*
X271000Y68000D02*
X272000D01*
X269984Y66984D02*
X271000Y68000D01*
X269984Y62217D02*
Y66984D01*
X272000Y68000D02*
X273921Y66079D01*
Y62217D02*
Y66079D01*
Y62217D02*
X273921Y62217D01*
X281638Y67138D02*
X282500Y68000D01*
X279011Y67138D02*
X281638D01*
X277858Y65985D02*
X279011Y67138D01*
X277858Y62217D02*
Y65985D01*
X264079Y67079D02*
X265000Y68000D01*
X264079Y62217D02*
Y67079D01*
X265000Y68000D02*
X266047Y66953D01*
Y62217D02*
Y66953D01*
X255783Y62217D02*
X258173D01*
X245000Y55500D02*
X247142Y53358D01*
X251284D01*
X244000Y50000D02*
Y51500D01*
X241000Y54500D02*
X244000Y51500D01*
X239846Y54500D02*
X241000D01*
X244000Y50000D02*
X246547Y47453D01*
X258173Y26783D02*
Y30792D01*
X211795Y13850D02*
Y18795D01*
X212500Y19500D01*
X222500D01*
X227441Y24441D01*
Y47441D01*
X228000Y48000D01*
X213764Y13850D02*
X221850D01*
X230000Y22000D01*
Y42000D01*
X276547Y47453D02*
X286717D01*
X276500Y47500D02*
X276547Y47453D01*
X301500Y53000D02*
Y54500D01*
X293984Y45484D02*
X301500Y53000D01*
X286717Y45484D02*
X293984D01*
X299016Y43516D02*
X300500Y45000D01*
X286717Y43516D02*
X299016D01*
X236500Y45000D02*
X239846Y48346D01*
Y48500D01*
X242862Y45484D01*
X251283D01*
X240516Y43516D02*
X251283D01*
X236500Y39500D02*
X240516Y43516D01*
X242547Y41547D02*
X251284D01*
X240500Y39500D02*
X242547Y41547D01*
X247079Y39579D02*
X249500D01*
X245000Y37500D02*
X247079Y39579D01*
X246547Y47453D02*
X251283D01*
X252847Y16000D02*
Y18346D01*
X258173Y23673D01*
Y26783D01*
X262110Y31110D02*
X264000Y33000D01*
X262110Y26783D02*
Y31110D01*
X264000Y33000D02*
X266047Y30953D01*
Y26783D02*
Y30953D01*
X263500Y21000D02*
X264079Y21579D01*
Y26783D01*
X267000Y21000D02*
X268016Y22016D01*
Y26783D01*
X273500Y34500D02*
X273921Y34079D01*
Y26783D02*
Y34079D01*
X286717Y51390D02*
X286717Y51390D01*
X279610Y51390D02*
X286717D01*
X279500Y51500D02*
X279610Y51390D01*
X253500Y-5000D02*
X254000D01*
X247500Y1000D02*
X253500Y-5000D01*
X234500Y1000D02*
X247500D01*
X253500Y-10000D02*
X254000D01*
X245500Y-2000D02*
X253500Y-10000D01*
X227500Y-2000D02*
X245500D01*
X183827Y2827D02*
X184000Y3000D01*
X177150Y2827D02*
X183827D01*
X235500Y-4500D02*
X236500Y-5500D01*
X226040Y-4500D02*
X235500D01*
X232516Y-7016D02*
X234000Y-8500D01*
X220850Y-7016D02*
X232516D01*
X224619Y-3079D02*
X226040Y-4500D01*
X220850Y-3079D02*
X224619D01*
X226610Y-1110D02*
X227500Y-2000D01*
X220850Y-1110D02*
X226610D01*
X215047Y-5047D02*
X220850D01*
X210653Y26153D02*
Y30000D01*
X203272Y18772D02*
X210653Y26153D01*
X203106Y18772D02*
X203272D01*
X201953Y17618D02*
X203106Y18772D01*
X201953Y13850D02*
Y17618D01*
X201953Y13850D02*
X201953Y13850D01*
X199984Y13850D02*
Y21484D01*
X201000Y22500D01*
X197000Y23635D02*
Y39000D01*
Y23635D02*
X198016Y22619D01*
Y13850D02*
Y22619D01*
X195000Y20500D02*
Y21000D01*
Y20500D02*
X196047Y19453D01*
Y13850D02*
Y19453D01*
X193654Y30000D02*
Y34347D01*
X192110Y28457D02*
X193654Y30000D01*
X192110Y13850D02*
Y28457D01*
X190142Y37142D02*
X192000Y39000D01*
X190142Y13850D02*
Y37142D01*
X187000Y20881D02*
Y30500D01*
X183500Y21000D02*
Y22000D01*
X275890Y62217D02*
X275890Y62217D01*
Y67890D01*
X276000Y68000D01*
X197500Y65000D02*
X224500D01*
X165000Y32500D02*
X197500Y65000D01*
X160500Y32500D02*
X165000D01*
X72500Y57000D02*
X75500Y54000D01*
X59500Y57000D02*
X72500D01*
X58653Y56154D02*
X59500Y57000D01*
X58653Y53500D02*
Y56154D01*
X262110Y62217D02*
Y67390D01*
X261500Y68000D02*
X262110Y67390D01*
X196500Y68000D02*
X261500D01*
X164500Y36000D02*
X196500Y68000D01*
X160500Y36000D02*
X164500D01*
X194079Y8579D02*
Y13850D01*
X193000Y7500D02*
X194079Y8579D01*
X183500Y7500D02*
X193000D01*
X177500Y13500D02*
X183500Y7500D01*
X143000Y13500D02*
X177500D01*
X140000Y16500D02*
X143000Y13500D01*
X140000Y16500D02*
Y19500D01*
X139500Y20000D02*
X140000Y19500D01*
X139500Y20000D02*
Y27000D01*
X140500Y28000D01*
X141500D01*
X142500Y29000D01*
X137000Y18500D02*
Y40000D01*
Y18500D02*
X137126Y18374D01*
X137000Y40000D02*
X144000Y47000D01*
X142500Y29000D02*
Y40500D01*
Y41000D01*
X147846Y46347D01*
Y56154D01*
X165555D01*
X143500Y60500D02*
X147846Y56154D01*
X143500Y60500D02*
Y64500D01*
X165555Y56154D02*
X165555Y56154D01*
X171555D01*
X133500Y64500D02*
X135500D01*
X144000Y56000D01*
Y47000D02*
Y56000D01*
X223000Y10000D02*
X223500D01*
X220850Y7850D02*
X223000Y10000D01*
X220850Y6764D02*
Y7850D01*
X134500Y15500D02*
Y42000D01*
X228500Y8000D02*
X229000D01*
X225295Y4795D02*
X228500Y8000D01*
X220850Y4795D02*
X225295D01*
X131000Y12500D02*
Y42000D01*
X228500Y4500D02*
X229000D01*
X226827Y2827D02*
X228500Y4500D01*
X220850Y2827D02*
X226827D01*
X119500Y42500D02*
X126500D01*
X107500D02*
X119500D01*
Y10500D02*
Y42500D01*
X220850Y858D02*
X228858D01*
X54500Y54000D02*
Y63000D01*
Y54000D02*
X55000Y53500D01*
X58653D01*
X136000Y50500D02*
X140000D01*
X133500Y48000D02*
X136000Y50500D01*
X113500Y62500D02*
Y64500D01*
X105171Y54171D02*
X113500Y62500D01*
X105171Y48329D02*
Y54171D01*
Y48329D02*
X108500Y45000D01*
X102500Y63500D02*
X103500Y64500D01*
X102500Y47500D02*
Y63500D01*
Y47500D02*
X107500Y42500D01*
X108500Y45000D02*
X115500D01*
X118500Y48000D01*
X126500Y42500D02*
X128500Y44500D01*
X139000Y69000D02*
X143500Y64500D01*
X120500Y69000D02*
X139000D01*
X118500Y67000D02*
X120500Y69000D01*
X118500Y61500D02*
Y67000D01*
X113500Y56500D02*
X118500Y61500D01*
X113500Y53000D02*
Y56500D01*
X133500Y53000D02*
Y64500D01*
X118500Y53000D02*
Y57500D01*
Y53000D02*
X123500Y48000D01*
X128500Y44500D02*
Y48000D01*
X123500Y53000D02*
Y64500D01*
X65346Y47500D02*
X65346Y47500D01*
Y53500D01*
X58653Y43154D02*
Y47500D01*
X49500Y68000D02*
X54500Y63000D01*
X18500Y68000D02*
X49500D01*
X17500Y33000D02*
X52000D01*
X53000Y34000D01*
X89000Y28000D02*
X91937Y30937D01*
X95500D01*
X88000Y35500D02*
Y60000D01*
X84500Y25000D02*
X89000Y20500D01*
X84500Y32000D02*
X88000Y35500D01*
X84500Y25000D02*
Y32000D01*
X78000Y60000D02*
X88000D01*
X89000Y10063D02*
Y20500D01*
Y10063D02*
X93532Y5531D01*
X147000Y7000D02*
X150500Y10500D01*
X173413D01*
X177150Y6764D01*
X163000Y7500D02*
X170000D01*
X172705Y4795D01*
X177150D01*
X168445Y2847D02*
X172000Y-709D01*
Y-2000D02*
Y-709D01*
Y-2000D02*
X173079Y-3079D01*
X177150D01*
X169646Y-5047D02*
X171614Y-7016D01*
X168445Y-3847D02*
X169646Y-5047D01*
X171614Y-7016D02*
X177150D01*
X169646Y-5047D02*
X177150D01*
X115000Y-48000D02*
X130500Y-32500D01*
Y-31000D01*
X186205Y-34295D02*
Y-29850D01*
X185000Y-35500D02*
X186205Y-34295D01*
X150000Y-35500D02*
X185000D01*
X145500Y-31000D02*
X150000Y-35500D01*
X138500Y-32500D02*
Y-11000D01*
Y-32500D02*
X150000Y-44000D01*
Y-51000D02*
Y-44000D01*
X115000Y-63500D02*
Y-48000D01*
X110000Y-68500D02*
X115000Y-63500D01*
X107000Y-68500D02*
X110000D01*
X106378Y-67878D02*
X107000Y-68500D01*
X47878Y-67878D02*
X106378D01*
X38000Y-58000D02*
X47878Y-67878D01*
X38000Y-58000D02*
Y-50000D01*
X216390Y-14890D02*
X220850D01*
X214000Y-12500D02*
X216390Y-14890D01*
X214000Y-12500D02*
Y-8500D01*
X181650Y-29850D02*
X184236D01*
X181500Y-30000D02*
X181650Y-29850D01*
X181055Y-42555D02*
X183000D01*
X177000Y-38500D02*
X181055Y-42555D01*
X186446Y-52500D02*
X190100Y-48846D01*
X176500Y-52500D02*
X186446D01*
X173000Y-49000D02*
X176500Y-52500D01*
X166000Y-49000D02*
X173000D01*
X196965Y-51500D02*
X201811Y-56346D01*
X192754Y-51500D02*
X196965D01*
X190100Y-48846D02*
X192754Y-51500D01*
X190100Y-42154D02*
Y-40400D01*
X194079Y-36421D01*
Y-29850D01*
X190500Y-24061D02*
Y-24000D01*
Y-24061D02*
X192110Y-25672D01*
Y-29850D02*
Y-25672D01*
X186205Y13850D02*
Y18295D01*
X183500Y21000D02*
X186205Y18295D01*
X188173Y13850D02*
Y19708D01*
X187000Y20881D02*
X188173Y19708D01*
X190142Y13850D02*
X190142Y13850D01*
X205500Y-50500D02*
X206000D01*
X203000Y-48000D02*
X205500Y-50500D01*
X203000Y-48000D02*
Y-45000D01*
X203921Y-44079D01*
Y-29850D01*
X205890Y-47000D02*
Y-29850D01*
X209827Y-50827D02*
X213622Y-54622D01*
X209827Y-50827D02*
Y-37827D01*
X207858Y-35858D02*
X209827Y-37827D01*
X207858Y-35858D02*
Y-29850D01*
X211795Y-38549D02*
X213800Y-40554D01*
X211795Y-38549D02*
Y-29850D01*
X213622Y-56346D02*
Y-54622D01*
X194079Y-29850D02*
Y-24021D01*
X211300Y-24100D02*
X211795Y-24595D01*
Y-29850D02*
Y-24595D01*
X242600Y-15400D02*
X251600D01*
X242500Y-15300D02*
X242600Y-15400D01*
X242400Y-15300D02*
X242500D01*
X182700Y-15900D02*
X183300D01*
X181742Y-16858D02*
X182700Y-15900D01*
X177150Y-16858D02*
X181742D01*
X229484Y-8984D02*
X237244Y-16744D01*
X220850Y-8984D02*
X229484D01*
X237244Y-56346D02*
Y-16744D01*
X169000Y-15500D02*
Y-15000D01*
X169110Y-14890D01*
X167079Y-12921D02*
X177150D01*
X165000Y-15000D02*
X167079Y-12921D01*
X203921Y-2579D02*
Y13850D01*
X200000Y-6500D02*
X203921Y-2579D01*
X89000Y-4000D02*
Y5000D01*
X86378Y7622D02*
X89000Y5000D01*
X82500Y7622D02*
X86378D01*
X302394Y-54394D02*
Y-49811D01*
X260142Y21642D02*
Y26783D01*
X258000Y19500D02*
X260142Y21642D01*
X251284Y37610D02*
X255610D01*
X257000Y39000D01*
X251284Y35642D02*
X256358D01*
X257000Y35000D01*
X169110Y-14890D02*
X177150D01*
X166000Y-21000D02*
X168173Y-18827D01*
X177150D01*
X167500Y-24500D02*
Y-23500D01*
X170205Y-20795D01*
X177150D01*
X171000Y-24500D02*
X172736Y-22764D01*
X177150D01*
X283000Y430D02*
X284723Y2153D01*
X292500D01*
X265166Y8846D02*
X267000Y10680D01*
X259000Y8846D02*
X265166D01*
X269984Y18886D02*
Y26783D01*
X267653Y16555D02*
X269984Y18886D01*
X271953Y18949D02*
Y26783D01*
Y18949D02*
X274346Y16555D01*
X267653Y11334D02*
Y16555D01*
X267000Y10680D02*
X267653Y11334D01*
X274346Y9084D02*
Y16555D01*
Y9084D02*
X283000Y430D01*
X71000Y-52000D02*
X77000Y-58000D01*
X103000D01*
D30*
X314791Y55500D02*
X320000D01*
X233154Y48500D02*
Y54500D01*
Y59346D01*
X239846Y54500D02*
Y59346D01*
X238000Y16000D02*
X246153D01*
X171555Y62846D02*
Y66945D01*
X153500Y64500D02*
X155154Y62846D01*
X165555D01*
X171500Y31346D02*
X176347D01*
X171500Y21000D02*
Y24654D01*
X95000Y40000D02*
X97000D01*
X112598Y24402D01*
Y22441D02*
Y24402D01*
X109158Y19000D02*
X112598Y22441D01*
X99563Y19000D02*
X109158D01*
X95500Y23063D02*
X99563Y19000D01*
X311055Y-54445D02*
Y-49811D01*
X274933Y-60047D02*
Y-51567D01*
X218000Y-45000D02*
Y-44500D01*
X215754Y-47246D02*
X218000Y-45000D01*
X213800Y-47246D02*
X215754D01*
X139428Y-48000D02*
X143000D01*
X137587Y-49841D02*
X139428Y-48000D01*
X121890Y-49850D02*
X121899Y-49841D01*
X130894D01*
D31*
X41900Y-55400D02*
X52500Y-66000D01*
X41900Y-55400D02*
Y-50100D01*
X318000Y-21500D02*
X347500D01*
X358791Y-32791D01*
X314000Y-24000D02*
Y-21500D01*
Y-24000D02*
X325000Y-35000D01*
X349500D01*
X358791Y-44291D01*
Y-46791D02*
Y-44291D01*
X315000Y23500D02*
X341000D01*
X310500Y19000D02*
X315000Y23500D01*
X310500Y-8000D02*
Y19000D01*
X308000Y-10500D02*
X310500Y-8000D01*
X304500Y-10500D02*
X308000D01*
X300500Y-14500D02*
X304500Y-10500D01*
X300500Y-40500D02*
Y-14500D01*
X312500Y-41000D02*
Y-25650D01*
X308425Y-21575D02*
X312500Y-25650D01*
X292500Y57500D02*
Y60000D01*
X290327Y55327D02*
X292500Y57500D01*
X286717Y55327D02*
X290327D01*
X283784Y62217D02*
X285500Y60500D01*
X279827Y62217D02*
X283784D01*
X280000Y55500D02*
X282142Y53358D01*
X286717D01*
X271953Y56547D02*
Y62217D01*
X286717Y33673D02*
Y39579D01*
Y33673D02*
X286717Y33673D01*
X276941Y39441D02*
X277079Y39579D01*
X286717D01*
X265500Y36000D02*
Y46500D01*
X251284Y31216D02*
Y33673D01*
Y31216D02*
X254500Y28000D01*
X262579Y49421D02*
X265500Y46500D01*
X251284Y49421D02*
X262579D01*
X251284D02*
Y51390D01*
X256390D01*
X257000Y52000D01*
Y54000D01*
X255673Y55327D02*
X257000Y54000D01*
X251284Y55327D02*
X255673D01*
X288114Y32276D02*
X308063D01*
X286717Y33673D02*
X288114Y32276D01*
X297646Y59146D02*
X308063D01*
X295500Y57000D02*
X297646Y59146D01*
X295500Y53156D02*
Y57000D01*
X293734Y51390D02*
X295500Y53156D01*
X286717Y51390D02*
X293734D01*
X277000Y20500D02*
X277858Y21358D01*
Y26783D01*
X213764Y-33264D02*
X215000Y-34500D01*
X213764Y-33264D02*
Y-29850D01*
X209827Y1173D02*
Y13850D01*
Y1173D02*
X211000Y0D01*
Y-5491D02*
Y0D01*
X209746Y-6746D02*
X211000Y-5491D01*
X122000Y-27500D02*
Y2500D01*
X119000Y-30500D02*
X122000Y-27500D01*
X109500Y-30500D02*
X119000D01*
X109500Y-40500D02*
Y-40000D01*
X107000Y-43000D02*
X109500Y-40500D01*
X95500Y-43000D02*
X107000D01*
X77500Y-49000D02*
Y-37000D01*
Y-49000D02*
X81500Y-53000D01*
X105000D01*
X113500Y-44500D01*
Y-37500D01*
X107500Y-54500D02*
X110000Y-52000D01*
X52500Y-66000D02*
X104000D01*
X107500Y-62500D01*
Y-54500D01*
X65000Y-31000D02*
X67500Y-33500D01*
X61500Y-31000D02*
X65000D01*
X67500Y-33500D02*
X112500D01*
X180500Y-49000D02*
X183000D01*
X173000Y-41500D02*
X180500Y-49000D01*
X160000Y-51000D02*
Y-41000D01*
X156500Y-48500D02*
Y-41000D01*
X153000Y-46000D02*
Y-41000D01*
X183000Y-42555D02*
Y-40972D01*
X188173Y-35799D01*
Y-29850D01*
X183000Y-49000D02*
X186844Y-45156D01*
Y-39656D01*
X190142Y-36358D01*
Y-29850D01*
X195000Y-40000D02*
Y-38500D01*
X196047Y-37453D01*
Y-29850D01*
X195000Y-46000D02*
Y-44000D01*
X198016Y-40984D01*
Y-29850D01*
X198000Y-48500D02*
Y-44500D01*
X199984Y-42516D01*
Y-29850D01*
X201500Y-51000D02*
Y-49986D01*
X201122Y-49609D02*
X201500Y-49986D01*
X201122Y-49609D02*
Y-44222D01*
X201953Y-43391D01*
Y-29850D01*
X207500Y-24000D02*
X207616D01*
X209736Y-26120D01*
Y-29760D02*
Y-26120D01*
Y-29760D02*
X209827Y-29850D01*
X172283Y-57615D02*
Y-56346D01*
Y-57615D02*
X180087Y-65418D01*
X184095Y-56346D02*
X193254Y-65506D01*
X193960D01*
X198742Y-60871D02*
X210975D01*
X195905Y-58035D02*
X198742Y-60871D01*
X122000Y-61000D02*
X126500Y-65500D01*
X145500D01*
X148661Y-62339D01*
Y-56346D01*
X195905Y-58035D02*
Y-56346D01*
X231000Y-50500D02*
X235000Y-46500D01*
X221500Y-50500D02*
X231000D01*
X219528Y-52472D02*
X221500Y-50500D01*
X219528Y-56346D02*
Y-52472D01*
X223000Y-45000D02*
X223500D01*
X221000Y-43000D02*
X223000Y-45000D01*
X221000Y-43000D02*
Y-25642D01*
X228287Y-38713D02*
Y-21760D01*
X223500Y-41500D02*
X224000Y-41000D01*
X226000D01*
X228287Y-38713D01*
X226500Y-36000D02*
Y-22500D01*
X223500Y-38000D02*
X224500D01*
X226500Y-36000D01*
X223500Y-34500D02*
Y-25413D01*
X235000Y-46500D02*
Y-18000D01*
X227953Y-10953D02*
X235000Y-18000D01*
X220850Y-10953D02*
X227953D01*
X207858Y142D02*
Y13850D01*
Y142D02*
X209000Y-1000D01*
Y-4000D02*
Y-1000D01*
X207000Y-6000D02*
X209000Y-4000D01*
X204500Y-6000D02*
X207000D01*
X205890Y-1890D02*
Y13850D01*
Y-1890D02*
X206500Y-2500D01*
X298000Y-49874D02*
X298063Y-49811D01*
X298000Y-57500D02*
Y-49874D01*
X315386Y-64614D02*
Y-49811D01*
X315000Y-65000D02*
X315386Y-64614D01*
X264500Y-65500D02*
Y-57500D01*
X293732Y-49811D02*
X294000Y-50079D01*
Y-60000D02*
Y-50079D01*
X306724Y-61224D02*
Y-49811D01*
Y-61224D02*
X307000Y-61500D01*
X220000Y-24642D02*
X221000Y-25642D01*
X217120Y-24642D02*
X220000D01*
X216000Y-23522D02*
X217120Y-24642D01*
X216000Y-23522D02*
Y-17500D01*
X216642Y-16858D01*
X220850D01*
X225355Y-18827D02*
X228287Y-21760D01*
X220850Y-18827D02*
X225355D01*
X224795Y-20795D02*
X226500Y-22500D01*
X220850Y-20795D02*
X224795D01*
X220850Y-22764D02*
X223500Y-25413D01*
D32*
X314791Y55500D02*
Y68291D01*
Y27209D02*
Y55500D01*
X300500Y45000D02*
X308154D01*
X308063Y45091D02*
X308154Y45000D01*
X308063Y45091D02*
Y52782D01*
X206347Y36000D02*
X221500D01*
X200346Y30000D02*
X206347Y36000D01*
X217347Y30000D02*
X221500D01*
X154000Y6000D02*
Y6500D01*
Y6000D02*
X157153Y2847D01*
X161945D01*
X168445D01*
X157000Y-15000D02*
Y-8791D01*
X161945Y-3847D01*
X168445D01*
X267000Y430D02*
X272930D01*
X283000Y10680D02*
X290666D01*
X292500Y8846D01*
X260723Y430D02*
X267000D01*
X259000Y2153D02*
X260723Y430D01*
X266193Y-20055D02*
Y-12055D01*
X259500Y-20055D02*
Y-12055D01*
X247000Y-40653D02*
X252346D01*
X249504Y-49850D02*
X258110D01*
X247000Y-47346D02*
X249504Y-49850D01*
X112598Y-22441D02*
Y-15598D01*
D33*
X138500Y46504D02*
D03*
Y54496D02*
D03*
X108500Y50500D02*
D03*
D34*
X64000Y68000D02*
D03*
D35*
X110866Y33417D02*
D03*
Y-57528D02*
D03*
X269134Y33417D02*
D03*
Y-57528D02*
D03*
D36*
X258110Y-49850D02*
D03*
X121890D02*
D03*
D37*
X142756Y-56346D02*
D03*
X148661D02*
D03*
X154567D02*
D03*
X160473D02*
D03*
X166378D02*
D03*
X172283D02*
D03*
X178189D02*
D03*
X184095D02*
D03*
X190000D02*
D03*
X195905D02*
D03*
X201811D02*
D03*
X207716D02*
D03*
X213622D02*
D03*
X219528D02*
D03*
X225433D02*
D03*
X231339D02*
D03*
X237244D02*
D03*
D38*
X350394Y-59055D02*
D03*
Y59055D02*
D03*
X78740Y39370D02*
D03*
D39*
X95000Y47874D02*
D03*
X82500Y-8126D02*
D03*
Y-252D02*
D03*
Y7622D02*
D03*
Y15496D02*
D03*
X102000Y-27500D02*
D03*
X153500Y64500D02*
D03*
X143500D02*
D03*
X133500D02*
D03*
X123500D02*
D03*
X113500D02*
D03*
X103000Y-38000D02*
D03*
Y-48000D02*
D03*
D40*
X95000Y40000D02*
D03*
X82500Y-16000D02*
D03*
X103000Y-58000D02*
D03*
D41*
X299638Y-1575D02*
D03*
D42*
X304362D02*
D03*
D43*
X92000Y-27500D02*
D03*
X103500Y64500D02*
D03*
D44*
X12000Y-42000D02*
D03*
X9047Y-43378D02*
D03*
Y-40622D02*
D03*
X14953D02*
D03*
Y-43378D02*
D03*
X58531Y-38532D02*
D03*
X62468D02*
D03*
Y-42469D02*
D03*
X58531D02*
D03*
X60500Y-40500D02*
D03*
D45*
X25000Y-67400D02*
D03*
X41900Y-50100D02*
D03*
X210653Y26153D02*
D03*
X298500Y36500D02*
D03*
X308099Y68401D02*
D03*
X320500Y36000D02*
D03*
X326098Y29598D02*
D03*
X340000Y47000D02*
D03*
X320500Y60000D02*
D03*
X320000Y55500D02*
D03*
X320500Y64000D02*
D03*
X314791Y68291D02*
D03*
Y27209D02*
D03*
X339000Y34500D02*
D03*
X303000Y36500D02*
D03*
X318000Y-21500D02*
D03*
X358791Y-32791D02*
D03*
X314000Y-21500D02*
D03*
X358791Y-46791D02*
D03*
X329000Y-46000D02*
D03*
X341000Y23500D02*
D03*
X300500Y-40500D02*
D03*
X312500Y-41000D02*
D03*
X308425Y-21575D02*
D03*
X288500Y-25500D02*
D03*
X359000Y-37000D02*
D03*
X348500Y-17500D02*
D03*
X354000Y-22000D02*
D03*
X292500Y60000D02*
D03*
X285500Y60500D02*
D03*
X280000Y55500D02*
D03*
X271953Y56547D02*
D03*
X265500Y46500D02*
D03*
X276941Y39441D02*
D03*
X273500Y39000D02*
D03*
X254500Y28000D02*
D03*
X265500Y36000D02*
D03*
X269500Y42000D02*
D03*
X262000Y45500D02*
D03*
X298000Y54500D02*
D03*
X251000Y62000D02*
D03*
X272000Y68000D02*
D03*
X282500D02*
D03*
X265000D02*
D03*
X255783Y62217D02*
D03*
X245000Y55500D02*
D03*
X30700Y-51700D02*
D03*
X19000Y-67500D02*
D03*
X7122Y-67378D02*
D03*
X13122D02*
D03*
X228000Y48000D02*
D03*
X230000Y42000D02*
D03*
X276500Y47500D02*
D03*
X301500Y54500D02*
D03*
X236500Y45000D02*
D03*
X245000Y37500D02*
D03*
X233154Y59346D02*
D03*
X239846Y59346D02*
D03*
X238000Y16000D02*
D03*
X264000Y33000D02*
D03*
X263500Y21000D02*
D03*
X267000D02*
D03*
X273500Y34500D02*
D03*
X279500Y51500D02*
D03*
X254000Y-5000D02*
D03*
X234500Y1000D02*
D03*
X254000Y-10000D02*
D03*
X184000Y3000D02*
D03*
X236500Y-5500D02*
D03*
X234000Y-8500D02*
D03*
X215047Y-5047D02*
D03*
X221500Y36000D02*
D03*
Y30000D02*
D03*
X201000Y22500D02*
D03*
X197000Y39000D02*
D03*
X195000Y21000D02*
D03*
X193654Y34347D02*
D03*
X187000Y30500D02*
D03*
X183500Y22000D02*
D03*
X192000Y39000D02*
D03*
X171555Y66945D02*
D03*
X276000Y68000D02*
D03*
X224500Y65000D02*
D03*
X160500Y32500D02*
D03*
X75500Y54000D02*
D03*
X160500Y36000D02*
D03*
X176347Y31346D02*
D03*
X171500Y21000D02*
D03*
X137126Y18374D02*
D03*
X142500Y40500D02*
D03*
X223500Y10000D02*
D03*
X134500Y42000D02*
D03*
Y15500D02*
D03*
X229000Y8000D02*
D03*
X131000Y42000D02*
D03*
Y12500D02*
D03*
X229000Y4500D02*
D03*
X119500Y10500D02*
D03*
X228858Y858D02*
D03*
X140000Y50500D02*
D03*
X118500Y57500D02*
D03*
X68496Y61504D02*
D03*
X92847Y66847D02*
D03*
X7000Y68000D02*
D03*
X58653Y43154D02*
D03*
X18500Y68000D02*
D03*
X17500Y33000D02*
D03*
X53000Y34000D02*
D03*
X89000Y28000D02*
D03*
X78000Y60000D02*
D03*
X93532Y5531D02*
D03*
X147000Y7000D02*
D03*
X163000Y7500D02*
D03*
X104000Y23500D02*
D03*
X277000Y20500D02*
D03*
X297000Y17000D02*
D03*
X290500Y10500D02*
D03*
X272930Y430D02*
D03*
X266000Y-16000D02*
D03*
X259500Y-16055D02*
D03*
X329000Y-60000D02*
D03*
Y-27500D02*
D03*
X311055Y-54445D02*
D03*
X274933Y-51567D02*
D03*
X275000Y-27000D02*
D03*
X215000Y-34500D02*
D03*
X252346Y-40653D02*
D03*
X218000Y-44500D02*
D03*
X135534Y-61034D02*
D03*
X142528Y-61028D02*
D03*
X162909Y-61091D02*
D03*
X171153Y-61154D02*
D03*
X222445Y-65555D02*
D03*
X209746Y-6746D02*
D03*
X122000Y2500D02*
D03*
X130500Y-31000D02*
D03*
X109500Y-30500D02*
D03*
Y-40000D02*
D03*
X95500Y-43000D02*
D03*
X143000Y-48000D02*
D03*
X138500Y-11000D02*
D03*
X145500Y-31000D02*
D03*
X38000Y-50000D02*
D03*
X61500Y-31000D02*
D03*
X112500Y-33500D02*
D03*
X77500Y-37000D02*
D03*
X113500Y-37500D02*
D03*
X110000Y-52000D02*
D03*
X214000Y-8500D02*
D03*
X150000Y-51000D02*
D03*
X108555Y-65555D02*
D03*
X181500Y-30000D02*
D03*
X177000Y-38500D02*
D03*
X173000Y-41500D02*
D03*
X96846Y-63346D02*
D03*
X160000Y-41000D02*
D03*
Y-51000D02*
D03*
X156500Y-41000D02*
D03*
X153000D02*
D03*
X156500Y-48500D02*
D03*
X153000Y-46000D02*
D03*
X195000Y-40000D02*
D03*
Y-46000D02*
D03*
X198000Y-48500D02*
D03*
X201500Y-51000D02*
D03*
X207500Y-24000D02*
D03*
X190500D02*
D03*
X71000Y-63500D02*
D03*
X205000Y43500D02*
D03*
X206000Y-50500D02*
D03*
X205890Y-47000D02*
D03*
X194079Y-24021D02*
D03*
X211300Y-24100D02*
D03*
X251600Y-15400D02*
D03*
X242400Y-15300D02*
D03*
X183300Y-15900D02*
D03*
X180087Y-65418D02*
D03*
X122000Y-61000D02*
D03*
X193960Y-65506D02*
D03*
X210975Y-60871D02*
D03*
X223500Y-45000D02*
D03*
Y-41500D02*
D03*
Y-38000D02*
D03*
Y-34500D02*
D03*
X169000Y-15500D02*
D03*
X204500Y-6000D02*
D03*
X89000Y-4000D02*
D03*
X200000Y-6500D02*
D03*
X206500Y-2500D02*
D03*
X298000Y-57500D02*
D03*
X315000Y-65000D02*
D03*
X264500Y-65500D02*
D03*
Y-57500D02*
D03*
X294000Y-60000D02*
D03*
X307000Y-61500D02*
D03*
X302394Y-54394D02*
D03*
X258000Y19500D02*
D03*
X236500Y39500D02*
D03*
X240500D02*
D03*
X257000Y39000D02*
D03*
Y35000D02*
D03*
X165000Y-15000D02*
D03*
X166000Y-21000D02*
D03*
X167500Y-24500D02*
D03*
X171000D02*
D03*
X71000Y-52000D02*
D03*
X22500Y-43500D02*
D03*
X19000D02*
D03*
X22500Y-40000D02*
D03*
X19000D02*
D03*
X22500Y-36000D02*
D03*
X19000D02*
D03*
X4594Y-47905D02*
D03*
X46000Y-37500D02*
D03*
X46016Y-41484D02*
D03*
X52595Y-46406D02*
D03*
X4500Y-36000D02*
D03*
Y-32000D02*
D03*
D46*
X300500Y45000D02*
D03*
X154000Y6500D02*
D03*
X157000Y-15000D02*
D03*
X112598Y-15598D02*
D03*
D55*
X113500Y53000D02*
D03*
X118500D02*
D03*
X123500D02*
D03*
X128500D02*
D03*
X133500D02*
D03*
Y48000D02*
D03*
X128500D02*
D03*
X123500D02*
D03*
X118500D02*
D03*
X113500D02*
D03*
D56*
X112598Y22441D02*
D03*
Y-22441D02*
D03*
X146850D02*
D03*
Y22441D02*
D03*
D57*
X329067Y-27409D02*
D03*
X274933D02*
D03*
Y-60047D02*
D03*
X329067D02*
D03*
D58*
X298063Y-49811D02*
D03*
X293732D02*
D03*
X289402D02*
D03*
X302394D02*
D03*
X306724D02*
D03*
X311055D02*
D03*
X315386D02*
D03*
X319717D02*
D03*
D59*
X213764Y-29850D02*
D03*
X211795Y-29850D02*
D03*
X209827D02*
D03*
X207858D02*
D03*
X205890D02*
D03*
X203921Y-29850D02*
D03*
X201953D02*
D03*
X199984D02*
D03*
X198016Y-29850D02*
D03*
X196047D02*
D03*
X194079D02*
D03*
X192110Y-29850D02*
D03*
X190142D02*
D03*
X188173Y-29850D02*
D03*
X186205Y-29850D02*
D03*
X184236D02*
D03*
Y13850D02*
D03*
X186205D02*
D03*
X188173D02*
D03*
X190142D02*
D03*
X192110D02*
D03*
X194079Y13850D02*
D03*
X196047D02*
D03*
X198016D02*
D03*
X199984Y13850D02*
D03*
X201953D02*
D03*
X203921D02*
D03*
X205890D02*
D03*
X207858Y13850D02*
D03*
X209827Y13850D02*
D03*
X211795D02*
D03*
X213764Y13850D02*
D03*
X279827Y26783D02*
D03*
X277858D02*
D03*
X275890D02*
D03*
X273921D02*
D03*
X271953Y26783D02*
D03*
X269984D02*
D03*
X268016D02*
D03*
X266047Y26783D02*
D03*
X264079D02*
D03*
X262110D02*
D03*
X260142D02*
D03*
X258173Y26783D02*
D03*
Y62217D02*
D03*
X260142Y62217D02*
D03*
X262110D02*
D03*
X264079D02*
D03*
X266047D02*
D03*
X268016Y62217D02*
D03*
X269984D02*
D03*
X271953D02*
D03*
X273921Y62217D02*
D03*
X275890D02*
D03*
X277858D02*
D03*
X279827D02*
D03*
D60*
X177150Y-22764D02*
D03*
Y-20795D02*
D03*
Y-18827D02*
D03*
X177150Y-16858D02*
D03*
Y-14890D02*
D03*
X177150Y-12921D02*
D03*
Y-10953D02*
D03*
Y-8984D02*
D03*
Y-7016D02*
D03*
Y-5047D02*
D03*
Y-3079D02*
D03*
Y-1110D02*
D03*
Y858D02*
D03*
Y2827D02*
D03*
Y4795D02*
D03*
Y6764D02*
D03*
X220850Y6764D02*
D03*
X220850Y4795D02*
D03*
Y2827D02*
D03*
X220850Y858D02*
D03*
Y-1110D02*
D03*
Y-3079D02*
D03*
Y-5047D02*
D03*
Y-7016D02*
D03*
X220850Y-8984D02*
D03*
Y-10953D02*
D03*
X220850Y-12921D02*
D03*
Y-14890D02*
D03*
Y-16858D02*
D03*
Y-18827D02*
D03*
Y-20795D02*
D03*
Y-22764D02*
D03*
X286717Y55327D02*
D03*
Y53358D02*
D03*
Y51390D02*
D03*
Y49421D02*
D03*
X286717Y47453D02*
D03*
Y45484D02*
D03*
Y43516D02*
D03*
X286717Y41547D02*
D03*
Y39579D02*
D03*
X286717Y37610D02*
D03*
Y35642D02*
D03*
Y33673D02*
D03*
X251284D02*
D03*
Y35642D02*
D03*
Y37610D02*
D03*
Y39579D02*
D03*
Y41547D02*
D03*
X251283Y43516D02*
D03*
Y45484D02*
D03*
Y47453D02*
D03*
X251284Y49421D02*
D03*
Y51390D02*
D03*
Y53358D02*
D03*
Y55327D02*
D03*
D61*
X267000Y430D02*
D03*
Y10680D02*
D03*
X283000D02*
D03*
Y430D02*
D03*
M02*
