M48
;Layer_Color=9474304
;FILE_FORMAT=2:5
INCH,LZ
;TYPE=PLATED
T1F00S00C0.01181
T2F00S00C0.02362
T3F00S00C0.02953
T5F00S00C0.03543
T6F00S00C0.03902
T7F00S00C0.09843
%
T01
X0274933Y-0051567
X0294Y-006
X0298Y-00575
X0302394Y-0054394
X0311055Y-0054445
X0307Y-00615
X0315Y-0065
X0329Y-006
X0358791Y-0046791
X02645Y-00575
Y-00655
X0222445Y-0065555
X0210975Y-0060871
X0206Y-00505
X020589Y-0047
X02015Y-0051
X0198Y-00485
X019396Y-0065506
X0180087Y-0065418
X0171153Y-0061154
X0162909Y-0061091
X016Y-0051
X01565Y-00485
X015Y-0051
X0143Y-0048
X0142528Y-0061028
X0135534Y-0061034
X0122Y-0061
X0108555Y-0065555
X0096846Y-0063346
X011Y-0052
X0071
Y-00635
X00419Y-00501
X0038Y-005
X00307Y-00517
X0025Y-00674
X0019Y-00675
X0013122Y-0067378
X0007122
X0004594Y-0047905
X0009047Y-0043378
Y-0040622
X0012Y-0042
X0014953Y-0040622
Y-0043378
X0019Y-00435
X00225
Y-004
X0019
Y-0036
X00225
X00045
Y-0032
X0046Y-00375
X0046016Y-0041484
X0052595Y-0046406
X0058531Y-0042469
Y-0038532
X0062468
Y-0042469
X00605Y-00405
X00615Y-0031
X00775Y-0037
X00955Y-0043
X01095Y-004
Y-00305
X0089Y-0004
X0093532Y0005531
X0089Y0028
X0104Y00235
X0092847Y0066847
X0078Y006
X00755Y0054
X0068496Y0061504
X0058653Y0043154
X0053Y0034
X00175Y0033
X00185Y0068
X0007
X01185Y00575
X0131Y0042
X01345
X01425Y00405
X014Y00505
X01605Y0036
Y00325
X0176347Y0031346
X0187Y00305
X0193654Y0034347
X0192Y0039
X0197
X0205Y00435
X0210653Y0026153
X0201Y00225
X0195Y0021
X01835Y0022
X01715Y0021
X0163Y00075
X0147Y0007
X01345Y00155
X0137126Y0018374
X0131Y00125
X01195Y00105
X0122Y00025
X01385Y-0011
X01455Y-0031
X01305
X01125Y-00335
X01135Y-00375
X0153Y-0041
X01565
X016
X0153Y-0046
X0173Y-00415
X0177Y-00385
X01815Y-003
X01905Y-0024
X0194079Y-0024021
X02075Y-0024
X02113Y-00241
X0215Y-00345
X02235
Y-0038
Y-00415
Y-0045
X0218Y-00445
X0195Y-0046
Y-004
X01833Y-00159
X0169Y-00155
X0165Y-0015
X0166Y-0021
X01675Y-00245
X0171
X0184Y0003
X02Y-00065
X02045Y-0006
X02065Y-00025
X0209746Y-0006746
X0214Y-00085
X0215047Y-0005047
X0228858Y0000858
X0229Y00045
Y0008
X02235Y001
X02345Y0001
X02365Y-00055
X0234Y-00085
X02424Y-00153
X02516Y-00154
X0254Y-001
Y-0005
X02595Y-0016055
X0266Y-0016
X0267Y0021
X02635
X0258Y00195
X02545Y0028
X0257Y0035
Y0039
X02655Y0036
X0264Y0033
X0262Y00455
X02655Y00465
X0265Y0068
X0255783Y0062217
X0251Y0062
X0245Y00555
X0239846Y0059346
X0233154Y0059346
X02245Y0065
X0228Y0048
X023Y0042
X02365Y00395
X02405
X0245Y00375
X02365Y0045
X02215Y0036
Y003
X0238Y0016
X0252346Y-0040653
X0171555Y0066945
X0272Y0068
X0276
X02825
X02855Y00605
X02925Y006
X0298Y00545
X03015
X032Y00555
X03205Y006
Y0064
X0314791Y0068291
X0308099Y0068401
X0303Y00365
X02985
X0297Y0017
X02905Y00105
X0277Y00205
X02735Y00345
Y0039
X0276941Y0039441
X02765Y00475
X02795Y00515
X028Y00555
X0271953Y0056547
X02695Y0042
X027293Y000043
X0275Y-0027
X02885Y-00255
X0308425Y-0021575
X0314Y-00215
X0318
X0329Y-00275
Y-0046
X03125Y-0041
X03005Y-00405
X0359Y-0037
X0358791Y-0032791
X0354Y-0022
X03485Y-00175
X0341Y00235
X0339Y00345
X034Y0047
X03205Y0036
X0326098Y0029598
X0314791Y0027209
T02
X0142756Y-0056346
X0148661
X0154567
X0160473
X0166378
X0172283
X0178189
X0184095
X019
X0195905
X0201811
X0207716
X0213622
X0219528
X0225433
X0231339
X0237244
X0299638Y-0001575
X0304362
T03
X0064Y0068
T05
X0269134Y-0057528
X0110866
X0103Y-0058
Y-0048
Y-0038
X0102Y-00275
X0092
X00825Y-0016
Y-0008126
Y-0000252
Y0007622
Y0015496
X0095Y004
Y0047874
X01035Y00645
X0110866Y0033417
X01135Y00645
X01235
X01335
X01435
X01535
X0154Y00065
X0157Y-0015
X0112598Y-0015598
X0269134Y0033417
X03005Y0045
T06
X01085Y00505
X01385Y0046504
Y0054496
T07
X0350394Y-0059055
X007874Y003937
X0350394Y0059055
M30
